<svg xmlns="http://www.w3.org/2000/svg" xmlns:xlink="http://www.w3.org/1999/xlink" viewBox="0 0 260.18 260.18"><defs><style>.cls-1{fill:#fff;}.cls-2{fill:#ebebeb;}.cls-3{fill:#33284d;}.cls-4{fill:#65b3f0;}.cls-5{fill:#76c6ef;}.cls-6{fill:#9c9aaa;}.cls-7{fill:url(#Degradado_sin_nombre_6);}.cls-8{fill:url(#Degradado_sin_nombre_12);}</style><linearGradient id="Degradado_sin_nombre_6" x1="24.74" y1="176.03" x2="167.47" y2="176.03" gradientUnits="userSpaceOnUse"><stop offset="0" stop-color="#ff9657"/><stop offset="1" stop-color="#ffb55b"/></linearGradient><linearGradient id="Degradado_sin_nombre_12" x1="29.02" y1="178.17" x2="167.47" y2="178.17" gradientUnits="userSpaceOnUse"><stop offset="0.01" stop-color="#ff6357"/><stop offset="1" stop-color="#ffb55b"/></linearGradient></defs><g id="Capa_2" data-name="Capa 2"><g id="Capa_1-2" data-name="Capa 1"><circle class="cls-1" cx="130.09" cy="130.09" r="128.12"/><path class="cls-2" d="M130.09,2c-4.32,0-8.6.22-12.81.64a128.12,128.12,0,0,1,0,255c4.21.42,8.49.64,12.81.64A128.12,128.12,0,0,0,130.09,2Z"/><path class="cls-3" d="M220.33,223a2,2,0,0,1-1.39-3.37A126.15,126.15,0,0,0,130.09,3.94,126.88,126.88,0,0,0,21.75,65.43a2,2,0,1,1-3.38-2A130.85,130.85,0,0,1,130.09,0c71.73,0,130.09,58.36,130.09,130.09a129.21,129.21,0,0,1-38.46,92.35A2,2,0,0,1,220.33,223Z"/><path class="cls-3" d="M130.09,260.18C58.36,260.18,0,201.82,0,130.09A129,129,0,0,1,12.77,73.81a2,2,0,1,1,3.55,1.71A126.18,126.18,0,0,0,210.89,227a2,2,0,1,1,2.52,3A130.18,130.18,0,0,1,130.09,260.18Z"/><rect class="cls-2" x="67.56" y="54.71" width="128.45" height="85.64" rx="5"/><path class="cls-1" d="M180.7,129.07,67.56,133.21V61.85a7.14,7.14,0,0,1,7.13-7.14H188.87L184.82,125A4.28,4.28,0,0,1,180.7,129.07Z"/><path class="cls-3" d="M188.87,141.68H176a1.34,1.34,0,1,1,0-2.67h12.84a5.8,5.8,0,0,0,5.8-5.8V61.85a5.8,5.8,0,0,0-5.8-5.8H74.69a5.8,5.8,0,0,0-5.8,5.8v71.36a5.8,5.8,0,0,0,5.8,5.8h92.78a1.34,1.34,0,0,1,0,2.67H74.69a8.48,8.48,0,0,1-8.47-8.47V61.85a8.48,8.48,0,0,1,8.47-8.48H188.87a8.48,8.48,0,0,1,8.48,8.48v71.36A8.48,8.48,0,0,1,188.87,141.68Z"/><rect class="cls-4" x="80.4" y="67.56" width="25.69" height="17.13" rx="1"/><path class="cls-5" d="M89,86a1.34,1.34,0,0,1-1.34-1.34V67.56a1.34,1.34,0,1,1,2.67,0V84.68A1.34,1.34,0,0,1,89,86Z"/><path class="cls-5" d="M97.53,86a1.34,1.34,0,0,1-1.34-1.34V67.56a1.34,1.34,0,0,1,2.68,0V84.68A1.34,1.34,0,0,1,97.53,86Z"/><path class="cls-5" d="M106.09,77.46H97.53a1.34,1.34,0,0,1,0-2.68h8.56a1.34,1.34,0,0,1,0,2.68Z"/><path class="cls-5" d="M89,77.46H80.4a1.34,1.34,0,0,1,0-2.68H89a1.34,1.34,0,0,1,0,2.68Z"/><path class="cls-3" d="M104.75,86h-23a2.68,2.68,0,0,1-2.68-2.68V68.89a2.68,2.68,0,0,1,2.68-2.67h23a2.68,2.68,0,0,1,2.68,2.67V83.34A2.68,2.68,0,0,1,104.75,86Zm-23-17.13V83.34h23V68.89Z"/><path class="cls-6" d="M116.08,111.71H80.4a1.34,1.34,0,1,1,0-2.67h35.68a1.34,1.34,0,1,1,0,2.67Z"/><path class="cls-6" d="M148.91,111.71H124.65a1.34,1.34,0,1,1,0-2.67h24.26a1.34,1.34,0,1,1,0,2.67Z"/><path class="cls-6" d="M101.81,118.85H80.4a1.34,1.34,0,0,1,0-2.68h21.41a1.34,1.34,0,0,1,0,2.68Z"/><path class="cls-6" d="M138.92,118.85H110.37a1.34,1.34,0,0,1,0-2.68h28.55a1.34,1.34,0,0,1,0,2.68Z"/><path class="cls-6" d="M192.8,190H164.25a1.34,1.34,0,0,1,0-2.67H192.8a1.34,1.34,0,1,1,0,2.67Z"/><path class="cls-6" d="M200.65,199H182.09a1.34,1.34,0,0,1,0-2.67h18.56a1.34,1.34,0,1,1,0,2.67Z"/><path class="cls-6" d="M50.79,78.71H29.38a1.34,1.34,0,1,1,0-2.68H50.79a1.34,1.34,0,0,1,0,2.68Z"/><path class="cls-6" d="M58.64,87.63H42.94a1.34,1.34,0,0,1,0-2.68h15.7a1.34,1.34,0,0,1,0,2.68Z"/><rect class="cls-7" x="24.74" y="126.07" width="142.73" height="99.91"/><path class="cls-8" d="M167.47,226H29l4.16-88.71a2.85,2.85,0,0,1,2.76-2.72l131.53-4.2Z"/><path class="cls-3" d="M87.54,227.32H24.74A1.34,1.34,0,0,1,23.4,226V154.62a1.34,1.34,0,0,1,2.68,0v70H87.54a1.34,1.34,0,0,1,0,2.68Z"/><path class="cls-3" d="M167.47,227.32H96.1a1.34,1.34,0,1,1,0-2.68h70V127.41h-140v18.64a1.34,1.34,0,0,1-2.68,0v-20a1.33,1.33,0,0,1,1.34-1.33H167.47a1.33,1.33,0,0,1,1.33,1.33V226A1.34,1.34,0,0,1,167.47,227.32Z"/><path class="cls-1" d="M143.91,213.14H48.29a10.7,10.7,0,0,0-10.71-10.71V149.62a10.7,10.7,0,0,0,10.71-10.7h95.62a10.71,10.71,0,0,0,10.71,10.7v52.81A10.71,10.71,0,0,0,143.91,213.14Z"/><path class="cls-3" d="M143.91,214.47H48.29A1.33,1.33,0,0,1,47,213.14a9.38,9.38,0,0,0-9.37-9.37,1.33,1.33,0,0,1-1.33-1.34V149.62a1.32,1.32,0,0,1,1.33-1.33A9.38,9.38,0,0,0,47,138.92a1.34,1.34,0,0,1,1.34-1.34h95.62a1.34,1.34,0,0,1,1.34,1.34,9.38,9.38,0,0,0,9.37,9.37,1.33,1.33,0,0,1,1.34,1.33v52.81a1.34,1.34,0,0,1-1.34,1.34,9.38,9.38,0,0,0-9.37,9.37A1.33,1.33,0,0,1,143.91,214.47ZM49.55,211.8h93.1a12.07,12.07,0,0,1,10.63-10.63V150.89a12.07,12.07,0,0,1-10.63-10.63H49.55a12.07,12.07,0,0,1-10.63,10.63v50.28A12.07,12.07,0,0,1,49.55,211.8Z"/><path class="cls-4" d="M118.94,176c0,15.76-10.23,28.54-22.84,28.54S73.27,191.79,73.27,176s10.22-28.55,22.83-28.55S118.94,160.26,118.94,176Z"/><path class="cls-5" d="M96.1,205.91c-13.33,0-24.17-13.4-24.17-29.88s10.84-29.89,24.17-29.89,24.18,13.41,24.18,29.89S109.43,205.91,96.1,205.91Zm0-57.09C84.25,148.82,74.6,161,74.6,176s9.65,27.2,21.5,27.2S117.6,191,117.6,176,108,148.82,96.1,148.82Z"/><path class="cls-4" d="M136.16,184.5a8.48,8.48,0,1,1,8.47-8.47A8.49,8.49,0,0,1,136.16,184.5Zm0-14.27A5.8,5.8,0,1,0,142,176,5.8,5.8,0,0,0,136.16,170.23Z"/><path class="cls-4" d="M56.23,184.5A8.48,8.48,0,1,1,64.71,176,8.48,8.48,0,0,1,56.23,184.5Zm0-14.27A5.8,5.8,0,1,0,62,176,5.81,5.81,0,0,0,56.23,170.23Z"/><path class="cls-3" d="M80.4,100.29A1.34,1.34,0,0,1,79.06,99V96.1a1.34,1.34,0,0,1,2.68,0V99A1.34,1.34,0,0,1,80.4,100.29Z"/><path class="cls-3" d="M86.11,100.29A1.34,1.34,0,0,1,84.77,99V96.1a1.34,1.34,0,0,1,2.68,0V99A1.34,1.34,0,0,1,86.11,100.29Z"/><path class="cls-3" d="M91.82,100.29A1.34,1.34,0,0,1,90.48,99V96.1a1.34,1.34,0,0,1,2.68,0V99A1.34,1.34,0,0,1,91.82,100.29Z"/><path class="cls-3" d="M97.53,100.29A1.34,1.34,0,0,1,96.19,99V96.1a1.34,1.34,0,0,1,2.68,0V99A1.34,1.34,0,0,1,97.53,100.29Z"/><path class="cls-3" d="M109,100.29A1.34,1.34,0,0,1,107.61,99V96.1a1.34,1.34,0,0,1,2.68,0V99A1.34,1.34,0,0,1,109,100.29Z"/><path class="cls-3" d="M114.66,100.29A1.34,1.34,0,0,1,113.32,99V96.1a1.34,1.34,0,1,1,2.67,0V99A1.33,1.33,0,0,1,114.66,100.29Z"/><path class="cls-3" d="M120.37,100.29A1.34,1.34,0,0,1,119,99V96.1a1.34,1.34,0,1,1,2.67,0V99A1.34,1.34,0,0,1,120.37,100.29Z"/><path class="cls-3" d="M126.07,100.29A1.33,1.33,0,0,1,124.74,99V96.1a1.34,1.34,0,1,1,2.67,0V99A1.34,1.34,0,0,1,126.07,100.29Z"/><path class="cls-3" d="M137.49,100.29A1.34,1.34,0,0,1,136.15,99V96.1a1.34,1.34,0,0,1,2.68,0V99A1.34,1.34,0,0,1,137.49,100.29Z"/><path class="cls-3" d="M143.2,100.29A1.34,1.34,0,0,1,141.86,99V96.1a1.34,1.34,0,0,1,2.68,0V99A1.34,1.34,0,0,1,143.2,100.29Z"/><path class="cls-3" d="M148.91,100.29A1.34,1.34,0,0,1,147.57,99V96.1a1.34,1.34,0,0,1,2.68,0V99A1.34,1.34,0,0,1,148.91,100.29Z"/><path class="cls-3" d="M154.62,100.29A1.34,1.34,0,0,1,153.28,99V96.1a1.34,1.34,0,0,1,2.68,0V99A1.34,1.34,0,0,1,154.62,100.29Z"/><path class="cls-3" d="M166,100.29A1.34,1.34,0,0,1,164.7,99V96.1a1.34,1.34,0,1,1,2.67,0V99A1.33,1.33,0,0,1,166,100.29Z"/><path class="cls-3" d="M171.75,100.29A1.34,1.34,0,0,1,170.41,99V96.1a1.34,1.34,0,1,1,2.67,0V99A1.33,1.33,0,0,1,171.75,100.29Z"/><path class="cls-3" d="M177.46,100.29A1.34,1.34,0,0,1,176.12,99V96.1a1.34,1.34,0,1,1,2.67,0V99A1.33,1.33,0,0,1,177.46,100.29Z"/><path class="cls-3" d="M183.17,100.29A1.34,1.34,0,0,1,181.83,99V96.1a1.34,1.34,0,1,1,2.67,0V99A1.34,1.34,0,0,1,183.17,100.29Z"/><path class="cls-1" d="M107.21,193.39A14.84,14.84,0,0,1,99,195.7a14.38,14.38,0,0,1-11.15-4.9,16.86,16.86,0,0,1-4-9.45H80.5v-2.69h3.13v-.82c0-.88.06-1.71.11-2.48H80.5v-2.74h3.63a17.46,17.46,0,0,1,4.5-9.29,14.52,14.52,0,0,1,10.89-4.56,15.47,15.47,0,0,1,7.3,1.76l-1.1,3.62a12.68,12.68,0,0,0-6.15-1.54,9.54,9.54,0,0,0-7.25,3,13,13,0,0,0-3.3,7h15.33v2.74H88.52c0,.72-.11,1.54-.11,2.31v1h15.94v2.69H88.8a13.24,13.24,0,0,0,3,7.2,10.44,10.44,0,0,0,7.75,3.19,14.28,14.28,0,0,0,6.7-1.81Z"/></g></g></svg>