<svg xmlns="http://www.w3.org/2000/svg" xmlns:xlink="http://www.w3.org/1999/xlink" viewBox="0 0 680.57 578.02"><defs><style>.cls-1{fill:#7fdbef;}.cls-2{fill:#d4977b;}.cls-3{fill:#b9846b;}.cls-4{fill:#a0725d;}.cls-5{fill:url(#Degradado_sin_nombre_6);}.cls-6{fill:#fff;}.cls-7{fill:#7a7d88;}.cls-8{fill:#8a8e9a;}.cls-9{fill:#cdedf7;}.cls-10{fill:#6d707a;}.cls-11{fill:#d35159;}.cls-12{fill:#ad3541;}.cls-13{fill:#972e39;}.cls-14{fill:#6ea7b1;}.cls-15{fill:#8dc2cb;}.cls-16{fill:#62939c;}.cls-17{fill:#76b2bd;}.cls-18{fill:#636fa6;}.cls-19{fill:#a1b6e5;}.cls-20{fill:#93a7d2;}.cls-21{fill:#75bded;}.cls-22{fill:#86d4de;}.cls-23{fill:#a97267;}.cls-24{fill:#945e56;}.cls-25{fill:#6e4540;}.cls-26{fill:#decfcc;}.cls-27{fill:#c75e42;}.cls-28{fill:#8b463d;}.cls-29{fill:#6e3730;}.cls-30{fill:#fb947c;}.cls-31{fill:#fabb61;}.cls-32{fill:#32191a;}.cls-33{fill:#6cafdb;}.cls-34{fill:#b7e1ec;}.cls-35{fill:#c0715f;}.cls-36{fill:#b96d5b;}.cls-37{fill:#852f2c;}.cls-38{fill:#c74f42;}.cls-39{fill:#c3924c;}.cls-40{fill:#bd614e;}.cls-41{fill:#e87760;}.cls-42{fill:#844436;}.cls-43{fill:#977669;}.cls-44{fill:#f7e9e2;}.cls-45{fill:#855a52;}</style><linearGradient id="Degradado_sin_nombre_6" x1="219.21" y1="133.43" x2="265.63" y2="133.43" gradientUnits="userSpaceOnUse"><stop offset="0" stop-color="#ff9657"/><stop offset="1" stop-color="#ffb55b"/></linearGradient></defs><g id="Capa_2" data-name="Capa 2"><g id="Capa_1-2" data-name="Capa 1"><path class="cls-1" d="M559.58,0H121A121,121,0,0,0,0,121V423.47a121,121,0,0,0,121,121H468.8L496.31,578l27.52-33.56h35.75a121,121,0,0,0,121-121V121A121,121,0,0,0,559.58,0Z"/><polygon class="cls-2" points="55.65 446.04 21.54 326.84 167.4 337.42 55.65 446.04"/><polygon class="cls-3" points="21.54 326.84 130.73 373.06 167.4 337.42 21.54 326.84"/><rect class="cls-3" x="37.19" y="361.77" width="11.92" height="3.88" transform="translate(-268.22 170.85) rotate(-51.46)"/><rect class="cls-3" x="54.38" y="357.19" width="11.92" height="3.88" transform="translate(-258.21 182.65) rotate(-51.48)"/><rect class="cls-3" x="44.81" y="384.78" width="11.92" height="3.88" transform="translate(-283.4 185.57) rotate(-51.48)"/><rect class="cls-3" x="74.34" y="385.33" width="11.92" height="3.88" transform="translate(-272.7 208.89) rotate(-51.48)"/><rect class="cls-3" x="74.06" y="370.08" width="11.92" height="3.88" transform="translate(-260.87 202.92) rotate(-51.48)"/><rect class="cls-4" x="97.04" y="344.2" width="10.42" height="3.39" transform="translate(-245.3 249.46) rotate(-58.02)"/><rect class="cls-4" x="116.59" y="339.62" width="10.43" height="3.39" transform="translate(-232.21 263.8) rotate(-58.01)"/><polygon class="cls-4" points="83.23 331.32 79.9 336.67 82.78 338.46 87.06 331.59 83.23 331.32"/><rect class="cls-3" x="53.96" y="410.42" width="11.92" height="3.88" transform="translate(-300.01 202.4) rotate(-51.48)"/><path class="cls-5" d="M242.44,171.38c30-27.46,31.82-75.91,0-75.91S212.34,144.17,242.44,171.38Z"/><path class="cls-6" d="M254.19,119.87a11.76,11.76,0,1,1-3.44-8.32A11.8,11.8,0,0,1,254.19,119.87Z"/><path class="cls-7" d="M206.19,237.26l99.48-32.78a11,11,0,0,1,13.87,7l24.19,73.42a11,11,0,0,1-7,13.86l-99.49,32.78a10.94,10.94,0,0,1-13.86-7l-24.2-73.42A11,11,0,0,1,206.19,237.26Z"/><path class="cls-8" d="M242.08,195.29,186.8,213.51l40,121.46L312,306.91l-27.09-82.23s-18.81,2.41-27.1-2.05l-8.61,2.83-4.66-14.13a6,6,0,0,1,1.29-5.91C243.47,199.92,242.08,195.29,242.08,195.29Z"/><path class="cls-9" d="M211.37,251a5.94,5.94,0,0,0-3.79,7.51l4.66,14.13,11.29-3.72-4.66-14.13A5.92,5.92,0,0,0,211.37,251Z"/><path class="cls-9" d="M227.15,245.82a5.93,5.93,0,0,0-3.78,7.51L228,267.46l11.29-3.72-4.65-14.13A5.94,5.94,0,0,0,227.15,245.82Z"/><path class="cls-9" d="M242.93,240.62a5.93,5.93,0,0,0-3.78,7.51l4.65,14.13,11.29-3.72-4.65-14.13A5.94,5.94,0,0,0,242.93,240.62Z"/><path class="cls-9" d="M258.71,235.42a5.92,5.92,0,0,0-3.78,7.51l4.66,14.13,11.29-3.72-4.66-14.13A5.94,5.94,0,0,0,258.71,235.42Z"/><path class="cls-9" d="M274.49,230.22a5.93,5.93,0,0,0-3.78,7.51l4.66,14.13,11.29-3.72L282,234A5.94,5.94,0,0,0,274.49,230.22Z"/><path class="cls-9" d="M223.3,287.23a5.93,5.93,0,0,0-3.78,7.51l4.65,14.13,11.29-3.72L230.81,291A5.94,5.94,0,0,0,223.3,287.23Z"/><path class="cls-9" d="M239.08,282a5.93,5.93,0,0,0-3.78,7.51L240,303.67,251.24,300l-4.65-14.13A5.94,5.94,0,0,0,239.08,282Z"/><path class="cls-9" d="M254.86,276.83a5.93,5.93,0,0,0-3.78,7.51l4.66,14.13L267,294.75l-4.66-14.13A5.94,5.94,0,0,0,254.86,276.83Z"/><path class="cls-9" d="M270.64,271.63a5.93,5.93,0,0,0-3.78,7.51l4.66,14.13,11.29-3.72-4.66-14.13A5.94,5.94,0,0,0,270.64,271.63Z"/><path class="cls-9" d="M286.42,266.43a5.94,5.94,0,0,0-3.78,7.51l4.66,14.13,11.29-3.72-4.66-14.13A5.94,5.94,0,0,0,286.42,266.43Z"/><path class="cls-9" d="M201,219.42a5.94,5.94,0,0,0-3.79,7.51l4.66,14.13,11.29-3.72-4.66-14.13A5.92,5.92,0,0,0,201,219.42Z"/><path class="cls-9" d="M216.74,214.22a5.94,5.94,0,0,0-3.79,7.51l4.66,14.13,11.29-3.72L224.25,218A5.94,5.94,0,0,0,216.74,214.22Z"/><path class="cls-9" d="M232.52,209a5.94,5.94,0,0,0-3.79,7.51l4.66,14.13,11.29-3.72L240,212.81A5.92,5.92,0,0,0,232.52,209Z"/><rect class="cls-10" x="193.39" y="229.96" width="66.77" height="4.67" transform="translate(-61.3 82.63) rotate(-18.24)"/><rect class="cls-10" x="203.16" y="257.59" width="92.16" height="4.67" transform="translate(-68.82 91.06) rotate(-18.24)"/><rect class="cls-10" x="215.1" y="293.8" width="92.16" height="4.67" transform="translate(-79.56 96.61) rotate(-18.24)"/><path class="cls-9" d="M294.37,222.21a4.86,4.86,0,0,0-3.11,6.16L295.08,240l9.26-3.05-3.82-11.59A4.86,4.86,0,0,0,294.37,222.21Z"/><path class="cls-9" d="M306.53,258.52a4.86,4.86,0,0,0-3.11,6.16l3.82,11.59,9.26-3-3.82-11.59A4.87,4.87,0,0,0,306.53,258.52Z"/><rect class="cls-10" x="184.08" y="202.17" width="60.94" height="4.66" transform="translate(-53.23 77.42) rotate(-18.24)"/><path class="cls-11" d="M463.69,228.07l-25.1,67.11-1.94,5.2-8.51,22.74,7.4,2.77,8.51-22.74,8.64,3.23,1.94-5.2L446,298l7.14-19.09,8.64,3.24,1.94-5.2-8.64-3.23,16-42.83Zm-64-23.94-16,42.83L375,243.73l-1.94,5.19,8.64,3.24-7.14,19.08L365.94,268,364,273.2l8.64,3.24-8.51,22.74,7.4,2.77L380,279.21,382,274l7.14-19.09,1.94-5.19,16-42.83Z"/><path class="cls-12" d="M464.22,269.51l5.19,1.94s0,7.57-7.88,28.61-12.83,26.77-12.83,26.77l-5.19-1.94Z"/><rect class="cls-12" x="424.53" y="190.39" width="7.45" height="92.34" transform="translate(56.67 554.82) rotate(-69.5)"/><path class="cls-13" d="M396.64,197.13,478,227.55a2.74,2.74,0,0,1,1.61,3.53l-1,2.65a2.74,2.74,0,0,1-3.53,1.61l-81.34-30.43a2.73,2.73,0,0,1-1.61-3.53l1-2.64A2.75,2.75,0,0,1,396.64,197.13Z"/><path class="cls-12" d="M387.76,184.47s11.91,10.32,24.39,15l26.3,9.84,26.31,9.84c12.75,4.77,28.22,4.7,28.22,4.7a2,2,0,0,1,1.27,2.77l-1.1,2.94a2.33,2.33,0,0,1-2.78,1.26,75.43,75.43,0,0,1-28.23-4.69l-26.3-9.84-26.3-9.84a71.81,71.81,0,0,1-24.38-15,2.34,2.34,0,0,1-1.27-2.78l1.1-2.93A2,2,0,0,1,387.76,184.47Z"/><path class="cls-12" d="M379.49,237.82l-5.19-1.95s-4.95,5.73-12.82,26.77-7.9,28.62-7.9,28.62l5.2,1.94Z"/><rect class="cls-14" x="444.02" y="286.39" width="71.56" height="29.41" transform="translate(-36.88 533.27) rotate(-56.31)"/><path class="cls-15" d="M520.48,240.07c-6.46,4.55-13.28,1.17-19.76.91-9.31-.37-17.3,14.09-13.31,22.19l12.24,8.16,12.23,8.15c9,.58,19.29-12.36,15.36-20.81C524.51,252.79,518.77,247.79,520.48,240.07Z"/><path class="cls-16" d="M486.76,257.32l27.66,18.44a2,2,0,0,1,.56,2.79l-2.44,3.66a2,2,0,0,1-2.79.56l-27.67-18.44a2,2,0,0,1-.55-2.79l2.44-3.67A2,2,0,0,1,486.76,257.32Z"/><path class="cls-16" d="M493.44,279.38a7.56,7.56,0,0,0-10.51,2.1l-6.78,10.17,12.61,8.41,6.78-10.17A7.56,7.56,0,0,0,493.44,279.38Z"/><rect class="cls-14" x="538.96" y="349.69" width="71.56" height="29.41" transform="matrix(0.55, -0.83, 0.83, 0.55, -47.25, 640.5)"/><path class="cls-15" d="M615.42,303.37c-1.71,7.71,4,12.7,6.76,18.59,3.93,8.45-6.34,21.39-15.36,20.82l-24.47-16.32c-4-8.1,4-22.55,13.31-22.18C602.14,304.54,609,307.92,615.42,303.37Z"/><path class="cls-16" d="M612.48,341.13l-27.67-18.44a2,2,0,0,0-2.78.55l-2.45,3.67a2,2,0,0,0,.56,2.79l27.66,18.44a2,2,0,0,0,2.79-.56l2.45-3.67A2,2,0,0,0,612.48,341.13Z"/><path class="cls-16" d="M589.54,343.45a7.55,7.55,0,0,1,2.1,10.51l-6.77,10.17-12.62-8.41L579,345.55A7.56,7.56,0,0,1,589.54,343.45Z"/><rect class="cls-17" x="486.14" y="277.3" width="96.07" height="90.18" transform="translate(-30.37 588.02) rotate(-56.31)"/><path class="cls-15" d="M563.69,206.73c-21.79-.34-39.31,32.26-29.43,51.15L564,277.69l29.72,19.81c11.75,1,24.16-7.32,31.42-18.36-5.05-8.09-9.4-15.54-12.28-22.1-5.4-12.32-5.35-30-5.42-48.73-13.9,6.21-28.69-.64-42.68-1.54Z"/><path class="cls-16" d="M528.49,249.44l75.2,50.14a2.73,2.73,0,0,1,.77,3.8l-3.92,5.87a2.73,2.73,0,0,1-3.8.77l-75.21-50.14a2.75,2.75,0,0,1-.76-3.81l3.92-5.87A2.74,2.74,0,0,1,528.49,249.44Z"/><path class="cls-18" d="M173.11,262.56l62.77,43L136.3,367,126,291.62Zm0-1.29a.56.56,0,0,0-.31.09l-47.73,29.46a.58.58,0,0,0-.27.58L135.26,368a.59.59,0,0,0,.89.42l101.12-62.41a.59.59,0,0,0,0-1l-63.83-43.69A.64.64,0,0,0,173.13,261.27Z"/><path class="cls-18" d="M165.26,281.48l45.15,38.62-49.65,30.65-14.29-57.67Zm.06-1.32a.56.56,0,0,0-.31.09L145.48,292.3a.6.6,0,0,0-.26.65l14.59,58.87a.59.59,0,0,0,.88.36l51-31.5a.59.59,0,0,0,.07-.95L165.7,280.3A.66.66,0,0,0,165.32,280.16Z"/><path class="cls-18" d="M145.78,292.21a.59.59,0,0,0-.41.18L127.64,310a.59.59,0,0,0,.26,1l22.74,6.41-19.46,18.22a.58.58,0,0,0,.28,1L157.69,342a.59.59,0,0,0,.24-1.16l-25.11-5.12,19.39-18.16a.59.59,0,0,0-.25-1l-22.78-6.42,17-16.94A.59.59,0,0,0,145.78,292.21Z"/><path class="cls-18" d="M126.48,298.77a.58.58,0,0,0-.14,1.15l21.39,5.83-18.41,16.6a.59.59,0,0,0,.26,1l24,5.63-20.31,22.4a.6.6,0,0,0,0,.84.59.59,0,0,0,.84-.05l21-23.14a.58.58,0,0,0-.3-1L131,322.47l18.37-16.56a.59.59,0,0,0-.24-1l-22.43-6.11A.47.47,0,0,0,126.48,298.77Z"/><path class="cls-18" d="M189,272.22a.51.51,0,0,0-.17,0l-23.72,7.94a.59.59,0,0,0,.37,1.12l22.77-7.63-4.47,23.24a.59.59,0,0,0,.78.67l24.92-9.2-6.67,24.75a.59.59,0,0,0,.41.72.6.6,0,0,0,.73-.42l7-25.84a.59.59,0,0,0-.76-.71l-25,9.24,4.47-23.21A.59.59,0,0,0,189,272.22Z"/><path class="cls-18" d="M179.81,265.85a.59.59,0,0,0-.57.48l-4.58,22.79a.59.59,0,0,0,.79.66l23-9-5.7,23.84a.59.59,0,0,0,.74.7l30.08-8.39a.59.59,0,1,0-.31-1.13l-29.13,8.12,5.72-24a.59.59,0,0,0-.79-.69l-23.08,9,4.38-21.73A.59.59,0,0,0,179.81,265.85Z"/><polygon class="cls-19" points="125.4 291.32 126.5 299.36 145.79 292.8 165.32 280.75 179.82 266.44 173.13 261.86 125.4 291.32"/><rect class="cls-18" x="131.46" y="287.68" width="0.78" height="9.6" transform="translate(-28.04 14.34) rotate(-5.63)"/><rect class="cls-18" x="137.09" y="284.21" width="0.78" height="11.15" transform="translate(-24.26 12.81) rotate(-4.9)"/><polygon class="cls-18" points="167.47 265.22 167.06 265.88 175.17 271.01 175.59 270.35 167.47 265.22"/><rect class="cls-18" x="166" y="266.36" width="0.78" height="11.16" transform="translate(-152.41 271.51) rotate(-58.46)"/><polygon class="cls-18" points="143.88 280.1 143.11 280.24 145.4 292.87 146.18 292.73 143.88 280.1"/><rect class="cls-18" x="146.55" y="278.64" width="0.78" height="12.84" transform="translate(-47.58 30.09) rotate(-10.07)"/><polygon class="cls-18" points="155.28 272.72 154.81 273.35 165.08 281.06 165.55 280.44 155.28 272.72"/><rect class="cls-18" x="157.49" y="271.89" width="0.78" height="12.84" transform="translate(-159.38 236.71) rotate(-52.96)"/><rect class="cls-19" x="116.12" y="258.63" width="56.09" height="19.41" transform="translate(-119.45 115.71) rotate(-31.68)"/><path class="cls-18" d="M129,220.72l30.88,24.2-43.7,27-7.79-38.45Zm0-1.09a.48.48,0,0,0-.24.07l-21.2,13.09a.49.49,0,0,0-.22.51l8,39.48a.48.48,0,0,0,.73.32L161,245.38a.49.49,0,0,0,0-.8l-31.7-24.84A.46.46,0,0,0,129,219.63Z"/><path class="cls-18" d="M126.08,230.05l22.48,21.26L127,264.62,118.05,235Zm0-1.11a.49.49,0,0,0-.23.08l-8.67,5.35a.5.5,0,0,0-.22.56l9.23,30.59a.49.49,0,0,0,.73.27l22.66-14a.5.5,0,0,0,.07-.78l-23.21-21.95A.51.51,0,0,0,126.12,228.94Z"/><path class="cls-18" d="M117.44,234.29a.54.54,0,0,0-.33.16l-7.6,8.28a.49.49,0,0,0,.18.79l10.71,4.1-8.19,8.3a.49.49,0,0,0,.21.81l12.51,3.79a.49.49,0,1,0,.29-.94L113.48,256l8.15-8.25a.5.5,0,0,0-.18-.81l-10.73-4.11,7.11-7.74A.49.49,0,0,0,117.44,234.29Z"/><path class="cls-18" d="M108.67,236.85a.5.5,0,0,0-.15,1l10,3.74-7.75,7.51a.49.49,0,0,0,.18.82l11.27,3.77L113.8,264a.49.49,0,1,0,.76.62l8.91-10.94a.49.49,0,0,0-.23-.78l-11.17-3.74,7.73-7.48a.5.5,0,0,0-.17-.81l-10.77-4A.63.63,0,0,0,108.67,236.85Z"/><path class="cls-18" d="M136.94,225.85l-.12,0L126,229a.5.5,0,0,0-.37.62.49.49,0,0,0,.64.32L136.39,227l-1.13,11.44a.49.49,0,0,0,.64.52l11-3.59-2.09,12.09a.49.49,0,0,0,1,.17L148,234.75a.49.49,0,0,0-.63-.55l-11.09,3.61,1.13-11.42A.49.49,0,0,0,136.94,225.85Z"/><path class="cls-18" d="M132.37,222.23a.5.5,0,0,0-.49.45l-1.23,11.42a.49.49,0,0,0,.65.52l10.15-3.56-1.66,11.67a.49.49,0,0,0,.59.55l13.77-3.06a.49.49,0,1,0-.21-1l-13.08,2.91,1.68-11.77a.49.49,0,0,0-.64-.53l-10.19,3.57,1.15-10.66A.5.5,0,0,0,132.37,222.23Z"/><polygon class="cls-19" points="107.85 233.21 108.69 237.35 117.47 234.78 126.14 229.43 132.37 222.73 129.05 220.12 107.85 233.21"/><polygon class="cls-18" points="110.8 231.55 110.22 231.65 111.05 236.56 111.63 236.46 110.8 231.55"/><rect class="cls-18" x="113.16" y="230.03" width="0.59" height="5.77" transform="matrix(0.99, -0.16, 0.16, 0.99, -35.98, 21.27)"/><polygon class="cls-18" points="126.62 221.53 126.27 222 130.29 224.95 130.63 224.47 126.62 221.53"/><rect class="cls-18" x="126" y="222.1" width="0.59" height="5.77" transform="translate(-130.21 197.15) rotate(-54.5)"/><rect class="cls-18" x="116.39" y="228.16" width="0.59" height="6.72" transform="translate(-51.47 34.18) rotate(-13.69)"/><rect class="cls-18" x="117.41" y="227.53" width="0.59" height="6.72" transform="translate(-51.29 34.41) rotate(-13.69)"/><polygon class="cls-18" points="121.21 224.86 120.83 225.31 125.96 229.66 126.33 229.21 121.21 224.86"/><rect class="cls-18" x="122.27" y="224.53" width="0.59" height="6.72" transform="translate(-130.44 173.63) rotate(-49.62)"/><path class="cls-18" d="M87.38,173.84l32.59,44-10.12,6.25-24.7-48.83Zm.08-.92a.48.48,0,0,0-.18.06l-2.85,1.76a.39.39,0,0,0-.14.51l25,49.54a.39.39,0,0,0,.55.16l10.86-6.71a.39.39,0,0,0,.11-.56L87.8,173.08A.39.39,0,0,0,87.46,172.92Z"/><path class="cls-18" d="M90.06,176.48a.39.39,0,0,0-.39.31L88.16,183a.39.39,0,0,0,.24.46l8.14,3-1.81,9.15a.39.39,0,0,0,.32.46l9.78,1.74L101.09,208a.38.38,0,0,0,.3.52l13,2.35-5.08,13.63a.39.39,0,1,0,.73.28l5.25-14.07a.41.41,0,0,0-.3-.53l-13-2.35,3.75-10.12a.38.38,0,0,0-.3-.52l-9.85-1.75,1.79-9.09a.39.39,0,0,0-.25-.44l-8.12-3L90.43,177A.39.39,0,0,0,90.06,176.48Z"/><path class="cls-18" d="M86.64,178.57a.39.39,0,0,0,0,.78l5.9,1.36-.94,8.61a.39.39,0,0,0,.29.42l8.92,2.47-2.85,9.6a.39.39,0,0,0,.33.5L109,203.49l-3.74,12.69a.4.4,0,0,0,.34.5l14.93,1.62A.39.39,0,0,0,121,218a.4.4,0,0,0-.37-.44L106.12,216l3.73-12.68a.39.39,0,0,0-.33-.5l-10.73-1.19,2.84-9.53a.4.4,0,0,0-.27-.49l-9-2.49.94-8.62A.4.4,0,0,0,93,180l-6.25-1.44Z"/><rect class="cls-19" x="105.52" y="219.49" width="19.89" height="4.66" transform="translate(-99.29 93.69) rotate(-31.68)"/><rect class="cls-20" x="102.7" y="222.61" width="29.79" height="5.34" transform="matrix(0.85, -0.53, 0.53, 0.85, -100.81, 95.36)"/><rect class="cls-19" x="82.2" y="172.48" width="8.03" height="3.92" transform="translate(-78.79 71.31) rotate(-31.69)"/><rect class="cls-18" x="124.69" y="270.41" width="0.78" height="19.41" transform="translate(-128.54 107.52) rotate(-31.7)"/><polygon class="cls-18" points="125.08 268.7 124.42 269.12 134.61 285.63 135.28 285.22 125.08 268.7"/><rect class="cls-18" x="134.23" y="264.52" width="0.79" height="19.41" transform="translate(-124.31 112.12) rotate(-31.8)"/><rect class="cls-18" x="139" y="261.57" width="0.78" height="19.41" transform="translate(-121.58 113.44) rotate(-31.64)"/><rect class="cls-18" x="143.77" y="258.63" width="0.78" height="19.41" transform="translate(-119.06 115.04) rotate(-31.54)"/><polygon class="cls-18" points="144.18 256.92 143.51 257.33 153.7 273.85 154.37 273.44 144.18 256.92"/><polygon class="cls-18" points="148.95 253.97 148.28 254.39 158.47 270.9 159.14 270.49 148.95 253.97"/><polygon class="cls-18" points="153.72 251.03 153.06 251.44 163.25 267.96 163.92 267.54 153.72 251.03"/><polygon class="cls-18" points="158.5 248.08 157.83 248.49 168.02 265.01 168.69 264.6 158.5 248.08"/><rect class="cls-19" x="79.08" y="158.37" width="2.56" height="13.17" transform="translate(-74.69 66.83) rotate(-31.7)"/><rect class="cls-20" x="78.55" y="169.12" width="11.36" height="4.19" transform="translate(-77.4 69.79) rotate(-31.69)"/><rect class="cls-20" x="119.9" y="274.97" width="58.59" height="3.01" transform="translate(-122.98 119.57) rotate(-31.68)"/><rect class="cls-20" x="108.64" y="256.89" width="59.81" height="4.66" transform="translate(-115.5 111.41) rotate(-31.69)"/><path class="cls-21" d="M331.22,290.09A330.53,330.53,0,0,0,32,481.19a57.48,57.48,0,0,0,27.2,7.19h536.4c12.24,0,23.38-4.12,33.11-11.15A330.53,330.53,0,0,0,331.22,290.09Z"/><path class="cls-22" d="M254,299.62A330.42,330.42,0,0,0,118.85,367.8a4.87,4.87,0,0,0,1.24,1.8c1.38,1.22,3.64,1,5.48.76a24.2,24.2,0,0,0,10-3.75c1.55-1,2.29-3,3.95-3.8,2.1-.95,4.6-.29,6.88-.61,2.43-.34,4.77-1.59,7.22-1.4s4.34,2.32,6.72,2.42c2.22.09,4.25-1.39,6.45-1.73s4.2.16,6.23-.28c3.92-.84,7.19-3.94,11.16-4.44a14.8,14.8,0,0,1,6.45.84c3.5,1.19,6,4.49,9.57,5.61a51.85,51.85,0,0,0,24.12,2c4.74-.82,8.94-4.48,6.37-9.29-1.67-3.13-7-3-8.73-6.1a8.4,8.4,0,0,1-.48-6.93c1-2.63,5.35-3.06,6.23-5.75.54-1.62-1-3.32-1-5s.87-3.27,1-4.95-.77-3.48-.35-5.15a9.37,9.37,0,0,1,2.55-4c1.45-1.46,4.1-1.53,5.64-2.89,1.89-1.67,2.26-4.94,4.41-6.27,2.43-1.51,5.84-.66,8.33-2.06a11.26,11.26,0,0,0,5.05-5A10.3,10.3,0,0,0,254,299.62Z"/><path class="cls-22" d="M113.57,412.37c4.1-2.32,7.33-6.26,11.79-7.77s9.16-.45,13.72-1c3.21-.37,6.34-1.4,9.57-1.52,3.84-.15,7.65,1,11.5,1a64.54,64.54,0,0,0,14.14-1.53c5.48-1.3,10.32-4.67,15.81-6,5.33-1.25,11-.5,16.36-1.66,4.24-.92,8.14-3,12.33-4.16,4.38-1.19,9.46-.38,13.31-2.78,3.13-1.95,4.29-6,6.79-8.73,3.14-3.38,7.53-5.57,10.26-9.29,3.39-4.59,3.28-11.38,7.21-15.52,3.74-3.95,9.71-4.91,14.42-7.63,3.78-2.17,8.08-3.78,11.09-6.93,3.38-3.53.06-5.75-3.05-6.38-3.8-.76-7.9.26-11.51,1.67-3,1.16-5.15,3.79-7.9,5.41-3.65,2.14-8.27,2.79-11.37,5.68-7.13,6.66-7.4,18.91-14.83,25.23C228,375,220.39,375.57,213.94,378c-4.6,1.73-9.06,4-13.86,5-4.58,1-9.45,0-14,1.1-4.82,1.16-8.88,4.7-13.73,5.69-4.21.86-8.64-.5-12.89.14-3.24.48-6.18,2.37-9.43,2.77-2.29.28-4.63-.48-6.93-.28-2.78.25-5.44,1.25-8.18,1.8-4.7,1-9.87.46-14.14,2.64-4.66,2.38-9.25,6-11.37,10.81S109.61,414.61,113.57,412.37Z"/><path class="cls-22" d="M429.1,304.93a15.4,15.4,0,0,0,1.4,5.64c.95,2.34,3.73,3.58,4.81,5.88.93,2,0,4.65,1.27,6.47,2.16,3.18,7.39,3.19,9.71,6.27,2.09,2.78.87,7.27,3,10,1.91,2.4,5.92,2.32,7.94,4.61,1.77,2,2.53,4.76,3.14,7.35s-.59,5.39.49,7.74a6.9,6.9,0,0,0,3.53,3.43,12.68,12.68,0,0,0,10,0c3.09-1.53,3.16-6.74,6.27-8.23,2-1,4.53.5,6.77.19,1.73-.23,3.26-1.41,5-1.56,2.29-.21,4.61,1.41,6.86.88,2.79-.66,4.38-4.06,7.15-4.8s6.08,1.24,9,.58a25,25,0,0,0,3.25-.87A330.38,330.38,0,0,0,429.1,304.93Z"/><path class="cls-22" d="M516.89,365.12a27.12,27.12,0,0,0-12.52,3.44c-6.82,3.52-11.63,11.49-17.88,15.94-4.11,2.92-8.66,5.6-13.59,6.65-12,2.57-23-1.51-35.21-1-3,.13-6,.77-9,1.1-6.65.74-13.47,3.53-20,1.94-3.06-.74-5.09-3.73-7.91-5.13-3.21-1.58-7.2-1.53-10.12-3.6-3.48-2.47-5-6.6-8.33-9.29a28.86,28.86,0,0,0-6.5-4.16c-2.61-1.13-10.37,1.19-7.5,6.68,1.69,3.24,2.16,5.24,4.17,8.3,1.77,2.67,5,4.09,6.93,6.65,2.88,3.84,3,8.52,6.66,11.58,5.87,4.87,14.4,6.42,21.9,7.83a113.61,113.61,0,0,0,22.18,1.66c8.55-.1,17-3.09,25.51-2.49,10.62.74,20.44,8.39,31.05,7.48,7.92-.67,15-5.55,21.91-9.43,4.6-2.56,9.88-4.38,15.8-2.77,5.11,1.4,9.75,4.45,15,5.27,3.57.56,7.38-1.36,10.82-.28,2.52.8,4,3.58,6.38,4.72s5.29.58,7.48,1.94c2.51,1.55,3.25,5.22,5.82,6.65,5,2.78,11.2,2.91,16.92,2.77,3.65-.08,8.19.43,11.51-.91a330.23,330.23,0,0,0-51.65-56.47,15.18,15.18,0,0,1-3.67.27c-7.24-.66-14-3.82-21.21-5A28.11,28.11,0,0,0,516.89,365.12Z"/><path class="cls-22" d="M54.83,461.77c2.08-4.28,7.8-7.34,12.44-8.37,5.41-1.2,11.25,1,16.64-.28,5.22-1.28,10.9-3.14,14.41-7.21,3.78-4.37,11-3.66,17.19-4.15,7.89-.63,12.66-7.24,16.64-10.82,2.3-2.06,5.88-2.49,7.49.83,1.41,2.94,2.75,6.37,5.54,8.05,2.15,1.28,5.23-.28,7.49.83,3.4,1.67,4.37,6.8,7.9,8.18,2.8,1.09,6.14-1.47,9-.56s4.17,4.81,7.07,5.69c3.33,1,7-1.93,10.4-1,3.68,1,8.22,3.22,9.15,6.93.8,3.21-4.16,9-4.16,9L82.8,471.7,56.18,467S53.66,464.17,54.83,461.77Z"/><rect class="cls-23" x="540.29" y="266.45" width="16.94" height="194.48"/><polygon class="cls-24" points="512.78 271.68 491.64 288.56 512.78 305.43 512.78 297.03 591.94 297.03 591.94 280.09 512.78 280.09 512.78 271.68"/><polygon class="cls-24" points="592.19 307.56 592.19 315.97 513.03 315.97 513.03 332.9 592.19 332.9 592.19 341.31 613.34 324.44 592.19 307.56"/><path class="cls-25" d="M551.08,288.56a2.32,2.32,0,1,1-2.32-2.32A2.32,2.32,0,0,1,551.08,288.56Z"/><path class="cls-25" d="M551.08,324.44a2.32,2.32,0,1,1-2.32-2.33A2.32,2.32,0,0,1,551.08,324.44Z"/><path class="cls-26" d="M4.73,457.56c14.41,18.36,33.74,30.82,54.45,30.82h536.4c21.22,0,39.16-12.4,52.14-30.82Z"/><path class="cls-27" d="M374.92,443.8s3.4,5.89,8.15,9.11a6,6,0,0,1,1.8,8.32A143.17,143.17,0,0,1,373,475.3a10.47,10.47,0,0,1-6.24,3.05c-7,.75-12,.82-24-.55-2.84-.32-3.78-7,2.08-8.32s10.53-1.3,14.8-5.31a11.51,11.51,0,0,0,3.33-6.37c.55-3.22-1.39-9.71-1.39-9.71Z"/><path class="cls-27" d="M296.6,461.35a35.13,35.13,0,0,0,2.56,13.52c1.6,3.59-.14,8.53-2.41,9.79-6.24,3.45-16.14,3.39-25.42,3.3-7.09-.07-13.27.42-25.26-.95-2.84-.32-3.78-7,2.09-8.32,5.71-1.25,13-3.32,18.72-4.61,5.08-1.15,6.94-3.23,8.23-6.38a78.72,78.72,0,0,0,2.63-9.51Z"/><path class="cls-28" d="M319.15,280.57s-13.73,34.67-19.41,50.78C298.46,335,299,341,299,341s-7.1,17.15-8.62,24.12c-7.12,32.58-15.3,96.65-15.3,96.65,7.56,4.25,15.49,4.36,23.61,2.35l18.86-81.93c10.34,19.61,22.64,49,43.81,71,6.76.58,11.9-.15,16.49-7.62,0,0-24.06-52.11-39.09-86.23A32.93,32.93,0,0,1,336.49,349s16.4-14.38,21.62-29.25c4.49-12.77,1.95-31.19,1.95-31.19Z"/><path class="cls-29" d="M319,296.77a.37.37,0,0,0-.36.23L298.6,340.79a.4.4,0,0,0,.18.54.4.4,0,0,0,.53-.21l20.07-43.79A.39.39,0,0,0,319,296.77Z"/><path class="cls-29" d="M336.47,348.62a.32.32,0,0,0-.21.08s-7.29,5.35-14.23,19c-2.32,4.57-4.91,14.31-4.91,14.31a.39.39,0,0,0,.76.2s2.63-9.78,4.85-14.15c6.88-13.56,14-18.76,14-18.76A.39.39,0,0,0,336.47,348.62Z"/><path class="cls-30" d="M323.66,244.3s-5.52,9.5-10,12.25c-7.16,4.4-15,5.53-15.39-8.23-.46-15.09,10.62-29,16.56-42.15,1.48-3.29,0-7.34,1.14-10.76a6.26,6.26,0,0,1,3.12-3.33s1.45-3.43,2.84-3.74a46.53,46.53,0,0,1,5.69-.76l5.75,12.68a13.75,13.75,0,0,1,3.26-.55c2.09,0,3.37,3.19,1.73,3.36-2.5.26-4.83,2-6.79,3.57-1.21,1-2.25,2.36-3.47,3.33a45.44,45.44,0,0,1-4.36,2.77c-3.5,6.16-5,13.09-6.73,21.42l4.78-6.87,5.13,9.08Z"/><path class="cls-31" d="M319.54,228.76s3-10.7,6.44-14.91c1.94-2.4,7.53-5.38,7.53-5.38l1.08,11.13-7.67,16.77Z"/><path class="cls-32" d="M352.85,190s3-3.58,5.06-4.71c1.48-.84,3.59-.31,4.92-1.39,1.81-1.46,2.1-4.15,3.26-6.17,1.79-3.13,5.52-5.61,5.68-9.21.07-1.55-1.89-2.63-2.08-4.16s1.52-3,1-4.44c-.63-1.64-3.35-1.57-4.3-3-1.18-1.86.2-4.79-1.17-6.52s-4.8-1.21-6.52-2.84c-1.31-1.24-1.3-3.44-2.42-4.85a8.19,8.19,0,0,0-9.15-2.77c-1.49.47-2.22,2.35-3.68,2.91s-3.12-.54-4.3.28-.86,3-1.87,4.16-2.85,1.24-3.88,2.35c-2,2.17-2.45,5.46-.14,7.76a11.49,11.49,0,0,0,3.61,1.74Z"/><path class="cls-33" d="M339.61,186l3.4,8.37a1.61,1.61,0,0,1-.68,2L325,206a1.18,1.18,0,0,1-1.72-.6l-3.4-8.37a1.61,1.61,0,0,1,.68-1.95l17.32-9.73A1.19,1.19,0,0,1,339.61,186Z"/><polygon class="cls-34" points="337.86 187.13 341.13 195.18 325.7 203.85 322.43 195.8 337.86 187.13"/><path class="cls-35" d="M317,233.86a.3.3,0,0,0-.29.24c-.92,4.73-1.92,9.17-3.14,11.06a.29.29,0,0,0,.08.4.3.3,0,0,0,.41-.08c1.37-2.11,2.3-6.53,3.23-11.27A.29.29,0,0,0,317,233.86Z"/><path class="cls-30" d="M319.09,192.08c4.31-1.11,6.65-.52,8.87-.35,2.4.19.82,3.59-1.46,3.71a11.13,11.13,0,0,0-7.55,3.4Z"/><path class="cls-36" d="M324.32,191.23a19,19,0,0,0-5.28.66l.1.38c4.28-1.1,6.57-.51,8.81-.34a1,1,0,0,1,.94.52,1.46,1.46,0,0,1-.08,1.09,2.89,2.89,0,0,1-2.32,1.71,11.34,11.34,0,0,0-7.69,3.47l.31.25a10.84,10.84,0,0,1,7.4-3.33,3.22,3.22,0,0,0,2.66-1.95,1.79,1.79,0,0,0,.08-1.39,1.41,1.41,0,0,0-1.27-.76C326.88,191.46,325.73,191.26,324.32,191.23Z"/><path class="cls-30" d="M338.08,189.17a40.21,40.21,0,0,1,.87,16.07l15.19-9.41c-1.67-4.71-1.87-11-2.16-17.26Z"/><path class="cls-35" d="M352,178.57l-13.75,11.14a34.76,34.76,0,0,1,1.12,7.69C348.7,191.79,350.3,183.25,352,178.57Z"/><path class="cls-30" d="M336.84,159.09s-7.93,5.39-10.38,19.94c-1.59,9.41,1.33,16.38,11.34,14.93,6.06-.87,9.21-4.24,12.31-10.44.39-.77.48,1.68,2.16,1.36,3.51-.66,6.64-7.17,3.61-9.79a2.28,2.28,0,0,0-3.66.46c-1.56-1.73-.07-4.53-1.8-8.18C348,162.19,336.84,159.09,336.84,159.09Z"/><path class="cls-35" d="M354.41,176.76a3,3,0,0,0-1.56.14.39.39,0,1,0,.23.75,2.2,2.2,0,0,1,1.15-.12.57.57,0,0,1,.45.33,2.7,2.7,0,0,1-.11,1.85,5.4,5.4,0,0,1-1.24,2,1.74,1.74,0,0,1-.69.43.53.53,0,0,1-.5-.09.39.39,0,0,0-.46.64,1.43,1.43,0,0,0,1.16.21,2.49,2.49,0,0,0,1-.62A5.82,5.82,0,0,0,355.3,180a3.12,3.12,0,0,0,.07-2.48A1.43,1.43,0,0,0,354.41,176.76Z"/><path class="cls-37" d="M332.09,168.05a8.09,8.09,0,0,0-2.12.22l.26,1.15a4.51,4.51,0,0,1,3.28.21l.58-1A4.65,4.65,0,0,0,332.09,168.05Z"/><path class="cls-38" d="M331.08,167.51c-.52-1.7-4-.85-5.33.31-1.53,1.3-3,4.81-2.26,6.66.59,1.39,3.53,1,4.54-.11C329.48,172.76,331.62,169.26,331.08,167.51Z"/><rect class="cls-37" x="347.46" y="167.42" width="1.18" height="10" transform="translate(35.3 402.76) rotate(-62.72)"/><path class="cls-38" d="M334.05,166.59c2.93-1.14,8.47.11,10.36,2.28,1.66,1.9.19,6-2.2,6.81s-6.09.89-8.53-.39S331.44,167.6,334.05,166.59Z"/><path class="cls-31" d="M353.6,191.37a74.62,74.62,0,0,0-18.25,11.11,16.63,16.63,0,0,0-.14,4.33s-5.6,5.4-6.69,7.8c-8.5,18.65-6.7,45.76-10.55,60.57-.53,2-2.09,4.41-1.76,6.47.47,3,2.59,4.6,5.19,6.08a55.28,55.28,0,0,0,34.15,6.18c2.73-.39,5.79-1.16,7.07-3.61,1.1-2.09-.74-4.71-.69-7.07.43-19.35,6.75-51.9-1-76.38-1.27-4-3.32-6.95-5.57-10.19A7.12,7.12,0,0,0,353.6,191.37Z"/><path class="cls-39" d="M342.77,218.67c1.84,11.27,12.45,34.65,12.45,34.65,7.42-3,14-9.56,18-13.82,0,0-5.34-20.3-12.72-34.05C354.87,195,340.43,204.35,342.77,218.67Z"/><path class="cls-30" d="M370.5,237.32s10.94,44.88,14.22,59c1.15,4.95,3.93,10,4.89,15,.67,3.51-3,10.77-3,10.77l-7.28-6.47-5.75.28a21.25,21.25,0,0,1-.7-7.05c.46-3.14,1.61-6.63.72-9.67-4.86-16.77-16.51-52.53-16.51-52.53Z"/><path class="cls-40" d="M440,473.54,407.1,383l-3.92,8.51L433,470.2C434.38,471.74,437.57,473,440,473.54Z"/><path class="cls-41" d="M407.1,383a19.11,19.11,0,0,1,7.74-7.44c6-2.93,15.87-5,22.65-4.32a18.8,18.8,0,0,1,13.72,9c7.44,13.08,25.35,55.2,28.43,74.51.6,3.77.06,9.21-3.33,11A106.94,106.94,0,0,1,456.2,474c-8.09,2.24-16.16-.46-16.16-.46Z"/><path class="cls-40" d="M460,468.15a9.39,9.39,0,1,1-2.75-6.63A9.35,9.35,0,0,1,460,468.15Z"/><path class="cls-42" d="M453.7,468.15a3.09,3.09,0,1,1-.9-2.19A3.09,3.09,0,0,1,453.7,468.15Z"/><path class="cls-42" d="M377.68,327.53a2,2,0,0,0-1.8,2.73l34,83.23a2,2,0,1,0,3.63-1.48l-34-83.23A2,2,0,0,0,377.68,327.53Z"/><path class="cls-42" d="M385.83,326.63a2,2,0,0,0-1.86,2.69l32.27,84.74a2,2,0,1,0,3.67-1.39l-32.28-84.75A2,2,0,0,0,385.83,326.63Z"/><path class="cls-41" d="M375.72,310.76a6.07,6.07,0,0,0-4.78,2.45,7.83,7.83,0,0,0-1.46,4.5,11.34,11.34,0,0,0,.86,3.9c1.78,4.77,5.36,13,5.36,13a3.1,3.1,0,0,0,1.72,1.71,3.12,3.12,0,0,0,4.11-1.78,3.11,3.11,0,0,0-.08-2.43s-3.6-8.31-5.23-12.69a6.42,6.42,0,0,1-.47-1.79,1.11,1.11,0,0,1,.2-.51.88.88,0,0,1,.39-.12,4.14,4.14,0,0,1,1.45.18c-.17-.08,1.36,1.55,1.62,2.16,1.55,3.78,4.53,12.48,4.53,12.48a3.09,3.09,0,0,0,1.58,1.85,3,3,0,0,0,2.42.17,3.13,3.13,0,0,0,1.94-4S387,321.24,385.21,317a9.34,9.34,0,0,0-4.7-5.42A8.76,8.76,0,0,0,375.72,310.76Z"/><path class="cls-30" d="M376.11,307.66s.28,4.86,0,11.19c-.08,1.91,4.16,4.06,4.59,1.76.84-4.48,2.68-11.07,2.68-11.07Z"/><path class="cls-31" d="M343.65,218.52c1.84,11.27,12.65,31.86,12.65,31.86,7.42-3,13-6.62,16.88-10.88,0,0-5.34-20.3-12.72-34.05C354.87,195,341.31,204.21,343.65,218.52Z"/><path class="cls-43" d="M198.34,372.67a.6.6,0,0,0-.55.43c-10.83,37-21.09,74.31-23.62,114.33a.58.58,0,0,0,.55.63.6.6,0,0,0,.62-.56c2.53-39.86,12.75-77.05,23.58-114.07A.59.59,0,0,0,198.34,372.67Z"/><path class="cls-44" d="M197.45,377.24s15.52-15.86,18.76-24.89c3.72-10.38-6.69-16.66-13.75-4.6C195.87,359,197.45,377.24,197.45,377.24Z"/><path class="cls-43" d="M209.09,350.62a.42.42,0,0,0-.32.19c-5,7.79-7.59,15.85-11.15,23.74a.4.4,0,0,0,.19.52.39.39,0,0,0,.52-.2c3.59-7.94,6.15-15.95,11.1-23.64A.4.4,0,0,0,209.09,350.62Z"/><path class="cls-44" d="M188.63,407.81s2-22.59-1.3-31.83c-3.79-10.61-16.11-8.83-13.87,5.27C175.55,394.43,188.63,407.81,188.63,407.81Z"/><path class="cls-43" d="M180.82,379.14a.39.39,0,0,0-.37.45c1.08,9.4,4.28,17.44,6.57,26a.39.39,0,1,0,.76-.2c-2.32-8.6-5.49-16.59-6.56-25.87A.39.39,0,0,0,180.82,379.14Z"/><path class="cls-44" d="M188.61,407.81S201.06,392,208.8,388.1c8.89-4.54,15.75,4.09,5.73,11.81C205.18,407.13,188.61,407.81,188.61,407.81Z"/><path class="cls-43" d="M210.81,393.94a.34.34,0,0,0-.24.09c-6.33,5.33-13.23,8.55-19.95,12.68a.39.39,0,0,0,.41.67c6.67-4.1,13.62-7.35,20-12.75A.39.39,0,0,0,210.81,393.94Z"/><path class="cls-44" d="M181.49,437.46s-2.2-22.57-7.14-31c-5.68-9.73-17.47-5.71-12.66,7.74C166.17,426.72,181.49,437.46,181.49,437.46Z"/><path class="cls-43" d="M168.61,410.72a.39.39,0,0,0-.36.51c2.8,9,7.42,16.36,11.25,24.34a.39.39,0,1,0,.71-.34c-3.86-8-8.45-15.3-11.22-24.23A.39.39,0,0,0,168.61,410.72Z"/><path class="cls-44" d="M181.49,437.46s12.45-15.76,20.19-19.71c8.89-4.53,15.75,4.1,5.73,11.82C198.06,436.79,181.49,437.46,181.49,437.46Z"/><path class="cls-43" d="M203.69,423.6a.36.36,0,0,0-.24.09c-6.33,5.33-13.23,8.55-19.95,12.68a.4.4,0,0,0-.13.54.39.39,0,0,0,.54.13c6.67-4.11,13.62-7.34,20-12.75A.39.39,0,0,0,203.69,423.6Z"/><path class="cls-44" d="M177,464.46s-6-21.87-12.3-29.39c-7.25-8.63-18.18-2.66-11.17,9.78C160.12,456.47,177,464.46,177,464.46Z"/><path class="cls-43" d="M159.85,440.28a.39.39,0,0,0-.31.57c4.29,8.44,10.09,14.86,15.22,22.07a.39.39,0,1,0,.64-.45c-5.17-7.26-10.92-13.65-15.16-22A.38.38,0,0,0,159.85,440.28Z"/><path class="cls-44" d="M177,464.46s12.45-15.77,20.19-19.71c8.89-4.54,15.75,4.09,5.73,11.82C193.61,463.78,177,464.46,177,464.46Z"/><path class="cls-43" d="M199.24,450.59a.36.36,0,0,0-.24.09c-6.32,5.33-13.23,8.55-19.95,12.68a.4.4,0,0,0-.13.54.39.39,0,0,0,.54.13c6.67-4.1,13.62-7.34,20-12.75A.39.39,0,0,0,199.24,450.59Z"/><path class="cls-44" d="M152.42,461.72c-5.11.17-8.36,5.92-2.92,14.09,3.5,5.26,9.26,9.53,14.35,12.57h8.5c-2.71-6.79-7.75-18.33-12.43-23.14C157.46,462.72,154.75,461.64,152.42,461.72Z"/><path class="cls-43" d="M155.47,470.79a.39.39,0,0,0-.31.6c3.83,6.32,8.49,11.36,13,16.5a.39.39,0,0,0,.59-.52c-4.55-5.15-9.17-10.15-12.95-16.39A.38.38,0,0,0,155.47,470.79Z"/><path class="cls-44" d="M199.23,472.67a10.62,10.62,0,0,0-4.69,1.26c-4.82,2.45-11.46,9.49-15.79,14.45H196a25.56,25.56,0,0,0,4.26-2.64C208.42,479.47,205.42,472.59,199.23,472.67Z"/><path class="cls-43" d="M196.55,479.77a.36.36,0,0,0-.24.09,76.32,76.32,0,0,1-11.06,7.52.39.39,0,0,0-.16.54.41.41,0,0,0,.56.13,77.3,77.3,0,0,0,11.17-7.59A.39.39,0,0,0,196.55,479.77Z"/><path class="cls-39" d="M355.38,196.36h-.05c-7,1.3-13.78,6.07-20.28,10.19a.29.29,0,0,0-.09.41.3.3,0,0,0,.4.09c6.52-4.13,13.3-8.85,20.08-10.11A.3.3,0,0,0,355.38,196.36Z"/><path class="cls-39" d="M333.3,208.41a.3.3,0,0,0-.2.1c-.87.9-1.9,2-2.81,3.08a14.93,14.93,0,0,0-2,2.9,74.86,74.86,0,0,0-5.2,17.91.3.3,0,0,0,.58.11,74.48,74.48,0,0,1,5.16-17.78,14.39,14.39,0,0,1,1.95-2.76c.89-1.06,1.92-2.16,2.78-3.05A.3.3,0,0,0,333.3,208.41Z"/><path class="cls-25" d="M518.6,283a.3.3,0,0,0,0,.59h20.88a.3.3,0,0,0,.31-.3.3.3,0,0,0-.31-.29Z"/><path class="cls-25" d="M531.74,285.47a.3.3,0,1,0,0,.59h11.57a.3.3,0,1,0,0-.59Z"/><path class="cls-25" d="M523.4,292a.3.3,0,0,0,0,.59h22.45a.3.3,0,0,0,.31-.3.3.3,0,0,0-.31-.29Z"/><path class="cls-25" d="M560,283a.3.3,0,0,0,0,.59h24a.3.3,0,0,0,.31-.3A.3.3,0,0,0,584,283Z"/><path class="cls-25" d="M555.29,288.71a.29.29,0,0,0-.29.29.3.3,0,0,0,.29.3h12.16a.3.3,0,0,0,.29-.3.29.29,0,0,0-.29-.29Z"/><path class="cls-25" d="M565.26,293.71a.29.29,0,1,0,0,.58h20.88a.29.29,0,1,0,0-.58H565.26Z"/><path class="cls-25" d="M506.66,281.84a.31.31,0,0,0-.18.07l-6.76,5.59a.29.29,0,0,0,.37.45l6.77-5.58A.3.3,0,0,0,506.66,281.84Z"/><path class="cls-25" d="M497.87,288.57a.29.29,0,0,0-.15.52l10.47,8.51a.3.3,0,0,0,.42-.05.3.3,0,0,0,0-.41l-10.48-8.5A.26.26,0,0,0,497.87,288.57Z"/><path class="cls-25" d="M567.3,318.61a.3.3,0,1,0,0,.59h20.88a.3.3,0,0,0,0-.59Z"/><path class="cls-25" d="M557.89,322.43a.3.3,0,1,0,0,.59h11.56a.3.3,0,1,0,0-.59Z"/><path class="cls-25" d="M563.28,327.43a.3.3,0,1,0,0,.59h22.45a.3.3,0,0,0,0-.59Z"/><path class="cls-25" d="M522.79,318.61a.3.3,0,0,0,0,.59h24a.3.3,0,0,0,0-.59Z"/><path class="cls-25" d="M517,324.3a.29.29,0,1,0,0,.58h12.16a.29.29,0,1,0,0-.58Z"/><path class="cls-25" d="M520.61,329.29a.3.3,0,0,0,0,.59h20.88a.29.29,0,0,0,.3-.29.3.3,0,0,0-.3-.3H520.61Z"/><path class="cls-25" d="M600.13,317.43a.29.29,0,0,0-.18.52l6.76,5.59a.3.3,0,0,0,.44,0,.3.3,0,0,0-.06-.43l-6.77-5.59A.26.26,0,0,0,600.13,317.43Z"/><path class="cls-25" d="M608.9,324.16a.24.24,0,0,0-.18.07l-10.48,8.5a.29.29,0,1,0,.37.45l10.48-8.5A.29.29,0,0,0,608.9,324.16Z"/><path class="cls-45" d="M554.6,339.87a.3.3,0,0,0-.29.3V358.4a.3.3,0,1,0,.59,0V340.17A.29.29,0,0,0,554.6,339.87Z"/><path class="cls-45" d="M543.82,350.26a.3.3,0,0,0-.29.3v9.8a.29.29,0,1,0,.58,0v-9.8A.29.29,0,0,0,543.82,350.26Z"/><path class="cls-45" d="M550.48,368.1a.31.31,0,0,0-.29.3v29.8a.3.3,0,0,0,.3.31.3.3,0,0,0,.29-.31V368.4A.3.3,0,0,0,550.48,368.1Z"/><path class="cls-45" d="M545.75,407.9a.3.3,0,0,0-.26.3v9.41a.3.3,0,0,0,.29.31.3.3,0,0,0,.3-.31V408.2A.3.3,0,0,0,545.75,407.9Z"/><path class="cls-45" d="M553.62,417.31a.3.3,0,0,0-.29.3v29.6a.3.3,0,1,0,.59,0v-29.6A.29.29,0,0,0,553.62,417.31Z"/><path class="cls-45" d="M545.16,433.58a.3.3,0,0,0-.26.3v9.41a.3.3,0,1,0,.59,0v-9.41A.29.29,0,0,0,545.16,433.58Z"/></g></g></svg>