<svg xmlns="http://www.w3.org/2000/svg" xmlns:xlink="http://www.w3.org/1999/xlink" viewBox="0 0 680.57 625.26"><defs><style>.cls-1{fill:url(#Degradado_sin_nombre_34);}.cls-2{fill:#cd9950;}.cls-3{fill:#edb961;}.cls-4{fill:#6894fb;}.cls-5{opacity:0.54;}.cls-6{fill:#3256bf;}.cls-7{fill:#e59491;}.cls-8{opacity:0.22;}.cls-9{fill:#221a5a;}.cls-10{fill:#2f53dc;}.cls-11{fill:#2b4994;}.cls-12{fill:#4067fa;}.cls-13{fill:#d08383;}.cls-14{opacity:0.23;}.cls-15{fill:#fff;}.cls-16{fill:#2e52ad;}.cls-17{fill:#161345;}.cls-18{fill:#221a5c;}.cls-19{fill:#1f1b62;}.cls-20{fill:#e5a93e;}.cls-21{fill:#678dfb;}.cls-22{opacity:0.1;}.cls-23{fill:#f3f3f8;}.cls-24{fill:url(#Degradado_sin_nombre_6);}.cls-25{opacity:0.16;}.cls-26{opacity:0.3;}.cls-27{fill:url(#Degradado_sin_nombre_6-2);}.cls-28{fill:#d09534;}.cls-29{fill:#87c1cd;}.cls-30{fill:#568b9e;}.cls-31{fill:#e9effd;fill-rule:evenodd;}</style><linearGradient id="Degradado_sin_nombre_34" y1="289.01" x2="680.57" y2="289.01" gradientUnits="userSpaceOnUse"><stop offset="0" stop-color="#62dd8e"/><stop offset="0.48" stop-color="#5dd08c"/><stop offset="1" stop-color="#56bd88"/></linearGradient><linearGradient id="Degradado_sin_nombre_6" x1="273.65" y1="489.15" x2="318.66" y2="489.15" gradientUnits="userSpaceOnUse"><stop offset="0" stop-color="#ff9657"/><stop offset="1" stop-color="#ffb55b"/></linearGradient><linearGradient id="Degradado_sin_nombre_6-2" x1="112" y1="320.26" x2="280.31" y2="320.26" xlink:href="#Degradado_sin_nombre_6"/></defs><g id="Capa_2" data-name="Capa 2"><g id="Capa_1-2" data-name="Capa 1"><path class="cls-1" d="M559.58,578H121A121,121,0,0,1,0,457V154.56a121,121,0,0,1,121-121H468.8L496.31,0l27.52,33.57h35.75a121,121,0,0,1,121,121V457A121,121,0,0,1,559.58,578Z"/><path class="cls-2" d="M565.8,500.74A32.82,32.82,0,1,1,533,467.92,32.81,32.81,0,0,1,565.8,500.74Z"/><path class="cls-3" d="M557.68,500.74a24.68,24.68,0,1,1-7.23-17.47A24.7,24.7,0,0,1,557.68,500.74Z"/><rect class="cls-3" x="497.76" y="588.3" width="65.55" height="9.12" rx="2.87"/><rect class="cls-3" x="494.24" y="579.17" width="65.55" height="9.12" rx="2.87"/><rect class="cls-3" x="494.24" y="570.05" width="65.55" height="9.12" rx="2.87"/><rect class="cls-3" x="498.93" y="560.93" width="65.55" height="9.12" rx="2.87"/><rect class="cls-3" x="496.06" y="551.8" width="65.55" height="9.12" rx="2.87"/><rect class="cls-3" x="497.77" y="542.68" width="65.55" height="9.12" rx="2.87"/><rect class="cls-3" x="492.79" y="533.56" width="65.55" height="9.12" rx="2.87"/><path class="cls-2" d="M558.34,539.61a2.91,2.91,0,0,1-2.68,1.74h-61a2.92,2.92,0,0,1-1.7-.54,2.85,2.85,0,0,0,2.69,1.87h59.82a2.86,2.86,0,0,0,2.86-2.86Z"/><path class="cls-2" d="M563.32,548.73a2.92,2.92,0,0,1-2.68,1.75h-61a2.91,2.91,0,0,1-1.69-.54,2.85,2.85,0,0,0,2.68,1.86h59.82a2.86,2.86,0,0,0,2.87-2.86Z"/><path class="cls-2" d="M561.62,557.85a2.92,2.92,0,0,1-2.68,1.75h-61a2.88,2.88,0,0,1-1.69-.54,2.86,2.86,0,0,0,2.68,1.87h59.82a2.86,2.86,0,0,0,2.87-2.87Z"/><path class="cls-2" d="M564.49,567a2.92,2.92,0,0,1-2.68,1.74h-61a2.92,2.92,0,0,1-1.7-.54,2.87,2.87,0,0,0,2.69,1.87h59.82a2.86,2.86,0,0,0,2.87-2.87Z"/><path class="cls-2" d="M559.79,576.1a2.9,2.9,0,0,1-2.67,1.74h-61a2.92,2.92,0,0,1-1.7-.54,2.85,2.85,0,0,0,2.69,1.87h59.82a2.86,2.86,0,0,0,2.86-2.87Z"/><path class="cls-2" d="M559.79,585.22a2.91,2.91,0,0,1-2.67,1.75h-61a2.92,2.92,0,0,1-1.7-.54,2.86,2.86,0,0,0,2.69,1.87h59.82a2.86,2.86,0,0,0,2.86-2.87Z"/><path class="cls-2" d="M563.31,594.34a2.9,2.9,0,0,1-2.67,1.75h-61a2.92,2.92,0,0,1-1.7-.54,2.86,2.86,0,0,0,2.69,1.87h59.82a2.86,2.86,0,0,0,2.86-2.87Z"/><path class="cls-2" d="M518.36,533.56v5.32a.39.39,0,0,0,.4.4.4.4,0,0,0,.41-.4v-5.32Z"/><path class="cls-2" d="M520.63,533.56v4.36a.4.4,0,0,0,.4.42.41.41,0,0,0,.4-.42v-4.36Z"/><path class="cls-2" d="M523.17,533.56v5.32a.4.4,0,1,0,.8,0v-5.32Z"/><path class="cls-2" d="M548.5,533.56v5.32a.4.4,0,1,0,.8,0v-5.32Z"/><path class="cls-2" d="M550.76,533.56v4.36a.41.41,0,0,0,.81,0v-4.36Z"/><path class="cls-2" d="M505.76,542.68v4.37a.41.41,0,1,0,.81,0v-4.37Z"/><path class="cls-2" d="M524.15,542.68V548a.41.41,0,0,0,.81,0v-5.33Z"/><path class="cls-2" d="M526.42,542.68v4.37a.41.41,0,0,0,.4.41.4.4,0,0,0,.4-.41v-4.37Z"/><path class="cls-2" d="M529,542.68V548a.4.4,0,0,0,.4.4.39.39,0,0,0,.4-.4v-5.33Z"/><path class="cls-2" d="M554.29,542.68V548a.41.41,0,1,0,.81,0v-5.33Z"/><path class="cls-2" d="M556.56,542.68v4.37a.4.4,0,0,0,.8,0v-4.37Z"/><path class="cls-2" d="M520.7,551.8v5.33a.41.41,0,0,0,.81,0V551.8Z"/><path class="cls-2" d="M523,551.8v4.37a.4.4,0,1,0,.8,0V551.8Z"/><path class="cls-2" d="M525.51,551.8v5.33a.4.4,0,0,0,.4.4.41.41,0,0,0,.41-.4V551.8Z"/><path class="cls-2" d="M550.84,551.8v5.33a.41.41,0,0,0,.4.41.4.4,0,0,0,.4-.41V551.8Z"/><path class="cls-2" d="M553.11,551.8v4.37a.4.4,0,0,0,.8,0V551.8Z"/><path class="cls-2" d="M505.64,560.93v4.36a.41.41,0,0,0,.4.42.41.41,0,0,0,.41-.42v-4.36Z"/><path class="cls-2" d="M524,560.93v5.32a.41.41,0,1,0,.81,0v-5.32Z"/><path class="cls-2" d="M526.3,560.93v4.36a.39.39,0,0,0,.4.41.4.4,0,0,0,.4-.41v-4.36Z"/><path class="cls-2" d="M528.84,560.93v5.32a.4.4,0,0,0,.8,0v-5.32Z"/><path class="cls-2" d="M554.17,560.93v5.32a.4.4,0,0,0,.4.41.39.39,0,0,0,.4-.41v-5.32Z"/><path class="cls-2" d="M556.43,560.93v4.36a.4.4,0,0,0,.81,0v-4.36Z"/><path class="cls-2" d="M519.93,570.05v5.32a.41.41,0,1,0,.81,0v-5.32Z"/><path class="cls-2" d="M522.2,570.05v4.37a.4.4,0,1,0,.8,0v-4.37Z"/><path class="cls-2" d="M524.74,570.05v5.32a.4.4,0,1,0,.8,0v-5.32Z"/><path class="cls-2" d="M550.07,570.05v5.32a.41.41,0,0,0,.4.42.4.4,0,0,0,.4-.42v-5.32Z"/><path class="cls-2" d="M552.33,570.05v4.37a.41.41,0,0,0,.81,0v-4.37Z"/><path class="cls-2" d="M519.93,579.17v5.33a.41.41,0,0,0,.81,0v-5.33Z"/><path class="cls-2" d="M522.2,579.17v4.37a.4.4,0,1,0,.8,0v-4.37Z"/><path class="cls-2" d="M524.74,579.17v5.33a.4.4,0,1,0,.8,0v-5.33Z"/><path class="cls-2" d="M550.07,579.17v5.33a.41.41,0,0,0,.4.41.4.4,0,0,0,.4-.41v-5.33Z"/><path class="cls-2" d="M552.33,579.17v4.37a.41.41,0,0,0,.81,0v-4.37Z"/><path class="cls-2" d="M522.43,588.3v5.32a.4.4,0,0,0,.4.41.4.4,0,0,0,.4-.41V588.3Z"/><path class="cls-2" d="M524.69,588.3v4.36a.41.41,0,1,0,.81,0V588.3Z"/><path class="cls-2" d="M527.23,588.3v5.32a.41.41,0,0,0,.81,0V588.3Z"/><path class="cls-2" d="M552.57,588.3v5.32a.39.39,0,0,0,.4.41.4.4,0,0,0,.4-.41V588.3Z"/><path class="cls-2" d="M554.83,588.3v4.36a.4.4,0,0,0,.81,0V588.3Z"/><path class="cls-2" d="M539.89,512.35a11.76,11.76,0,0,1-6.51,1.83,11.43,11.43,0,0,1-8.86-3.88,13.54,13.54,0,0,1-3.15-7.52h-2.71v-2.14h2.49V500c0-.7.05-1.35.09-2h-2.58v-2.18h2.89a13.77,13.77,0,0,1,3.58-7.38,11.53,11.53,0,0,1,8.64-3.63,12.44,12.44,0,0,1,5.81,1.4l-.87,2.88a10.12,10.12,0,0,0-4.89-1.22,7.63,7.63,0,0,0-5.77,2.4,10.39,10.39,0,0,0-2.62,5.55h12.19V498H525c0,.57-.09,1.23-.09,1.84v.78h12.67v2.14H525.26a10.47,10.47,0,0,0,2.4,5.72,8.29,8.29,0,0,0,6.16,2.54,11.46,11.46,0,0,0,5.33-1.44Z"/><path class="cls-4" d="M396.56,465a152.18,152.18,0,0,1-304.35,0c0-1.81,0-3.57.07-5.34A152.19,152.19,0,0,1,396.56,465Z"/><g class="cls-5"><path class="cls-6" d="M396.56,465a152.22,152.22,0,0,1-116,147.85,160.7,160.7,0,0,1-20.59-3.6c-4.78-1.17-9.81-2.78-12.78-6.65-3.42-4.48-3.31-10.9-6.8-15.3s-9.85-5.71-13.68-9.88c-6.12-6.54-3.76-16.91-1.43-25.55s3.5-19.61-3.75-24.87c-3.91-2.86-9.13-3-14-2.94H175.09c-9.28,0-20.77-1.42-24-10.1-2.59-7,2.48-15,9.21-18.3s14.54-3.05,22-2.78c18.9.71,38.85,1.28,55.57-7.56,25.82-13.67,35.89-44.86,43.66-73l7.11-25.82c1.8-6.61,3.83-13.52,8.67-18.29,3.54-3.5,8.27-5.49,13-7a87.65,87.65,0,0,1,42.87-2.63A151.57,151.57,0,0,1,396.56,465Z"/></g><g class="cls-5"><path class="cls-6" d="M264.5,364.68c-6.37-10.07-31.39-31.15-51.83-25.95-4.59,1.18-6.15,7.07-6.64,11.78a19.74,19.74,0,0,0,.78,9c2.58,6.81,10.21,9.93,16.67,13.32s13.17,9.6,11.48,16.7c-.8,3.37-3.32,7.28-1,9.82a5.83,5.83,0,0,0,2.56,1.42,20.58,20.58,0,0,0,19-3.59c3.89-3.19,6.44-7.68,8.85-12.1,1.71-3.11,3.44-6.38,3.57-9.92C268.14,371.41,266.5,367.83,264.5,364.68Z"/></g><g class="cls-5"><path class="cls-6" d="M193.51,421.83A38.66,38.66,0,0,1,168,437c-9.77,1.43-19.69-.64-29.53-1.8s-20.33-1.24-28.9,3.68c-7.89,4.58-12.92,12.7-17.24,20.74,0,0,0,.07-.08.11A152.26,152.26,0,0,1,192,322.14a26.65,26.65,0,0,0-4.06,6.24c-2.71,5.82-3.23,12.47-3.16,18.9.11,9.13,1.32,18.37,5,26.71,2.78,6.43,7,12.22,9,18.94A33.55,33.55,0,0,1,193.51,421.83Z"/></g><path class="cls-7" d="M430.05,495.59s-16.75,17-21.25,26.57-29.19,43.6-29.19,43.6l-16.2-8.53S383.8,513.64,387,507.57s16.76-27.12,16.76-27.12Z"/><path class="cls-7" d="M462.89,482.36s4.09,23.54,9.21,32.75,18.42,49.14,18.42,49.14l-16.37,8.18s-23.55-42-26.62-48.1-12.26-29.43-12.26-29.43Z"/><g class="cls-8"><polygon class="cls-9" points="435.97 496.85 467.94 504.91 463.55 485.81 435.97 496.85"/></g><path class="cls-10" d="M427.79,341.65s-5.87-21.85-1.6-29.31,9.59-4.27,9.59-4.27l-5.86,24Z"/><path class="cls-11" d="M471.49,350.18s-7.46-26.65,5.33-39.44,22.39,19.18,22.39,19.18l2.13-2.13s-1.07-44.77-46.9-33l-1.24,36Z"/><path class="cls-9" d="M464,485.56c-10.66,7.46-29.85,11.72-29.85,11.72s-.36-.77-1-2.13c-2.92-6-11.61-23.22-20.29-36.24-10.66-16-7.46-41.58-7.46-41.58v-4.26h48.5s-.53,22.39.54,28.78c.36,2.15,1.56,7.82,3,14.38.84,3.85,1.76,8,2.66,11.94C462.18,477.47,464,485.56,464,485.56Z"/><polygon class="cls-12" points="428.85 495.6 434.23 500.97 466.48 488.88 465.14 480.81 428.85 495.6"/><path d="M460.11,468.17l-27,27,24.3-38.92C458.29,460.08,459.21,464.23,460.11,468.17Z"/><path class="cls-9" d="M468.29,423.73s1.07,14.92-5.33,24.52-34.11,53.3-34.11,53.3S411.8,493,397.94,481.29l23.45-48V413.07H464Z"/><polygon class="cls-13" points="446.05 332.77 429.54 331.88 431.12 296.35 433.27 298.25 444.35 308.13 444.45 308.21 444.45 308.25 444.98 316.47 446.05 332.77"/><g class="cls-14"><path d="M445,316.47c-3.32-.48-11.3-2.71-12.73-13.2-.45-3.37,0-4.8,1-5l11.08,9.87a.64.64,0,0,1,.1.13Z"/></g><path class="cls-15" d="M430.05,326.19s1.45,8.77,9.19,1.45l.27,87.56s-5.33,5.33-20.25,0C419.26,415.2,418.46,370.43,430.05,326.19Z"/><path class="cls-12" d="M424.33,322.22s-11.47,1.31-12.53,13-8.53,85.28-8.53,85.28,13.86,4.27,19.19,2.13c0,0,8.34-72.46,8.29-95.4a5.11,5.11,0,0,0-5.35-5.09Z"/><path class="cls-16" d="M454.5,308.6H444.31l.61,15.39S457.28,318.2,454.5,308.6Z"/><path class="cls-7" d="M453.77,277.63s16.8,35.55-11.08,33.12l-4.08-1a8.63,8.63,0,0,1-6.35-6.47h0l-2.59-11.44s-1.79-12.71,10.68-15.54S453.77,277.63,453.77,277.63Z"/><path class="cls-17" d="M438.45,283v11.61a2.25,2.25,0,0,1-2.25,2.25h0l-11.61,1.06s-12.79-4.26-12.79-20.25,12.79-12.79,20.25-20.25,19.19-5.33,22.39-2.13,7.46-2.14,13.85,5.33,3.28,23.3-12.22,22.84l-1.78-4.68S450.17,286.22,438.45,283Z"/><path class="cls-18" d="M500.27,325.66l-3.19,4.26s28.78,71.42-8.53,77.82l-24.39-79.81s4.13-21.46,15.86-23.59S500.27,325.66,500.27,325.66Z"/><path class="cls-7" d="M481.09,435.46l1.06,9.59s4.27,9.59,14.93,7.46-4.27-11.72-4.27-11.72v-7.47Z"/><path class="cls-12" d="M479,424.8c-30.91,14.92-42.63,0-42.63,0l1.06-81c0-12.79,23.45-19.19,23.45-19.19l7.46,7.47s-2.13,26.65,5.33,51.16A134.24,134.24,0,0,1,477,396.55c.81,4.07,1.34,7.81,1.7,11.13A83,83,0,0,1,479,424.8Z"/><path class="cls-10" d="M437.38,343.78S435.25,322.46,448,318.2c6.4-2.13,6.4-9.6,6.4-9.6s6.39,5.33,6.39,16c0,0-2.13,3.2-10.66,7.47A33,33,0,0,0,437.38,343.78Z"/><path class="cls-7" d="M413.93,343.78s6.38-11.72,11.72-11.72,6.4,7.46,5.34,10.66-8.53,3.19-8.53,3.19v4.27Z"/><path class="cls-6" d="M424.59,349.11s-.7,3.06-2,7.7c-3.39,12.43-10.81,36.19-19.35,42.4-11.73,8.53-21.32-3.2-16-14.92,3.9-8.59,16.11-27.77,22.35-37.41,2.29-3.51,3.77-5.76,3.77-5.76Z"/><path class="cls-19" d="M481,408.13c-.8,0-1.58,0-2.35-.09l-.31,0,0-.3c-.39-3.71-1-7.44-1.69-11.1l-.11-.55.55.12a20,20,0,0,0,5.1.52l.39,0v11.4l-.35,0Zm-2-.8c.91.06,1.85.08,2.81.05v-9.92a22.64,22.64,0,0,1-4.37-.44C478.08,400.43,478.6,403.89,479,407.33Z"/><path class="cls-18" d="M478.65,407.68c-29.41-2-41.11-42.19-37-59.63,3.18-13.55,14.71-19.95,20.32-22.32l6.32,6.33c-22.38,4.26-21.31,29.84-11.72,48,6.13,11.57,14.87,15.32,20.38,16.52C477.76,400.62,478.29,404.36,478.65,407.68Z"/><path class="cls-6" d="M494.94,434.39l-16,3.2L477.54,431l-9.25-42.49s-16-12.79-18.12-34.11,18.12-22.38,18.12-22.38,12.8,32,18.13,48c4,12.1,6.85,37.05,8,48.44C494.75,432.13,494.94,434.39,494.94,434.39Z"/><path class="cls-6" d="M479,345.91s10.66-1.06,13.86-9.59c0,0,11.73,13.86,0,21.32S479,345.91,479,345.91Z"/><path class="cls-9" d="M466.23,612.22a1,1,0,0,0,1,.38,80.27,80.27,0,0,0,38.3-18.73l-15-30.64-17.23,8.43,9.36,19.15a19.47,19.47,0,0,0-3.54.11l-2,.16a10.16,10.16,0,0,0-1.21.13c-5.31.76-11.9,4.25-12.22,10.1C463.62,602.72,464.41,610.4,466.23,612.22Z"/><path class="cls-20" d="M465.93,612.43l3.59,7.34c27.68-4,39.26-19.2,39.26-19.2l-3.28-6.7a80.27,80.27,0,0,1-38.3,18.73,1,1,0,0,1-1-.38Z"/><path class="cls-20" d="M475.62,576.45l1.7,3.47,4-2a1.94,1.94,0,0,0-1.7-3.48Z"/><path class="cls-20" d="M478,581.23l1.7,3.48,3.06-1.49a2,2,0,0,0,.88-2.6,1.93,1.93,0,0,0-2.58-.88Z"/><path class="cls-20" d="M482.4,585l-2.1,1,1.7,3.48,2.1-1a1.93,1.93,0,0,0-1.7-3.47Z"/><path class="cls-9" d="M325.83,572a1,1,0,0,0,.2,1,80.34,80.34,0,0,0,36.44,22.14L380.19,566l-16.4-10-11.07,18.22a20,20,0,0,0-2-2.93c-.59-.77-1.09-1.42-1.2-1.58-.24-.31-.49-.63-.77-.94-3.5-4.06-10-7.73-15.09-4.84C332.42,564.65,326.38,569.46,325.83,572Z"/><path class="cls-20" d="M325.49,571.83l-4.24,7c18.34,21.13,37.35,22.7,37.35,22.7l3.87-6.38A80.34,80.34,0,0,1,326,573a1,1,0,0,1-.2-1Z"/><path class="cls-20" d="M361,560.57l-2,3.31,3.82,2.32a1.94,1.94,0,0,0,2-3.31Z"/><path class="cls-20" d="M358.25,565.13l-2,3.3,2.91,1.77a1.94,1.94,0,0,0,2-3.31Z"/><path class="cls-20" d="M357.48,570.89l-2-1.21-2,3.31,2,1.21a1.94,1.94,0,0,0,2-3.31Z"/><circle class="cls-7" cx="429.8" cy="297.27" r="6.4"/><path class="cls-21" d="M424.59,349.11s-.7,3.06-2,7.7l-13-9.93c2.29-3.51,3.77-5.76,3.77-5.76Z"/><path class="cls-21" d="M494.94,434.39l-16,3.2L477.54,431c4.84-.69,11.81-1.77,16.85-2.57C494.75,432.13,494.94,434.39,494.94,434.39Z"/><g class="cls-14"><path d="M433.18,299.9s-.09-5.44-3.44-5.8-4.07,6.34-1.76,6.93,1.63-2.54,2.89-1.72a3.28,3.28,0,0,0,2.31.59"/></g><path class="cls-15" d="M383.22,443.19H303.83a19,19,0,0,1,16.94-10.43c.4,0,.79,0,1.18,0a26.09,26.09,0,0,1,45.51-.91A19,19,0,0,1,383.22,443.19Z"/><path class="cls-15" d="M250.18,483.5H170.8a19,19,0,0,1,16.94-10.43c.39,0,.79,0,1.18,0a26.08,26.08,0,0,1,45.5-.92A19,19,0,0,1,250.18,483.5Z"/><path class="cls-15" d="M279.75,582.94H200.36a19,19,0,0,1,16.94-10.43c.4,0,.79,0,1.18,0a26.09,26.09,0,0,1,45.51-.91A19,19,0,0,1,279.75,582.94Z"/><path class="cls-15" d="M153.43,433.78H74.05A19,19,0,0,1,91,423.35c.39,0,.79,0,1.18,0a26.09,26.09,0,0,1,45.5-.92A19,19,0,0,1,153.43,433.78Z"/><g class="cls-22"><path d="M256.24,616.75q-5.85.46-11.86.46A152.15,152.15,0,0,1,92.21,465c0-1.8,0-3.56.08-5.33A152.08,152.08,0,0,1,244.38,312.86q6,0,11.88.46A152,152,0,0,0,116,459.7c0,1.77-.08,3.53-.08,5.33A152.15,152.15,0,0,0,256.24,616.75Z"/></g><path class="cls-23" d="M271.21,531.83a.28.28,0,0,1,0-.56l3.66,0c.18,0,.28.12.28.27a.27.27,0,0,1-.27.28l-3.67,0Zm-3.68,0h0l-3.67,0a.27.27,0,0,1-.27-.28.25.25,0,0,1,.28-.27l3.67,0a.28.28,0,0,1,.27.28A.27.27,0,0,1,267.53,531.82Zm11-.11a.28.28,0,0,1,0-.55l3.67-.11a.3.3,0,0,1,.29.26.29.29,0,0,1-.27.29l-3.67.11Zm-18.36,0h0l-3.67-.14a.28.28,0,1,1,0-.55l3.67.14a.28.28,0,0,1,.27.28A.28.28,0,0,1,260.19,531.69Zm25.74-.24a.28.28,0,0,1-.29-.26.26.26,0,0,1,.24-.29l.89,0a.27.27,0,0,1,.29.26.28.28,0,0,1-.26.29l-.85,0Zm-33.08-.09h0c-1.24-.07-2.46-.15-3.67-.24a.27.27,0,1,1,0-.54l3.66.23a.28.28,0,0,1,.26.3A.27.27,0,0,1,252.85,531.36Zm-7.32-.53h0l-3.65-.35a.28.28,0,0,1-.25-.31.28.28,0,0,1,.3-.24l3.65.35a.28.28,0,0,1,0,.55Zm-7.3-.77h0c-1.23-.15-2.45-.31-3.64-.48a.29.29,0,0,1-.24-.32.27.27,0,0,1,.31-.23c1.2.17,2.41.33,3.64.48a.28.28,0,0,1,0,.55ZM231,529h-.05c-1.23-.2-2.43-.41-3.62-.63a.27.27,0,0,1-.22-.32.28.28,0,0,1,.32-.22c1.18.22,2.39.43,3.61.63a.27.27,0,0,1,.23.31A.28.28,0,0,1,231,529Zm-7.22-1.34h-.06c-1.22-.25-2.41-.52-3.59-.79a.29.29,0,0,1-.21-.33.28.28,0,0,1,.34-.21c1.17.28,2.36.54,3.57.79a.28.28,0,0,1,0,.55ZM216.59,526h-.07c-1.19-.32-2.38-.65-3.54-1a.28.28,0,0,1,.15-.53c1.16.34,2.35.67,3.53,1a.28.28,0,0,1,.2.34A.3.3,0,0,1,216.59,526Zm-7-2.08h-.09c-1.16-.39-2.33-.79-3.47-1.21a.27.27,0,0,1-.17-.35.28.28,0,0,1,.36-.17c1.13.42,2.29.82,3.46,1.2a.28.28,0,0,1,.17.35A.27.27,0,0,1,209.55,523.93Zm-6.89-2.52-.1,0c-1.15-.47-2.29-1-3.39-1.46a.27.27,0,0,1-.13-.36.27.27,0,0,1,.36-.14c1.09.5,2.22,1,3.36,1.45a.27.27,0,0,1,.15.36A.27.27,0,0,1,202.66,521.41Zm-6.68-3-.12,0c-1.11-.56-2.21-1.15-3.25-1.74a.28.28,0,0,1-.11-.37.29.29,0,0,1,.38-.11c1,.59,2.12,1.17,3.22,1.73a.28.28,0,0,1,.13.37A.29.29,0,0,1,196,518.37Zm-6.38-3.61a.27.27,0,0,1-.15,0c-1-.66-2.07-1.34-3.06-2.05a.28.28,0,0,1-.07-.38.28.28,0,0,1,.39-.07c1,.7,2,1.38,3,2a.28.28,0,0,1-.14.51Zm-6-4.25a.27.27,0,0,1-.17-.06c-1-.77-1.91-1.57-2.81-2.39a.26.26,0,0,1,0-.38.26.26,0,0,1,.39,0c.89.8,1.83,1.6,2.78,2.36a.27.27,0,0,1,0,.39A.28.28,0,0,1,183.62,510.51Zm-5.44-4.91a.27.27,0,0,1-.2-.09c-.86-.88-1.69-1.79-2.49-2.72a.28.28,0,0,1,0-.39.27.27,0,0,1,.38,0c.79.92,1.61,1.83,2.46,2.7a.28.28,0,0,1-.19.47ZM173.42,500a.27.27,0,0,1-.22-.11c-.73-1-1.44-2-2.1-3a.28.28,0,0,1,.47-.29c.65,1,1.35,2,2.07,3a.27.27,0,0,1-.06.38A.25.25,0,0,1,173.42,500Zm-3.95-6.18a.27.27,0,0,1-.24-.14c-.59-1.07-1.14-2.18-1.65-3.3a.26.26,0,0,1,.13-.36.27.27,0,0,1,.37.13c.5,1.11,1,2.2,1.63,3.26a.29.29,0,0,1-.11.38A.31.31,0,0,1,169.47,493.84Zm-3.06-6.66a.29.29,0,0,1-.26-.18c-.43-1.13-.83-2.3-1.19-3.48a.29.29,0,0,1,.18-.35.29.29,0,0,1,.35.19c.36,1.16.75,2.32,1.18,3.45a.27.27,0,0,1-.16.35Zm-2.15-7A.28.28,0,0,1,164,480c-.28-1.18-.53-2.39-.75-3.61a.27.27,0,0,1,.22-.32.28.28,0,0,1,.32.22c.22,1.21.47,2.42.75,3.58a.28.28,0,0,1-.21.33ZM163,472.94a.28.28,0,0,1-.28-.24c-.14-1.2-.26-2.43-.35-3.68a.28.28,0,0,1,.26-.29.26.26,0,0,1,.29.25c.09,1.24.21,2.47.35,3.65a.28.28,0,0,1-.24.31Zm-.52-7.34a.27.27,0,0,1-.27-.27c0-.57,0-1.14,0-1.71s0-1.31,0-2a.28.28,0,0,1,.28-.27.27.27,0,0,1,.27.28c0,.65,0,1.31,0,2s0,1.13,0,1.7a.28.28,0,0,1-.27.28Zm.17-7.35h0a.27.27,0,0,1-.25-.29c.07-1.2.18-2.44.31-3.67a.28.28,0,0,1,.3-.25.27.27,0,0,1,.24.31c-.12,1.22-.23,2.45-.3,3.65A.27.27,0,0,1,162.62,458.25Zm.76-7.3h0a.28.28,0,0,1-.24-.31c.17-1.2.36-2.42.57-3.65a.28.28,0,0,1,.32-.22.29.29,0,0,1,.23.32c-.21,1.21-.41,2.44-.57,3.63A.28.28,0,0,1,163.38,451Zm1.25-7.26h0a.27.27,0,0,1-.22-.32c.25-1.19.51-2.4.8-3.6a.28.28,0,0,1,.33-.21.29.29,0,0,1,.21.34c-.29,1.2-.55,2.4-.8,3.58A.27.27,0,0,1,164.63,443.69Zm1.69-7.16h-.07a.27.27,0,0,1-.2-.33c.32-1.19.65-2.37,1-3.55a.27.27,0,0,1,.34-.19.28.28,0,0,1,.19.34c-.34,1.18-.67,2.35-1,3.54A.29.29,0,0,1,166.32,436.53Zm2.05-7h-.08a.27.27,0,0,1-.18-.35c.37-1.17.75-2.33,1.15-3.49a.27.27,0,0,1,.35-.17.27.27,0,0,1,.17.35c-.39,1.15-.78,2.31-1.15,3.48A.26.26,0,0,1,168.37,429.48Zm2.38-7-.1,0a.27.27,0,0,1-.16-.35q.63-1.74,1.29-3.45a.28.28,0,1,1,.52.2c-.44,1.13-.87,2.28-1.3,3.44A.27.27,0,0,1,170.75,422.53Zm2.65-6.86-.1,0a.28.28,0,0,1-.15-.36c.47-1.15.94-2.28,1.42-3.39a.29.29,0,0,1,.37-.15.27.27,0,0,1,.14.36c-.48,1.12-1,2.25-1.42,3.39A.28.28,0,0,1,173.4,415.67Zm2.91-6.75a.2.2,0,0,1-.11,0,.27.27,0,0,1-.14-.36c.51-1.14,1-2.25,1.54-3.35a.29.29,0,0,1,.37-.13.27.27,0,0,1,.13.37c-.51,1.09-1,2.2-1.54,3.33A.26.26,0,0,1,176.31,408.92Zm3.14-6.66a.24.24,0,0,1-.12,0,.26.26,0,0,1-.13-.36c.55-1.13,1.1-2.22,1.65-3.3a.28.28,0,0,1,.37-.12.28.28,0,0,1,.12.37c-.55,1.07-1.1,2.17-1.65,3.29A.25.25,0,0,1,179.45,402.26Zm3.34-6.55a.31.31,0,0,1-.13,0,.28.28,0,0,1-.11-.37c.59-1.12,1.17-2.2,1.74-3.25a.28.28,0,1,1,.49.27c-.58,1-1.16,2.12-1.75,3.23A.26.26,0,0,1,182.79,395.71Zm3.54-6.45a.25.25,0,0,1-.14,0,.27.27,0,0,1-.1-.37c.63-1.12,1.25-2.18,1.84-3.19a.28.28,0,0,1,.38-.1.29.29,0,0,1,.1.38c-.6,1-1.21,2.07-1.84,3.18A.27.27,0,0,1,186.33,389.26Zm3.73-6.35a.23.23,0,0,1-.14,0,.28.28,0,0,1-.1-.38l1.94-3.13a.28.28,0,1,1,.47.29c-.6,1-1.24,2-1.94,3.13A.26.26,0,0,1,190.06,382.91Zm3.93-6.23a.28.28,0,0,1-.15,0,.27.27,0,0,1-.08-.38c1.29-2,2.07-3.06,2.07-3.07a.28.28,0,0,1,.39-.07.28.28,0,0,1,.06.39s-.78,1.1-2.06,3.05A.27.27,0,0,1,194,376.68Z"/><path class="cls-9" d="M263.21,473.07c1.73,32.66,25.43,57.95,25.43,57.95s20.92-27.65,19.2-60.3S261.49,440.42,263.21,473.07Zm23.32,7a9.16,9.16,0,1,1,8.67-9.63A9.17,9.17,0,0,1,286.53,480.07Z"/><path class="cls-24" d="M274,469.7c-3.31,32.53,16.23,61.16,16.23,61.16s24.91-24.1,28.23-56.63S277.34,437.17,274,469.7Zm22,10.5A9.17,9.17,0,1,1,306,472,9.17,9.17,0,0,1,296,480.2Z"/><g class="cls-25"><path class="cls-15" d="M170.85,463.35H60.66a26.3,26.3,0,0,1,23.52-14.49c.54,0,1.09,0,1.63.06A36.22,36.22,0,0,1,149,447.64,26.31,26.31,0,0,1,170.85,463.35Z"/></g><g class="cls-26"><path class="cls-9" d="M274.72,364.17l-11.49,12.46,10,35.34-8.78,7.43-38.93-68.68-6.73-5.11L168.65,381.3l8.06,40.35-6.43,5.15-18.67-32.19-13.11,6.71-5,2.58,12-15.37-31.61-19.65,5.33-6.25,39.46,7.51,36.8-49.06-3.86-5.14-67.48-41,7.69-8.54,35,11.11,12.81-11.11,12,6.84-9.4,10.24,13.66,4.28,16.13-12.52,13.77,6.54L212.9,292.87l8.54,1.71s45.05-46.75,64.77-36.79l.13.07.15-.15c9.64,20-38.68,63.77-38.68,63.77l1.45,8.59,11.49-12.47,6.11,14-13,15.73,3.85,13.8L268.25,352Z"/><path class="cls-9" d="M286.21,257.79,138.5,401.32l-5,2.58,12-15.37-31.61-19.65,5.33-6.25,39.46,7.51,36.8-49.06-3.86-5.14-67.48-41,7.69-8.54,35,11.11,12.81-11.11,12,6.84-9.4,10.24,13.66,4.28,16.13-12.52,13.77,6.54L212.9,292.87l8.54,1.71S266.49,247.83,286.21,257.79Z"/></g><path class="cls-27" d="M272.44,340.26l-10.83,13,11.84,34.78L265.07,396l-42.42-66.59-7-4.76-48.28,38.23,10.13,39.88-6.15,5.47L151.05,377l-12.74,7.38-4.89,2.83,11.15-16-32.57-18,5-6.52,39.79,5.48L191,301.31l-4.11-4.94-69.5-37.46,7.23-8.93,35.55,9.29,12.22-11.75,12.3,6.21-8.86,10.72L189.7,268l15.46-13.33,14.09,5.82L207,272.24l8.61,1.27s42.59-49,62.79-40.08l.14.06.14-.15C289.37,252.77,243.37,299,243.37,299l1.89,8.5,10.83-13,6.82,13.63-12.17,16.38,4.57,13.58,10-9.61Z"/><path class="cls-28" d="M278.43,233.43l-140.12,151-4.89,2.83,11.15-16-32.57-18,5-6.52,39.79,5.48L191,301.31l-4.11-4.94-69.5-37.46,7.23-8.93,35.55,9.29,12.22-11.75,12.3,6.21-8.86,10.72L189.7,268l15.46-13.33,14.09,5.82L207,272.24l8.61,1.27S258.23,224.5,278.43,233.43Z"/><g class="cls-8"><polygon class="cls-9" points="401.98 483.5 414.89 512.69 425.64 499.96 401.98 483.5"/></g><polygon class="cls-12" points="397.95 475.44 432.88 498.28 427.51 506.35 393.92 482.16 397.95 475.44"/><path class="cls-29" d="M240.91,597.45c23,1.61,44.92,1.93,65.07,0-2.67,8.82-1.52,18.29,0,27.81H240.91C243.27,613.63,242.8,604.83,240.91,597.45Z"/><path class="cls-30" d="M304.18,599.15h0c-19.48,1.86-40.66,1.63-62.82.15l.09.44c22.14,1.47,43.29,1.7,62.77-.16A.22.22,0,0,0,304.18,599.15Z"/><path class="cls-30" d="M302.25,600.74h0c-18.82,1.8-39.2,1.65-60.54.3,0,.15.05.3.07.44,21.32,1.34,41.69,1.5,60.51-.3a.22.22,0,0,0,0-.44Z"/><path class="cls-30" d="M304.85,602.5c-18.58,1.65-38.62,1.54-59.53.36a.23.23,0,0,0-.25.2.21.21,0,0,0,.22.23c20.9,1.18,40.92,1.29,59.5-.35Z"/><path class="cls-30" d="M304.63,604.25c-18.91,1.77-39.35,1.67-60.71.47a.22.22,0,0,0,0,.44c21.35,1.2,41.78,1.29,60.7-.47C304.6,604.55,304.62,604.4,304.63,604.25Z"/><path class="cls-30" d="M301.33,606h0c-18.34,1.76-38.18,1.65-58.94.39l0,.44c20.76,1.25,40.6,1.36,59-.4a.22.22,0,0,0,0-.43Z"/><path class="cls-30" d="M299.78,607.53h0c-17.86,1.71-37.14,1.65-57.31.49,0,.15,0,.29,0,.44,20.16,1.16,39.46,1.21,57.34-.5a.22.22,0,1,0,0-.43Z"/><path class="cls-30" d="M302.71,609.33h0c-18.71,1.79-39,1.64-60.19.32v.43c21.22,1.33,41.5,1.47,60.24-.32A.22.22,0,0,0,302.71,609.33Z"/><path class="cls-30" d="M304.42,611.28c-18.37,1.58-38.14,1.46-58.77.3a.22.22,0,1,0,0,.43c20.64,1.16,40.43,1.28,58.81-.3C304.43,611.57,304.42,611.43,304.42,611.28Z"/><path class="cls-30" d="M303.34,612.92h0c-18.9,1.81-39.39,1.64-60.85.28,0,.14,0,.29,0,.43,21.47,1.37,42,1.53,60.91-.28a.22.22,0,1,0,0-.43Z"/><path class="cls-30" d="M301.88,614.71h0c-18.51,1.77-38.54,1.64-59.5.36,0,.14,0,.28,0,.43,21,1.28,41,1.41,59.57-.36A.22.22,0,0,0,301.88,614.71Z"/><path class="cls-30" d="M304.77,616.34c-19,1.79-39.48,1.7-60.92.49a.22.22,0,0,0,0,.44c21.45,1.2,42,1.29,61-.49C304.8,616.63,304.78,616.49,304.77,616.34Z"/><path class="cls-30" d="M305,618.07c-18.77,1.71-39.05,1.62-60.23.42a.23.23,0,0,0-.24.21.23.23,0,0,0,.21.23c21.2,1.19,41.51,1.29,60.32-.43Z"/><path class="cls-30" d="M305.14,619.55c-19.31,1.9-40.25,1.84-62.15.61a.21.21,0,0,0-.24.2.21.21,0,0,0,.21.23c21.92,1.23,42.89,1.3,62.24-.61Z"/><path class="cls-30" d="M301.33,621.37h0c-18.57,1.78-38.69,1.64-59.74.34,0,.15-.05.29-.07.43,21.08,1.31,41.23,1.44,59.86-.34a.22.22,0,0,0,0-.44Z"/><path class="cls-30" d="M303.38,622.83h0c-19.25,1.84-40.15,1.63-62,.2,0,.14-.05.29-.08.43,21.91,1.44,42.85,1.65,62.15-.2a.22.22,0,0,0,0-.43Z"/><path class="cls-29" d="M261.82,565.94c14.25-10.89,34.91-4.24,54.37-14.33l7.89,30c-16.77,10.29-38.87,4.53-54.37,14.32Z"/><path class="cls-30" d="M267.4,565.93a3.53,3.53,0,0,1-2,3.43l5.2,19.73a3.56,3.56,0,0,1,3.41,2c12.5-8.47,31.82-1.55,44.25-9.8a3.51,3.51,0,0,1,2-3.43l-5.2-19.73a3.51,3.51,0,0,1-3.4-2C298.57,563.5,279.94,557.89,267.4,565.93Z"/><path class="cls-29" d="M300.77,571.37a8.29,8.29,0,1,1-3.85-5.07A8.31,8.31,0,0,1,300.77,571.37Z"/><path class="cls-15" d="M537.41,449.31h0l0,.54,1,.06,0-.55h0l.12-3.46-1,0Zm.24-11.46v2.27h0l0,1.74h1l0-1.74h0v-2.27Zm-.11-8,.1,4v0h1v-.06l-.11-4Zm-.34-8,.22,4,1-.06-.22-4Zm-.54-8,.06.63h0l.25,3.35,1-.07-.25-3.37h0l-.07-.64Zm-.89-8,.5,4,1-.13-.51-4Zm-1.54-7.83.74,3.24h0l.11.63,1-.17-.12-.66v0l-.74-3.26ZM532,390.41l1,2.79.28,1,1-.27-.29-1v0l-1-2.81Zm-3.09-7.35,1.32,2.82,0,0,.31.78.93-.37-.33-.81v0l-1.33-2.84ZM525,376.15l0,.08h0v0l1.85,3v0h0l.12.24.89-.48-.14-.25v0l-1.88-3.07v0l-.08-.11Zm-4.77-6.39.73.85,0,0h0l1.73,2.24.79-.61L521.71,370l0,0-.75-.87ZM514.7,364l1.68,1.61,0,0,1.12,1.18.73-.69-1.14-1.2,0,0-1.7-1.63Zm-6.09-5.13.31.23,2.56,2,.23.2.66-.76-.23-.2,0,0-2.59-2.06h0l-.32-.23ZM502,354.37l1.56,1h0l1.77,1.19.56-.83-1.79-1.2h0l-1.58-1Zm-7-3.9.12.06h0L498,352h0l.54.31.49-.88-.55-.31h0l-2.86-1.51h0l-.13-.06Zm-7.25-3.36,1.6.68h0l2,.93.42-.91-2.05-.94h0l-1.62-.69Zm-7.44-2.94.29.1h0l2.92,1.1h0l.51.2.38-.93-.53-.21h0L481,343.33h0l-.31-.11Zm-7.59-2.58,2.08.66h0l1.7.6.33-1-1.72-.6h0l-2.09-.67Zm-119.27-.32,4,.05,0-1-4-.05Zm9.1-1h-1.07v1l1.07,0h0l2.95-.12,0-1Zm-17.15.5,3.52.3h0l.48,0,.05-1-.48,0-3.5-.29Zm26.41-1h0l-2.34.15.07,1,2.33-.14h0l1.67-.14-.08-1Zm9.39-.81h0l-3.74.35.1,1,3.73-.35h0l.26,0-.11-1Zm-43.79.67,2.7.48h0l1.25.16.13-1-1.23-.16-2.71-.48Zm127.65-.42,3.84,1.15.29-1-3.84-1.15Zm-79.61-.7.1,1,4-.42-.1-1Zm8-.88.12,1,4-.47-.12-1Zm-63.88.19,2.05.56h0l1.84.43.23-1-1.82-.42h0l-2-.56Zm71.86-1.11.11,1,4-.44-.11-1Zm55.92.54,2.15.44,1.74.45.25-1-1.76-.46h0l-2.15-.44Zm-47.62-1.45h0l-.3,0,.11,1,.3,0h0l3.68-.36-.09-1Zm39.74.2,1.49.16h0l2.44.38.15-1-2.46-.37h0l-1.52-.16Zm-30.29-1.07h0l-1.75.15.09,1,1.74-.15h0l2.25-.16-.07-1Zm22.33.44.68,0,3.31.22.07-1-3.33-.22h-.7Zm-13-1h0l-3.06.15.05,1,3.05-.15h0l.94,0,0-1Zm5,.88h4v-1h-4ZM322,335.12l1.47.61h0l2,.75h0l.27.1.33-.95-.27-.1h0l-2-.75-1.46-.6Zm-7.23-3.62,2.09,1.18h0l1.44.72.46-.89-1.45-.73-2.07-1.16ZM308,327.08l1.24.9h0l2,1.39.56-.83-2.05-1.39-1.23-.89Zm-6.31-5,.5.45h0l2.27,1.89h0l.3.24.62-.8-.3-.23-2.26-1.88-.5-.44Zm-5.88-5.51,2,2h0l.86.8.69-.73-.85-.79h0l-2-2Zm-5.48-5.92,1.5,1.73h0l1.18,1.27.73-.69-1.16-1.25v0l-1.49-1.7Zm-5.15-6.18,2.52,3.12.78-.63-2.52-3.12ZM280.33,298l1.57,2.22h0l.78,1,.8-.6-.77-1h0l-1.56-2.2Zm-4.5-6.67,1.2,1.86h0l1,1.49.83-.56-1-1.48h0l-1.19-1.86Zm-4.13-6.92.88,1.57h0l1.14,1.9.86-.52-1.13-1.88h0l-.87-1.56Z"/><path class="cls-31" d="M483.46,235.77C457.92,233.84,504,224,514.82,223.08c0,0,2.37-29.88,24.78-17.28,4.37-42.36,36.69-26.89,39,6,0,0,17.67-6.05,29.47,7.63,0,0,29.91,3.2,35,10.33,6.8,9.48-137.07,7.68-159.63,6"/></g></g></svg>