<svg xmlns="http://www.w3.org/2000/svg" xmlns:xlink="http://www.w3.org/1999/xlink" viewBox="0 0 604.95 614.19"><defs><style>.cls-1{fill:url(#Degradado_sin_nombre_6);}.cls-2{fill:#4376bb;}.cls-10,.cls-11,.cls-12,.cls-14,.cls-15,.cls-16,.cls-17,.cls-18,.cls-19,.cls-2,.cls-20,.cls-21,.cls-22,.cls-23,.cls-24,.cls-25,.cls-26,.cls-27,.cls-28,.cls-29,.cls-3,.cls-32,.cls-33,.cls-34,.cls-6,.cls-7,.cls-8,.cls-9{fill-rule:evenodd;}.cls-3{fill:#61a569;}.cls-4{fill:#7474e6;}.cls-5{fill:#5959b0;}.cls-6{fill:#815f35;}.cls-7{fill:#6f502e;}.cls-8{fill:#6da396;}.cls-9{fill:#dff7fc;}.cls-10{fill:#57857b;}.cls-11{fill:#c75047;}.cls-12,.cls-13{fill:#424b59;}.cls-14{fill:#6d4024;}.cls-15{fill:#313162;}.cls-16{fill:#1c1c3e;}.cls-17{fill:#e2c1c2;}.cls-18{fill:#f1d2d3;}.cls-19{fill:#393877;}.cls-20{fill:#af262a;}.cls-21{fill:#d56f57;}.cls-22{fill:#c64137;}.cls-23{fill:#7575de;}.cls-24{fill:#d09534;}.cls-25{fill:#f5e1a8;}.cls-26{fill:#c77b21;}.cls-27{fill:#84da84;}.cls-28{fill:#c03333;}.cls-29{fill:#a6001b;}.cls-30{fill:#a0a1fb;}.cls-31{fill:#b7b7fc;}.cls-32{fill:#d7a22e;}.cls-33{fill:#efd744;}.cls-34{fill:#e9effd;}.cls-35{fill:#e4e4e4;}</style><linearGradient id="Degradado_sin_nombre_6" x1="144.21" y1="549.67" x2="460.73" y2="1.44" gradientUnits="userSpaceOnUse"><stop offset="0" stop-color="#ff9657"/><stop offset="1" stop-color="#ffb55b"/></linearGradient></defs><g id="Capa_2" data-name="Capa 2"><g id="Capa_1-2" data-name="Capa 1"><path class="cls-1" d="M485.11,33.6l0,0L457.62,0,430.1,33.57H121a121,121,0,0,0-121,121v242a121,121,0,0,0,121,121H484a121,121,0,0,0,121-121v-242A121,121,0,0,0,485.11,33.6Z"/><path class="cls-2" d="M295.84,234.45A139.8,139.8,0,1,1,162.42,380.36,139.81,139.81,0,0,1,295.84,234.45"/><path class="cls-3" d="M163.56,355.14a140,140,0,0,1,83.53-109.59c-.49,4.67-1.73,11.76-4.92,14.38-4.93,4.05-9.93,10-5.32,23.85s2,15.87-2.38,25.32-4.58,8.18-.35,20.76,2,23.68-2.5,26.12-13.67,1.25-19,.68-14.2,10.69-20.88,11.15-23.3-5-28.22-12.67"/><path class="cls-3" d="M424.92,439.12a140.45,140.45,0,0,1-15.76,23.7c-.35,0-.67,0-1,0-5-.13-56-3.24-55.67-6.92s4.87-8.84,10.87-17.4,4.25-33.38,9.29-38.39,12.46.24,14.91,8.75,2.63,12.32,8.25,9.52,20.05-1.06,19.81,4.22c-.15,3.18,5.08,10.89,9.25,16.5"/><rect class="cls-4" x="91.56" y="359.51" width="91.08" height="127.92"/><rect class="cls-5" x="101.46" y="430.64" width="71.53" height="23.47"/><path class="cls-6" d="M507.24,482.33s6-43.12,3.68-67c0,0,3.43-11.77,4.35-10.48s4.05,13.91,4,15.91,5.84,56.68,3.08,73.95-16.72-3.51-15.13-12.34"/><path class="cls-7" d="M512.7,409.72c.48-1.38,1-2.73,1.44-3.68.11,1.52.17,3.22.15,5.14l-1.59,0v-1.44"/><path class="cls-7" d="M520.17,431l.14,1.58a53,53,0,0,1-5.51.53l-.06-1.58c1.78-.07,3.7-.29,5.43-.53"/><path class="cls-7" d="M511.25,438.48l.06-1.6a38.05,38.05,0,0,0,5,.56l0,1.59a37.74,37.74,0,0,1-5-.55"/><path class="cls-7" d="M521.29,444.34l.12,1.59a49.58,49.58,0,0,1-5.67-.09l.15-1.58a49.65,49.65,0,0,0,5.4.08"/><path class="cls-7" d="M510.53,450.87l.12-1.6a55.85,55.85,0,0,0,7,1.11l-.1,1.58a56.69,56.69,0,0,1-7-1.09"/><path class="cls-7" d="M509.72,460.54l.15-1.59a51.48,51.48,0,0,0,6.94.51l0,1.59a54.09,54.09,0,0,1-7.12-.51"/><path class="cls-7" d="M522.77,467.89l.07,1.58a36.7,36.7,0,0,1-7.41-.29l.33-1.56a34.16,34.16,0,0,0,7,.27"/><path class="cls-7" d="M508.17,475l.19-1.58c2.71.51,6.45,1.17,8.78,1.39l-.15,1.58c-2.34-.22-6.08-.87-8.82-1.39"/><path class="cls-7" d="M507.35,481.5l.21-1.59a76.53,76.53,0,0,0,9.7,2l-.19,1.58a77.13,77.13,0,0,1-9.72-2"/><path class="cls-8" d="M210.87,407.68S83.65,457.92,52,508.39c0,0-8.88,9.13,26.38,17.41,97.72,23,361.06,42.42,463.47-14.81,8-4.48,17.76-10.92,1.64-18.69s-75.32-45.17-95-54.29-25.79-12-45.62-.72-24.1,12.83-24.1,12.83-44.58-18-51.64-20.2-21.52.49-35.83,9.1l-8.66,4s-54.72-42.91-71.76-35.35"/><path class="cls-9" d="M210.87,407.68s-12.23,4.83-30,13c2.95.51,6.07.92,7.59.67,3.34-.56,8.61-3.78,12.66-1s9,3.23,13.69,2.72,8.37-3.54,14.83,0,7.68-2.17,14.71-1.49a64.09,64.09,0,0,0,7.88.4c-15.57-9.55-33-18-41.33-14.27"/><path class="cls-10" d="M282.55,443c-.22-.17-1-.77-2.19-1.68l-.25.53Zm2.61-1.11-2.5,1.16c9.33,4.4,41.51,19.61,49.16,23.52,5.32,2.71,15.75,8.95,24.89,14.42,6.18,3.69,11.78,7,14.84,8.73a117.39,117.39,0,0,0,11.07,5.21c3.84,1.65,8.11,3.48,13.69,6.35,5.1,2.64,10.45,5.14,15.45,7.32,6,2.61,11.47,4.77,15.43,6.17,4.66,1.64,10.51,3.91,14.08,5.32,11.4,4.48-11.16-6.54-13.38-7.32-3.91-1.38-9.35-3.52-15.29-6.12-5-2.17-10.29-4.65-15.32-7.25-5.64-2.9-9.95-4.75-13.82-6.42a113.55,113.55,0,0,1-10.89-5.12c-3.07-1.7-8.63-5-14.77-8.69-9.19-5.5-19.66-11.76-25-14.49C325.6,461,296.14,447.05,285.16,441.86Z"/><path class="cls-10" d="M381.29,449c-1.9.92-2.53,1.15-2.53,1.15L375,448.6c1.43.6,43.81,18.52,50.76,22.11,4.1,2.11,10.33,3.89,16.48,5.65,4.67,1.33,9.3,2.66,12.85,4.09s16,6.54,16.25,5.66c.11-.4-13.4-6.8-15.46-7.63-3.61-1.46-8.31-2.8-13.06-4.16-6.05-1.73-12.18-3.48-16.09-5.5-5.57-2.87-33.39-14.74-45.42-19.85"/><path class="cls-9" d="M350.55,438.86c-10.4-4.1-20.39-8-23.43-8.94-6.92-2.18-20.92.38-34.93,8.57,3.23,1.92,9.18,3.6,11.82,4.73,3.54,1.51,12.67.11,19-3.26s3.28-1.39,13.45.53a26.19,26.19,0,0,0,14.08-1.63"/><path class="cls-11" d="M268.65,322.42s-10.17,4.45-15.79,21.65-15.84,72.77-7.48,85.08,14.29,9.05,20.27,9,15.94-4.7,15.94-4.7,3.47,2.88,9.83-15.35c5.35-15.33,8.09-30.44,6.86-34.77-.23-.82-2.56-1.18-2.56-1.18s13.37.65,19.43-11.09c0,0-9-33.1-21.24-46.71s-13.79-7.51-16.67-7.09-4.63,2.26-8.59,5.17"/><path class="cls-12" d="M289.25,319.61a28.18,28.18,0,0,0-2.55-2.06c-2.07,4.39-18.62,39-36.49,58.83l2.36,2.13c17.43-19.38,33.52-52.28,36.68-58.9"/><path class="cls-13" d="M290.78,382.63c.45,0,1-.06,1.56-.11-6.59-9.67-10.88-29.88-10.88-29.88,2,18.77,7.57,27.39,9.32,30"/><path class="cls-14" d="M303.37,561.11A79.53,79.53,0,0,0,313.52,564c4.18.76,5.69,5.48,4.43,10.82,0,0-2.91-.27-2.57,1.76s1.49,3.18,1.39,5.47-6.2,14-8.46,14.79-3.7-2.52-3.13-9.83-1.84-14.28-5.66-17.2-2.13-9.78,3.85-8.74"/><path class="cls-14" d="M281.17,587.63s2.81,11.54,4.24,16.66-5.52,6-8,6.24-4.05-2.41-5.12-.72-2.5,2.16-5.36,2.78-18.89,3.64-17.19-.72,17.26-11,18.6-14.5a26.82,26.82,0,0,0,2.11-8.57c.09-2.4,7.63-5.52,10.72-1.17"/><path class="cls-15" d="M274.53,502.57s20.55,44.75,27.3,52.83-1.22,13-5.79,15.61c0,0-20.66-24.91-27.7-44.14s-.61-22.41,6.19-24.3"/><path class="cls-16" d="M279.41,513l1.71,3.6c-.13,6.34-.41,24.84.3,34.56a162.65,162.65,0,0,1-8.67-14.49c.37-4.83.75-8.69,1-9.68.47-1.87-1-18.09,5.66-14"/><path class="cls-15" d="M245.38,429.15s2,3.33,12.65.86,26.17-5.86,31.51-2.41c0,0,10.65,24.26.85,50.42s-18.4,65.84-10,98l3.45,12.61s-12.79,3.86-18.13,2.6c0,0-10-61.88-7.83-72.54,0,0-9.64-10.34-11.63-14.84s-3.29-55.7-.89-74.68"/><path class="cls-16" d="M257.9,518.67c-.54-.59-2.08-2.28-3.58-4,.27-9.34.45-27.41-.21-60.61,0,0,3.34,47.25,3.79,64.61m-.29,5.38c0-1.24,0-2.35.06-3.29C257.68,522.26,257.67,523.39,257.61,524.05Z"/><path class="cls-17" d="M270.25,311.18s-3.64,11.14-3,13.4S278,322,281.56,318.9c2.13-1.81,2.06-1.88,2.06-1.88s-1-7.89-.93-9.73-10.4-.54-12.44,3.89"/><path class="cls-18" d="M260,287.15s-7,39.31,15.71,25.63c0,0,6.53-1,8.14-2.31s7.85-13,6.92-15.94-2.35-14.65-11.6-16.43-15.32-5.8-19.17,9"/><path class="cls-19" d="M259.3,292.62s4.12-13.92,10-13.69,4.57,8.48,7.95,12.71,2.9,5.91,3.28,7.58,1.76-.67,3.8-3.11c3.9-4.67,8.29,7.32-.52,9.48l-.76,5.46s3.11-.95,4.15-2.17c18.78-22.41,3-17.25,6.58-33.51.75-3.45-4.3-10.75-8.58-11.66-3.84-.82-7.4,4.06-12.1,2.14-13-5.27-24.39,4.47-13.81,26.77"/><path class="cls-20" d="M303.67,414.53s-.79,1.87,3.29,4,5.77,4.91,5.2,8.41c0,0-9.46-2.93-6.69,3.78l-1.91,3.1s-10.84-1.77-10.77-7.36,5.23-11.56,10.88-11.89"/><path class="cls-20" d="M313.79,480.49s15.4-12.13,23.79-11.79,28.05,11.75,33.56,17.25,52.95,65.52,26.55,96.06l-15.34,6.59L342.27,563l-22.76-58.77s-6.84-17.93-5.72-23.69"/><path class="cls-21" d="M313.79,480.49s15.4-12.13,23.79-11.79,28.05,11.75,33.56,17.25c.28.28.67.71,1.15,1.25L347,500.27l-33.18-16.39a11.86,11.86,0,0,1,0-3.39"/><path class="cls-22" d="M372.29,487.2c9,10.27,50.46,65.82,25.4,94.81l-13.2,5.67h0L347,500.27Z"/><path class="cls-22" d="M316,436.21l26.53,69.92c1.31,3.46,5.32,2.51,4.19-1.39-3.1-10.62-26.81-71.07-26.81-71.07s-5.36-2.79-3.91,2.54"/><path class="cls-22" d="M297.19,431.76l23.16,68c1.92,5.62-2.46,6.08-4.71.85-5.51-12.76-24.55-72-24.55-72a7.91,7.91,0,0,1,2-.64c1.05,1.13,3.47,1.43,4.11,3.78"/><path class="cls-18" d="M312.58,374.72s15.21,28-33.7,67.32c0,0-6.09-4.77-7.31-7.36,0,0,17.49-23.81,21.43-33.86,3.19-8.15,1.69-12.81,1-18.64,13.09-1.74,18.56-7.46,18.56-7.46"/><path class="cls-16" d="M266.88,429.93c.17-.15,12.71,10.51,17.91,16.72-6.88-4.41-15.31-12.24-17.91-16.72"/><path class="cls-21" d="M311,426.05c1.81.92,5.2,2.63,7.28,3.72,5.34,2.8,3.68,8.72-3.23,6.1a66.53,66.53,0,0,1-8.66-4.32c-6.8-3.95-1.26-8.44,4.61-5.5"/><path class="cls-20" d="M392,579.82a6.94,6.94,0,1,1-7,7.25,7.12,7.12,0,0,1,7-7.25"/><path class="cls-22" d="M353.82,570.07a5.67,5.67,0,0,1-4,1.88,5.46,5.46,0,0,1-5.82-5.06,5.07,5.07,0,0,1,.64-2.7Z"/><path class="cls-3" d="M325.79,236.32a139.44,139.44,0,0,1,67,31.47c-9,4.21-18,10.5-19.63,12.77-2.7,3.79-19.65,2.95-21.59-8.29s-19.93-10.44-19-20.37-3.32-6.48-6.78-10.63a3.65,3.65,0,0,1,0-5"/><path class="cls-9" d="M457,442.33c-3.29-1.77-6.16-3.24-8.48-4.32-19.66-9.12-25.79-12-45.62-.72l-1.63.93a24,24,0,0,1,5.45-.22c5.44.68,6.86,3.75,10.19,2.88s2.4-6.75,6.08-6,2.56,4.09,6.48,4.72.16-3.83,5.79-1.49,11.13,5.49,19.72,5a3.15,3.15,0,0,0,2-.72"/><path class="cls-23" d="M92.17,364.24l-.1,2,90.4-.36c0-.78,0-1.4,0-1.8,0-6.7-81.77-5.61-90.29.17"/><rect class="cls-5" x="101.48" y="372.65" width="16.97" height="16.97"/><rect class="cls-5" x="127.94" y="372.66" width="16.97" height="16.97"/><rect class="cls-5" x="154.4" y="372.67" width="16.97" height="16.97"/><rect class="cls-5" x="101.47" y="399.87" width="16.97" height="16.97"/><rect class="cls-5" x="127.93" y="399.88" width="16.97" height="16.97"/><rect class="cls-5" x="154.39" y="399.88" width="16.97" height="16.97"/><path class="cls-24" d="M340.42,361.17s89-43.08,93.84-46,30.51-16.92,34.9-16.88,12.66,2.94,16.7,4.12,16.08.87,18,6.29,5.35,9.1-27.36,23.17-54.61,22.38-54.61,22.38L405.77,358s-61.57,21.67-65.83,22.81-4.1-9.63-13.76-11.51-14.38-11-6.36-11.92,13.79,1.54,20.6,3.79"/><path class="cls-25" d="M473.8,299c3.54.78,7.6,2.09,10.51,3-4.69,2.33-12.07,6-14.91,6.51-3.72.72-6.41-2.35-6.08-3.92.22-1,6.44-3.86,10.48-5.58"/><path class="cls-26" d="M411.35,347.3s-8.71,19.38-10.77,23.14-6.51,11.38-7.18,14.21,9,.79,11.8-1.89,22.81-25,26.89-33.83,8.48-13.7-20.74-1.63"/><path class="cls-26" d="M411.07,326.83,392,336.17s-16.3-1.56-17.94-2.34-1.12-2,2.64-3.23,7.46-3.86,8.1-4.13,20.37-.62,26.29.36"/><path class="cls-25" d="M444.61,318.89c-.62-.86-1.42-1.71-1.68-2-.51-.65-5.73,2.09-6.68,3.13s1,3.8,2.49,4c.15,0,8.19-1.83,5.87-5.07"/><path class="cls-25" d="M431.27,325c-.5-.62-1-1.17-1.2-1.42-.51-.66-5.73,2.09-6.68,3.13s1,3.8,2.48,4c.29,0,8.68-1.62,5.4-5.68"/><path class="cls-25" d="M418.39,331.68c-.5-.61-1-1.14-1.19-1.39-.5-.66-5.73,2.09-6.68,3.13s1,3.8,2.49,4c.3,0,8.69-1.62,5.38-5.71"/><path class="cls-25" d="M405.8,338.75c-.57-.75-1.23-1.45-1.46-1.75-.51-.65-5.73,2.1-6.68,3.14s1,3.8,2.49,4c.19,0,8.44-1.72,5.65-5.36"/><path class="cls-25" d="M392.89,345.4c-.57-.73-1.19-1.39-1.41-1.68-.51-.65-5.73,2.09-6.68,3.13s1,3.8,2.49,4c.2,0,8.49-1.7,5.6-5.43"/><path class="cls-3" d="M517.13,408.83s7.57-6.4,12.12-4.61,9.82,1.09,12.35-.27,3.71-8.7,9.18-8.1,4.33,2.41,8.4,3.44,6.15-.7,6.77-3,9.13.78,12.71,2.72c0,0-1.85-15.94-35.73-16.59A29.78,29.78,0,0,0,524.55,390s2.45-3.49,3-5.64-.56-5.13,1.59-5.81,4.07.54,5.41-.13,6.84-5.44,7.36-8.43-3.1-2.77-.95-5.93,7-2.86,8.21-5.55.7-5.78,3.34-7.45,8.17-7.63,8.17-7.63-33.45-1.89-46.72,40.24c0,0-8.84-46.14-59.9-14.15,0,0,7.86,1.46,14,.56s-.15,2,4.88,4.23,17.4-1.52,20.4,2.33-1.48,3,4,3.58,13.78,4.11,14.64,14.51c0,0-9-8-14.93-10.62s-19.15-1.49-23.39-1.49-16.93,2-23.2,9.09l-4.65,5.16s15.82-.58,19.79-.21,3.11,3.5,5.46,3.24,19.91.21,21.41-.45,3.64-.38,6.43,3.17,10,2,10.47,1.87,1.9,3.77,7.81,4.3"/><path class="cls-27" d="M446.52,396.06l-.76.85,3-.1c6.82-2.89,21.46-7.8,37.36-5l.27-1.57c-17.67-3.15-33.83,3-39.88,5.79"/><path class="cls-27" d="M488,390.87s9.19,1.18,15.17,4.56l-.79,1.39c-5.7-3.23-14.58-4.37-14.6-4.37Z"/><path class="cls-27" d="M506.56,398.38s2.7,1.71,3.07,2.4l-1.41.75a25.68,25.68,0,0,0-2.54-1.83Z"/><path class="cls-27" d="M463.14,364.44c-1.05.51-2.13,1.08-3.21,1.67,7.63-.24,17.32-.34,22.24.49l.26-1.57c-4.33-.73-12.24-.76-19.29-.59"/><path class="cls-27" d="M485.47,365.47A55.15,55.15,0,0,1,504,372l-.8,1.38A53.52,53.52,0,0,0,485.25,367Z"/><path class="cls-27" d="M554.25,349.76c1-.81,2-1.8,3-2.75-5.83,1.92-17.71,6.71-23.72,15.2l1.29.91c4.75-6.7,13.41-11,19.47-13.36"/><path class="cls-27" d="M531.62,366.5s-8.77,10-15.44,28l-1.49-.55c6.78-18.31,15.7-28.46,15.73-28.49Z"/><path class="cls-27" d="M551.76,383l-1.49-.16c-4.54,1.62-19.87,7.62-27.53,17.5l1.26,1c8.74-11.27,29.7-18,29.76-18.05Z"/><path class="cls-27" d="M512.64,407.49a10.2,10.2,0,0,0,1.62.74c-.4-11.57-3.77-13.9-3.78-13.9l-1,1.27s2.66,1.82,3.11,11.89"/><path class="cls-28" d="M511.05,404a6.14,6.14,0,1,1-6.69,5.54,6.14,6.14,0,0,1,6.69-5.54"/><path class="cls-28" d="M521.51,405.93a6.13,6.13,0,1,1-6.69,5.53,6.13,6.13,0,0,1,6.69-5.53"/><path class="cls-29" d="M516.66,409.47a5.63,5.63,0,0,1,0,.71,6.35,6.35,0,0,1-6.72,5.95,6,6,0,0,1-1.48-.34,7.23,7.23,0,0,1,8-6.34Z"/><path class="cls-29" d="M523,417.77a5.79,5.79,0,0,1-2.66.37,6.36,6.36,0,0,1-5.49-7.1,7.1,7.1,0,0,1,.35-1.61,7,7,0,0,1,1.21,0,7.22,7.22,0,0,1,6.67,7.75,5.58,5.58,0,0,1-.08.57"/><path class="cls-28" d="M516.56,409.33a6.56,6.56,0,0,1,0,1.33,6.14,6.14,0,0,1-6.69,5.53,6,6,0,0,1-.72-.11c0-.26,0-.51,0-.78a6.63,6.63,0,0,1,7.24-6Z"/><path class="cls-28" d="M522.1,418.06a6,6,0,0,1-1.75.08,6.13,6.13,0,0,1-5.53-6.68,6.21,6.21,0,0,1,.62-2.16,6.71,6.71,0,0,1,1,0,6.64,6.64,0,0,1,6,7.23,6.75,6.75,0,0,1-.32,1.51"/><path class="cls-28" d="M516.61,410.12c0,.18,0,.36,0,.54a6.14,6.14,0,0,1-6.69,5.53,4.81,4.81,0,0,1-.76-.12h0a6.63,6.63,0,0,1,7.23-6Z"/><path class="cls-28" d="M522.24,418a6,6,0,0,1-1.89.11,6.13,6.13,0,0,1-5.53-6.68,6.66,6.66,0,0,1,.29-1.37,6.53,6.53,0,0,1,1.25,0,6.63,6.63,0,0,1,6,7.23,5.52,5.52,0,0,1-.1.71"/><path class="cls-28" d="M516.42,409.45a6.14,6.14,0,1,1-6.69,5.53,6.13,6.13,0,0,1,6.69-5.53"/><rect class="cls-30" x="87.15" y="354.15" width="99.94" height="9.27"/><rect class="cls-4" x="87.15" y="354.64" width="99.94" height="3.98"/><rect class="cls-31" x="81.26" y="337.91" width="111.73" height="18.53"/><rect class="cls-5" x="91.58" y="363.42" width="91.08" height="2.62"/><path class="cls-32" d="M238.27,376.34l15.83-.7a.71.71,0,0,1,.75.91L251.15,395a1.27,1.27,0,0,1-1.13,1l-15.83.71a.71.71,0,0,1-.75-.91l3.69-18.42a1.32,1.32,0,0,1,1.14-1"/><path class="cls-26" d="M238.2,376.35l11.22-.5a.71.71,0,0,1,.75.91l-3.69,18.42a1.3,1.3,0,0,1-1.14,1l-11.22.5a.72.72,0,0,1-.75-.91l3.7-18.42a1.27,1.27,0,0,1,1.13-1"/><path class="cls-32" d="M240.16,376.26c2.91-.13,5.19,2.63,5.1,6.18s-2.53,6.52-5.45,6.65-5.19-2.64-5.1-6.18,2.53-6.52,5.45-6.65"/><path class="cls-33" d="M238.36,376.34c2.92-.13,5.2,2.64,5.11,6.18s-2.54,6.52-5.45,6.65-5.2-2.64-5.1-6.18,2.53-6.52,5.44-6.65"/><path class="cls-34" d="M228.55,217.3c25.54-2-20.61-11.76-31.39-12.61,0,0-2.45-29.87-24.83-17.21-4.48-42.34-36.76-26.78-39,6.14,0,0-17.69-6-29.45,7.71,0,0-29.9,3.28-35,10.43-6.77,9.5,137.09,7.3,159.64,5.54"/><path class="cls-35" d="M363.83,269.19a.75.75,0,0,0,1.1,1l1-1.08a.75.75,0,0,0-1.08-1Zm-3,3.38a.75.75,0,0,0,1.14,1l1-1.12a.74.74,0,1,0-1.12-1ZM358,276.05a.75.75,0,0,0,1.17.93l.93-1.16a.75.75,0,0,0-1.16-.94Zm-2.72,3.59a.74.74,0,0,0,1.2.88l.88-1.19a.75.75,0,0,0-1.19-.9C355.87,278.83,355.57,279.23,355.28,279.64Zm-2.6,3.67a.75.75,0,0,0,1.24.84l.83-1.22a.74.74,0,0,0-1.22-.85Zm-2.46,3.77a.75.75,0,0,0,1.26.8l.79-1.25a.74.74,0,0,0-1.24-.82C350.75,286.23,350.48,286.66,350.22,287.08Zm-2.33,3.85a.75.75,0,0,0,1.29.75l.75-1.27a.75.75,0,0,0-1.28-.77Zm-2.18,3.94a.75.75,0,0,0,1.32.7l.7-1.3a.75.75,0,0,0-1.31-.72Zm-2,4a.74.74,0,0,0,1.34.65l.65-1.33a.74.74,0,0,0-1.33-.67ZM341.8,303a.75.75,0,0,0,1.27.76.59.59,0,0,0,.1-.17l.6-1.35a.75.75,0,0,0-1.36-.62C342.2,302.07,342,302.53,341.8,303Zm-1.7,4.17a.75.75,0,0,0,1.39.54l.54-1.38a.74.74,0,0,0-1.38-.56Zm-1.53,4.24a.74.74,0,0,0,1.41.48l.48-1.4a.74.74,0,0,0-1.4-.5C338.89,310.45,338.73,310.92,338.57,311.4Zm-1.34,4.3a.75.75,0,0,0,1.43.42l.42-1.42a.75.75,0,0,0-1.43-.44Zm-1.15,4.36a.75.75,0,0,0,1.45.35l.35-1.43a.74.74,0,0,0-1.44-.38C336.31,319.09,336.19,319.57,336.08,320.06Zm-.95,4.41a.75.75,0,0,0,1.47.28c.09-.48.18-1,.28-1.45a.75.75,0,0,0-1.46-.31C335.32,323.48,335.23,324,335.13,324.47Zm-.73,4.45a.74.74,0,0,0,1.47.21c.07-.48.15-1,.22-1.46a.74.74,0,0,0-1.47-.24C334.54,327.93,334.47,328.42,334.4,328.92Zm-.52,4.48a.75.75,0,0,0,1.49.14c0-.49.09-1,.14-1.47a.74.74,0,0,0-1.48-.17C334,332.4,333.92,332.9,333.88,333.4Zm-.3,4.51a.75.75,0,0,0,1.5.06c0-.49,0-1,.07-1.48a.75.75,0,0,0-1.49-.09C333.63,336.9,333.6,337.41,333.58,337.91Zm-.06,4.5a.75.75,0,0,0,1.49,0c0-.49,0-1,0-1.48a.75.75,0,0,0-1.5,0C333.51,341.41,333.51,341.91,333.52,342.41Zm.15,4.52a.75.75,0,0,0,1.49-.09c0-.49-.05-1-.07-1.48a.75.75,0,0,0-1.49.06C333.62,345.92,333.64,346.43,333.67,346.93Zm.39,4.49a.74.74,0,0,0,1.48-.16l-.15-1.47a.74.74,0,0,0-1.48.13C334,350.42,334,350.92,334.06,351.42Zm.61,4.47a.75.75,0,0,0,1.48-.23c-.08-.49-.16-1-.23-1.46a.75.75,0,0,0-1.48.2C334.51,354.9,334.59,355.39,334.67,355.89Zm.83,4.43A.75.75,0,0,0,337,360l-.29-1.45a.75.75,0,0,0-1.47.28Zm1.05,4.39a.74.74,0,0,0,1.44-.37l-.36-1.44a.75.75,0,0,0-1.45.36ZM337.8,369a.75.75,0,0,0,1.43-.44l-.44-1.42a.75.75,0,0,0-1.43.43Zm1.45,4.27a.74.74,0,0,0,1.4-.5c-.17-.46-.33-.93-.49-1.39a.74.74,0,0,0-1.41.48C338.91,372.37,339.08,372.84,339.25,373.31Zm1.64,4.2a.74.74,0,0,0,1.38-.56l-.56-1.38a.75.75,0,0,0-1.39.55Zm1.81,4.13a.75.75,0,0,0,1.36-.63c-.21-.44-.42-.89-.62-1.34a.74.74,0,0,0-1.36.6C342.28,380.73,342.49,381.18,342.7,381.64Zm2,4A.74.74,0,0,0,346,385l-.67-1.33a.75.75,0,0,0-1.34.66Zm2.13,4a.75.75,0,0,0,1.31-.72l-.72-1.3a.75.75,0,0,0-1.31.71Zm2.29,3.89a.75.75,0,0,0,1.27-.78l-.76-1.27a.75.75,0,0,0-1.29.76Zm2.42,3.79a.74.74,0,0,0,1.24-.82l-.8-1.24a.75.75,0,0,0-1.26.8C351,396.48,351.25,396.91,351.53,397.32Zm2.54,3.71a.75.75,0,0,0,1.22-.86l-.85-1.21a.74.74,0,0,0-1.23.84Zm2.66,3.63a.75.75,0,0,0,1.2-.9l-.89-1.19a.75.75,0,0,0-1.2.89Zm2.77,3.54a.75.75,0,0,0,1.17-.93l-.93-1.16a.74.74,0,0,0-1.17.92Zm2.87,3.46a.75.75,0,0,0,1.14-1l-1-1.13a.75.75,0,0,0-1.15.95Zm3,3.39a.75.75,0,0,0,1.12-1l-1-1.11a.75.75,0,0,0-1.12,1Zm3.05,3.3a.75.75,0,0,0,1.09-1l-1-1.09a.75.75,0,0,0-1.1,1Zm3.12,3.23a.75.75,0,0,0,1.07-1.05l-1.05-1.06a.75.75,0,0,0-1.07,1ZM369.06,266a.75.75,0,0,0-1-1.11c-.37.32-.75.71-1.1,1.05A.75.75,0,0,0,368,267C368.35,266.66,368.7,266.33,369.06,266Z"/><path class="cls-34" d="M512.06,216.92c23.15-1.48,6.2-9.82-3.58-10.5,0,0-2.36-17.36-22.68-7.68-6.14-18.79-35.18-8.57-35.35,4.63,0,0-15.79-10.24-26.5.28,0,0-11.93,1.33-16.56,6.81-6.16,7.29,84.22,7.77,104.67,6.46"/></g></g></svg>