<svg xmlns="http://www.w3.org/2000/svg" xmlns:xlink="http://www.w3.org/1999/xlink" viewBox="0 0 90.64 90.64"><defs><style>.cls-1{fill:#fff;}.cls-2{fill:url(#Degradado_sin_nombre_34);}.cls-3{fill:url(#Degradado_sin_nombre_34-2);}</style><linearGradient id="Degradado_sin_nombre_34" y1="45.32" x2="90.64" y2="45.32" gradientUnits="userSpaceOnUse"><stop offset="0" stop-color="#00dd8a"/><stop offset="0.48" stop-color="#00d088"/><stop offset="1" stop-color="#00bd85"/></linearGradient><linearGradient id="Degradado_sin_nombre_34-2" x1="21.07" y1="45.32" x2="69.57" y2="45.32" xlink:href="#Degradado_sin_nombre_34"/></defs><title>ICONO WHATSAPP</title><g id="Capa_2" data-name="Capa 2"><g id="Capa_1-2" data-name="Capa 1"><path class="cls-1" d="M45.32,3.37a41.91,41.91,0,0,0-33,67.74L9.48,85.55l13.62-4.7A41.93,41.93,0,1,0,45.32,3.37Z"/><path class="cls-2" d="M45.32,90.64a45.06,45.06,0,0,1-22.6-6.09L5.06,90.64l3.63-18.7A44.81,44.81,0,0,1,0,45.32,45.32,45.32,0,1,1,45.32,90.64ZM23.53,77.14,24.9,78a38.66,38.66,0,1,0-10-9l.94,1.21-2,10.22Z"/><path class="cls-3" d="M22.44,27.91S25.1,23.26,27.27,23s5-.26,5.71,1.15,4.11,9.66,4.11,9.66a3.24,3.24,0,0,1-.3,2.79A28,28,0,0,1,33.91,40a2.45,2.45,0,0,0,0,2.92,52.88,52.88,0,0,0,6.38,7.82c3.54,3.55,10.35,6.08,10.35,6.08a2.11,2.11,0,0,0,1.6-.48c.62-.62,4-4.83,4-4.83a2.36,2.36,0,0,1,2.88-.57c1.79.81,9.56,4.69,9.56,4.69a1.68,1.68,0,0,1,.91,1.7c0,1.37-.56,4.73-1.69,5.87s-4.46,4.63-9.45,4.63-16.87-4.06-23.2-10.39S23.28,44.64,22,38.8,20.81,30.31,22.44,27.91Z"/></g></g></svg>