<svg xmlns="http://www.w3.org/2000/svg" viewBox="0 0 879.84 367.34"><defs><style>.cls-1{fill:#fff;}</style></defs><g id="Capa_2" data-name="Capa 2"><g id="Capa_1-2" data-name="Capa 1"><g id="Pin_and_Line" data-name="Pin and Line"><g id="Line"><g id="Group_5" data-name="Group 5"><path id="Path_27" data-name="Path 27" class="cls-1" d="M40.93,231.22c0-.13-.56-3.35-1.21-9l3.61-.12c.64,5.61,1.18,8.88,1.19,8.91Z"/></g><g id="Group_6" data-name="Group 6"><path id="Path_28" data-name="Path 28" class="cls-1" d="M38.21,204.34c-.35-5.9-.53-11.9-.57-17.83l3.62.15c0,5.89.23,11.84.57,17.71Zm839.4,87.37-3.59-.56c.18-1.08.34-2.19.51-3.32.67-4.72,1.17-9.48,1.47-14.14l3.62.32c-.3,4.72-.81,9.55-1.5,14.33-.16,1.15-.33,2.27-.5,3.37ZM38,168.72c.28-6,.74-11.95,1.35-17.71l3.61.42c-.61,5.72-1.06,11.63-1.33,17.58Zm838.23,87.35a144.49,144.49,0,0,0-1.8-17.62l3.59-.24a145.46,145.46,0,0,1,1.83,17.92ZM45.37,134l-3.59-.58c1-6,2.28-11.82,3.69-17.41l3.55.77c-1.4,5.53-2.63,11.32-3.65,17.22Zm824.89,87a111.86,111.86,0,0,0-6.9-16.87l3.34-1a115,115,0,0,1,7.07,17.3ZM54.12,99.89l-3.49-1a169.83,169.83,0,0,1,6.86-16.65l3.37,1.24a169.46,169.46,0,0,0-6.75,16.39Zm799.3,88.41a107,107,0,0,0-13-14.29l2.63-1.94a111.19,111.19,0,0,1,13.45,14.74ZM69.55,67.85l-3.22-1.52A128.11,128.11,0,0,1,77.48,51.46l3,1.84A125.64,125.64,0,0,0,69.55,67.85Zm755,94A142.4,142.4,0,0,0,806.44,152l1.61-2.61a147.43,147.43,0,0,1,18.6,10.14Zm-37.68-17.37c-6.46-2.06-13.37-3.88-20.52-5.41l.73-2.9c7.28,1.56,14.33,3.42,20.93,5.52Zm-41.61-9.19c-7.3-1.25-14.45-2.57-21.23-3.93l.66-2.91c6.74,1.35,13.84,2.67,21.11,3.91ZM93.79,40.33l-2.63-2.18A116,116,0,0,1,107.42,27l2.16,2.5a112.32,112.32,0,0,0-15.8,10.86ZM702.9,126.69c-7.28-1.75-14.3-3.6-20.86-5.5l1-2.82c6.49,1.88,13.44,3.72,20.66,5.44ZM498.6,94l.37-3c7.1.94,14.26,1.71,21.3,2.31l-.16,3C513,95.69,505.76,94.91,498.6,94Zm-21.38-3.32c-7-1.24-14.08-2.66-21.2-4.23l.75-2.9c7.06,1.57,14.12,3,21,4.21Zm64.47,7-.05-3c7.08.25,14.26.34,21.35.25l.26,3c-7.16.09-14.41,0-21.56-.25Zm119.87,17c-7.16-2.59-13.82-5.34-19.79-8.17l1.67-2.58c5.85,2.77,12.38,5.47,19.42,8ZM435.05,81.33c-6.72-1.76-13.69-3.71-20.73-5.8l1.05-2.81c7,2.07,13.92,4,20.59,5.76ZM584.72,97.06l-.46-3c7-.43,14.08-1,21.11-1.77l.66,3c-7.1.76-14.27,1.36-21.31,1.78ZM393.82,69.14c-6.43-2.1-13.07-4.34-20.3-6.85l1.25-2.76C382,62,388.58,64.27,395,66.36ZM623.32,96a75.49,75.49,0,0,1-15.46-13.52l2.93-1.62a72,72,0,0,0,14.73,12.87ZM353.39,55.12q-8.65-3.12-17.14-6.24l-2.91-1.07,1.31-2.73,2.91,1.07,17.12,6.24ZM127.58,21.2,126,18.45a140.21,140.21,0,0,1,20.24-5.63l1,2.92a135.56,135.56,0,0,0-19.67,5.46ZM627.12,92.57l-.83-2.95c7.22-1.07,14.16-2.28,20.64-3.59L648,89C641.43,90.27,634.42,91.49,627.12,92.57Zm-313.84-52c-7.53-2.7-14.11-5-20.13-7l1.21-2.77c6,2,12.65,4.35,20.2,7.06ZM167.94,12.78l-.59-3A210.21,210.21,0,0,1,188.94,9l.13,3A204,204,0,0,0,167.94,12.78ZM668.42,84.12l-1.32-2.85a193.51,193.51,0,0,0,19.33-6.4l1.71,2.72a196.13,196.13,0,0,1-19.72,6.52ZM272.85,27c-7.25-2.2-14-4.09-20.55-5.77l.89-2.86c6.64,1.7,13.43,3.6,20.75,5.83ZM231.44,16.56c-7.18-1.36-14.26-2.44-21.12-3.18l.28-3c7,.76,14.16,1.85,21.45,3.23ZM599,65.41a32.87,32.87,0,0,1-.41-11.74,38.17,38.17,0,0,1,1.52-6.42l3.5.94a35.14,35.14,0,0,0-1.42,6A30.45,30.45,0,0,0,602.56,65ZM706.37,68.6l-2.29-2.42a50,50,0,0,0,13.81-12.12L721,55.73a53.29,53.29,0,0,1-14.64,12.86ZM612.12,32.84,609,31.12a98.28,98.28,0,0,1,13.2-13.7l2.69,2.13a94.46,94.46,0,0,0-12.8,13.27Zm110.73,5.41a27.62,27.62,0,0,0-7.49-15.76l2.87-1.69a30.37,30.37,0,0,1,8.23,17.41ZM640.32,8.47l-2-2.57A58,58,0,0,1,658.74,0l.66,3a54.17,54.17,0,0,0-19.08,5.49Zm59.32,2.27A75.16,75.16,0,0,0,680.1,4l.65-2.91a79.11,79.11,0,0,1,20.67,7.13Z"/></g><g id="Group_7" data-name="Group 7"><path id="Path_29" data-name="Path 29" class="cls-1" d="M868,328l-3.48-1s4.32-12.73,5.73-18.05l3.54.8C872.34,315.17,868,327.86,868,328Z"/></g></g><path id="Pin_1" data-name="Pin 1" class="cls-1" d="M78,296.38a39,39,0,1,0-64.11,28.45l10.16,19.11,12.46,23.4,14-22.49L62,326.5A38.89,38.89,0,0,0,78,296.38ZM39.61,277.81a17.23,17.23,0,1,1-17.82,16.62h0a17.23,17.23,0,0,1,17.82-16.62Z"/></g></g></g></svg>