<svg xmlns="http://www.w3.org/2000/svg" xmlns:xlink="http://www.w3.org/1999/xlink" viewBox="0 0 1891 788"><defs><style>.cls-1{fill:url(#Degradado_sin_nombre_6);}.cls-2{fill:none;stroke:#f0f0f0;stroke-miterlimit:10;stroke-width:6px;stroke-dasharray:0 0 33 0 0;}</style><linearGradient id="Degradado_sin_nombre_6" y1="394" x2="1891" y2="394" gradientUnits="userSpaceOnUse"><stop offset="0" stop-color="#ff9657"/><stop offset="1" stop-color="#ffb55b"/></linearGradient></defs><g id="Capa_2" data-name="Capa 2"><g id="Capa_1-2" data-name="Capa 1"><path class="cls-1" d="M1368.53,788H1347.9c-62,0-120.58-21.39-165.09-60.24a216.26,216.26,0,0,1-53-68.82A200,200,0,0,1,1109.57,571V217c0-29.88-14-58.58-39.54-80.83C1041.83,111.56,1003.77,98,962.87,98s-79,13.56-107.16,38.17c-25.5,22.25-39.54,51-39.54,80.83V571a200,200,0,0,1-20.27,87.94,216.37,216.37,0,0,1-53,68.82C698.42,766.61,639.79,788,577.84,788H557.22c-62,0-120.58-21.39-165.1-60.24a216.55,216.55,0,0,1-53-68.82A200.16,200.16,0,0,1,318.89,571V217c0-29.88-14-58.58-39.54-80.83C251.14,111.56,213.09,98,172.19,98L5,93,0,0H172.19c61.94,0,120.57,21.39,165.09,60.24a216.26,216.26,0,0,1,53,68.82A200,200,0,0,1,410.52,217V571c0,29.88,14,58.58,39.53,80.83C478.26,676.44,516.32,690,557.22,690h20.62c40.9,0,79-13.56,107.17-38.17,25.49-22.25,39.53-51,39.53-80.83V217a200,200,0,0,1,20.27-87.94,216.26,216.26,0,0,1,53-68.82C842.29,21.39,900.92,0,962.87,0S1083.45,21.39,1128,60.24a216.26,216.26,0,0,1,53,68.82A200,200,0,0,1,1201.2,217V571c0,29.88,14,58.58,39.54,80.83C1268.94,676.44,1307,690,1347.9,690h20.63c40.89,0,79-13.56,107.16-38.17,25.49-22.25,39.53-51,39.53-80.83V217a200,200,0,0,1,20.27-87.94,216.55,216.55,0,0,1,53-68.82C1633,21.39,1691.61,0,1753.56,0L1883,7l8,89-137.44,2c-40.9,0-79,13.56-107.17,38.17-25.49,22.25-39.53,51-39.53,80.83V571a200,200,0,0,1-20.27,87.94,216.41,216.41,0,0,1-53,68.82C1489.1,766.61,1430.47,788,1368.53,788Z"/><path class="cls-2" d="M12,52l118-4h29c107.63,0,194.88,75.22,194.88,168V570c0,92.78,87.26,168,194.89,168h20.88c107.63,0,194.89-75.22,194.89-168V216c0-92.78,87.25-168,194.88-168h0c107.63,0,194.89,75.22,194.89,168V570c0,92.78,87.25,168,194.88,168h20.88C1477.75,738,1565,662.78,1565,570V216c0-92.78,87.25-168,194.89-168h0l89.65,5"/></g></g></svg>