<svg xmlns="http://www.w3.org/2000/svg" xmlns:xlink="http://www.w3.org/1999/xlink" viewBox="0 0 258 258"><defs><style>.cls-1{fill:#fff;}.cls-2{fill:#ebebeb;}.cls-3{fill:#65b3f0;}.cls-4{fill:#76c6ef;}.cls-5{fill:#33284d;}.cls-6{fill:url(#Degradado_sin_nombre_6);}.cls-7{fill:#9c9aaa;}.cls-8{fill:#b5b3c3;}.cls-9{fill:url(#Degradado_sin_nombre_6-2);}.cls-10{fill:url(#Degradado_sin_nombre_12);}.cls-11{fill:url(#Degradado_sin_nombre_34);}.cls-12{fill:url(#Degradado_sin_nombre_34-2);}.cls-13{fill:url(#Degradado_sin_nombre_34-3);}.cls-14{fill:url(#Degradado_sin_nombre_34-4);}.cls-15{fill:url(#Degradado_sin_nombre_6-3);}.cls-16{fill:url(#Degradado_sin_nombre_12-2);}.cls-17{fill:url(#Degradado_sin_nombre_12-3);}</style><linearGradient id="Degradado_sin_nombre_6" x1="60.59" y1="58.64" x2="134.86" y2="58.64" gradientUnits="userSpaceOnUse"><stop offset="0" stop-color="#ff9657"/><stop offset="1" stop-color="#ffb55b"/></linearGradient><linearGradient id="Degradado_sin_nombre_6-2" x1="155.54" y1="162.09" x2="191.16" y2="162.09" xlink:href="#Degradado_sin_nombre_6"/><linearGradient id="Degradado_sin_nombre_12" x1="164.09" y1="162.86" x2="191.16" y2="162.86" gradientUnits="userSpaceOnUse"><stop offset="0.01" stop-color="#ff6357"/><stop offset="1" stop-color="#ffb55b"/></linearGradient><linearGradient id="Degradado_sin_nombre_34" x1="183.94" y1="132.51" x2="239.97" y2="132.51" gradientUnits="userSpaceOnUse"><stop offset="0" stop-color="#62dd8e"/><stop offset="0.48" stop-color="#5dd08c"/><stop offset="1" stop-color="#56bd88"/></linearGradient><linearGradient id="Degradado_sin_nombre_34-2" x1="183.94" y1="111.08" x2="236.93" y2="111.08" xlink:href="#Degradado_sin_nombre_34"/><linearGradient id="Degradado_sin_nombre_34-3" x1="130.87" y1="128.01" x2="183.94" y2="128.01" xlink:href="#Degradado_sin_nombre_34"/><linearGradient id="Degradado_sin_nombre_34-4" x1="139.81" y1="110.45" x2="183.95" y2="110.45" xlink:href="#Degradado_sin_nombre_34"/><linearGradient id="Degradado_sin_nombre_6-3" x1="57.32" y1="127.11" x2="119.81" y2="127.11" xlink:href="#Degradado_sin_nombre_6"/><linearGradient id="Degradado_sin_nombre_12-2" x1="83.19" y1="123.76" x2="119.81" y2="123.76" xlink:href="#Degradado_sin_nombre_12"/><linearGradient id="Degradado_sin_nombre_12-3" x1="80.14" y1="58.64" x2="115.32" y2="58.64" xlink:href="#Degradado_sin_nombre_12"/></defs><g id="Capa_2" data-name="Capa 2"><g id="Capa_1-2" data-name="Capa 1"><circle class="cls-1" cx="129" cy="129" r="127.05"/><path class="cls-2" d="M129,2c-4,0-7.86.21-11.73.56a127,127,0,0,1,0,253c3.87.35,7.77.56,11.73.56A127,127,0,0,0,129,2Z"/><path class="cls-3" d="M192.51,156.36c-15.89,0-15.89,7.82-31.77,7.82s-15.88-7.82-31.76-7.82-15.88,7.82-31.75,7.82-15.88-7.82-31.76-7.82-15.88,7.82-31.76,7.82c-14.8,0-15.82-6.78-28.74-7.71a127,127,0,0,0,248.06,0c-12.93.93-13.95,7.71-28.75,7.71C208.39,164.18,208.39,156.36,192.51,156.36Z"/><path class="cls-4" d="M34.29,164.16l-.58,0c-14.8,0-15.82-6.78-28.74-7.71a126.73,126.73,0,0,0,137.65,98.82A127.11,127.11,0,0,1,34.29,164.16Z"/><path class="cls-5" d="M69.05,243a1.9,1.9,0,0,1-.92-.23A129,129,0,0,1,35.91,39.69a2,2,0,1,1,2.83,2.71A125.12,125.12,0,0,0,70,239.32a2,2,0,0,1-.92,3.67Z"/><path class="cls-5" d="M129,258a128.37,128.37,0,0,1-49-9.65,2,2,0,0,1,1.49-3.62A125.11,125.11,0,1,0,47,34.53a2,2,0,1,1-2.56-3A129,129,0,1,1,129,258Z"/><path class="cls-6" d="M115.16,65.86c2-4.84,19.7-7.22,19.7-7.22s-17.66-2.39-19.7-7.22c-2-4.66,8.26-18.47,8.26-18.47S109.61,43.17,105,41.21c-4.84-2.05-7.22-19.71-7.22-19.71s-2.39,17.66-7.22,19.71C85.85,43.17,72,33,72,33S82.26,46.76,80.3,51.42c-2,4.83-19.71,7.22-19.71,7.22S78.26,61,80.3,65.86c2,4.66-8.26,18.46-8.26,18.46S85.85,74.1,90.51,76.07c4.83,2,7.22,19.7,7.22,19.7s2.38-17.66,7.22-19.7c4.66-2,18.47,8.25,18.47,8.25S113.19,70.52,115.16,65.86Z"/><path class="cls-5" d="M97.73,97.73A2,2,0,0,1,95.79,96c-1.08-8-3.77-17.2-6-18.16s-10.31,3.41-16.55,8a2,2,0,0,1-2.73-2.73c4.62-6.24,8.94-14.37,8-16.54s-10.17-5-18.17-6.05a2,2,0,0,1,0-3.87c8-1.08,17.21-3.77,18.17-6s-3.41-10.31-8-16.55a2,2,0,0,1,2.73-2.73c6.24,4.61,14.36,9,16.55,8s5-10.16,6-18.16a2,2,0,0,1,3.87,0c1.09,8,3.77,17.2,6,18.16s10.31-3.41,16.54-8A2,2,0,0,1,125,34.11c-4.62,6.24-8.95,14.38-8,16.55s10.17,5,18.17,6a2,2,0,0,1,0,3.87c-8,1.09-17.21,3.77-18.17,6.05h0c-.92,2.17,3.41,10.3,8,16.54a2,2,0,0,1-2.74,2.73c-6.23-4.61-14.36-9-16.54-8s-5,10.17-6,18.16A2,2,0,0,1,97.73,97.73ZM89.16,73.89a5.32,5.32,0,0,1,2.11.38c3,1.28,5.11,6.38,6.46,11.4,1.34-5,3.42-10.12,6.46-11.4s8,.82,12.49,3.32c-2.5-4.44-4.59-9.5-3.32-12.49h0c1.28-3,6.38-5.12,11.4-6.46-5-1.35-10.12-3.43-11.4-6.46s.82-8.06,3.32-12.5c-4.44,2.51-9.49,4.59-12.49,3.33s-5.12-6.38-6.46-11.4c-1.35,5-3.43,10.11-6.46,11.4s-8-.82-12.5-3.33c2.51,4.44,4.59,9.5,3.33,12.5s-6.38,5.11-11.4,6.46c5,1.34,10.12,3.42,11.4,6.46s-.82,8.05-3.33,12.49C82.29,75.61,86.2,73.89,89.16,73.89Zm26-8h0Z"/><path class="cls-7" d="M190.64,49.47a6.54,6.54,0,0,0-10.1-8.07,11.81,11.81,0,1,0-23.32,3.7,9.81,9.81,0,0,0-2-.22,10,10,0,1,0,0,19.91h34a7.73,7.73,0,0,0,1.47-15.32Z"/><path class="cls-5" d="M189.17,66.75h-34a11.91,11.91,0,0,1-.12-23.82,13.77,13.77,0,0,1,26.75-4.59,8.5,8.5,0,0,1,11.64,7.91,8.9,8.9,0,0,1-.24,2,9.69,9.69,0,0,1-4,18.5Zm-34-19.91a8,8,0,0,0,0,16h34a5.78,5.78,0,0,0,1.1-11.45,2,2,0,0,1-1.33-2.88,4.5,4.5,0,0,0,.6-2.26,4.61,4.61,0,0,0-4.6-4.6,4.56,4.56,0,0,0-3.09,1.2,2,2,0,0,1-3.25-1.2A9.86,9.86,0,0,0,159,42.93a9.57,9.57,0,0,0,.18,1.81,2,2,0,0,1-.56,1.76,1.93,1.93,0,0,1-1.77.51A8.54,8.54,0,0,0,155.18,46.84Z"/><path class="cls-8" d="M177.25,63.52a6.4,6.4,0,0,1-.86-3.22,6.55,6.55,0,0,1,11-4.85A11.81,11.81,0,0,1,210.87,57a12,12,0,0,1-.21,2.17,9.83,9.83,0,0,1,2.05-.22,10,10,0,0,1,0,19.91h-34a7.73,7.73,0,0,1-1.46-15.32Z"/><path class="cls-5" d="M212.71,80.79h-34a9.68,9.68,0,0,1-4-18.49A8.5,8.5,0,0,1,183,51.79a8.34,8.34,0,0,1,3.13.6A13.76,13.76,0,0,1,212.82,57a11.91,11.91,0,0,1-.11,23.82ZM183,55.69a4.61,4.61,0,0,0-4.6,4.6,4.51,4.51,0,0,0,.6,2.27,2,2,0,0,1-1.34,2.88,5.77,5.77,0,0,0,1.1,11.44h34a8,8,0,1,0-1.64-15.82,2,2,0,0,1-2.33-2.27,9.69,9.69,0,0,0,.17-1.81,9.85,9.85,0,0,0-19.62-1.28A2,2,0,0,1,186,56.89,4.58,4.58,0,0,0,183,55.69Z"/><path class="cls-8" d="M23.41,92.87a6,6,0,0,1-.79-3A6.07,6.07,0,0,1,32.77,85.4a10.94,10.94,0,0,1,21.78,1.42,11.13,11.13,0,0,1-.19,2,9,9,0,0,1,1.89-.21,9.22,9.22,0,0,1,0,18.44H24.77a7.16,7.16,0,0,1-1.36-14.19Z"/><path class="cls-5" d="M56.25,109H24.77a9.11,9.11,0,0,1-3.9-17.35,8,8,0,0,1,7.82-9.8,8,8,0,0,1,2.82.52,12.89,12.89,0,0,1,25,4.29A11.17,11.17,0,0,1,56.25,109ZM28.69,85.77a4.12,4.12,0,0,0-4.11,4.12,4.06,4.06,0,0,0,.53,2,2,2,0,0,1,.08,1.78,1.93,1.93,0,0,1-1.41,1.1,5.2,5.2,0,0,0,1,10.31H56.25a7.26,7.26,0,1,0-1.49-14.36A2,2,0,0,1,53,90.23a2,2,0,0,1-.56-1.76,8.69,8.69,0,0,0,.16-1.65A9,9,0,0,0,34.7,85.65a2,2,0,0,1-3.25,1.2A4.06,4.06,0,0,0,28.69,85.77Z"/><path class="cls-1" d="M224.28,183.73a32.93,32.93,0,0,1-16.75-4.11,29.23,29.23,0,0,0-15-3.71,31.82,31.82,0,0,0-8.07.92,2,2,0,0,1-1-3.79,35.84,35.84,0,0,1,9-1,32.92,32.92,0,0,1,16.74,4.11,29.27,29.27,0,0,0,15,3.71,29.62,29.62,0,0,0,10.32-1.62,2,2,0,1,1,1.34,3.68A33.46,33.46,0,0,1,224.28,183.73Z"/><path class="cls-1" d="M106,182.69a2,2,0,0,1-.51-3.85,34.89,34.89,0,0,0,6.73-2.73A33,33,0,0,1,129,172a32.89,32.89,0,0,1,16.74,4.11c.94.46,1.87.92,2.86,1.35A2,2,0,1,1,147,181c-1-.45-2-.94-3-1.42a29.26,29.26,0,0,0-15-3.71,29.19,29.19,0,0,0-15,3.71,39.42,39.42,0,0,1-7.44,3A2.31,2.31,0,0,1,106,182.69Z"/><path class="cls-1" d="M33.71,183.73a33,33,0,0,1-12.17-2A2,2,0,1,1,22.93,178a28.91,28.91,0,0,0,10.78,1.79,29.26,29.26,0,0,0,15-3.71A32.89,32.89,0,0,1,65.47,172a32.92,32.92,0,0,1,16.74,4.11,37.59,37.59,0,0,0,6.14,2.57,2,2,0,0,1-1.1,3.75,41,41,0,0,1-6.76-2.81,29.26,29.26,0,0,0-15-3.71,29.2,29.2,0,0,0-15,3.71A32.92,32.92,0,0,1,33.71,183.73Z"/><path class="cls-1" d="M224.28,201.32a32.93,32.93,0,0,1-16.75-4.11,29.23,29.23,0,0,0-15-3.71,31.82,31.82,0,0,0-8.07.92,2,2,0,1,1-1-3.78,35.37,35.37,0,0,1,9-1,32.92,32.92,0,0,1,16.74,4.11,29.27,29.27,0,0,0,15,3.71,2,2,0,0,1,0,3.91Z"/><path class="cls-1" d="M33.71,201.32a2,2,0,0,1,0-3.91,29.26,29.26,0,0,0,15-3.71,32.89,32.89,0,0,1,16.74-4.11,33.87,33.87,0,0,1,10.79,1.55A2,2,0,0,1,75,194.86a30,30,0,0,0-9.57-1.36,29.2,29.2,0,0,0-15,3.71A32.92,32.92,0,0,1,33.71,201.32Z"/><path class="cls-5" d="M224.28,166.14A32.93,32.93,0,0,1,207.53,162a32.26,32.26,0,0,0-30,0A36.17,36.17,0,0,1,144,162a29.23,29.23,0,0,0-15-3.71A29.19,29.19,0,0,0,114,162a33,33,0,0,1-16.74,4.11A32.89,32.89,0,0,1,80.49,162a29.26,29.26,0,0,0-15-3.71,29.2,29.2,0,0,0-15,3.71,32.92,32.92,0,0,1-16.74,4.11A33,33,0,0,1,17,162a29,29,0,0,0-12.13-3.61,2,2,0,1,1,.28-3.9,32.88,32.88,0,0,1,13.58,4,29.2,29.2,0,0,0,15,3.71,29.26,29.26,0,0,0,15-3.71,32.89,32.89,0,0,1,16.74-4.11,32.92,32.92,0,0,1,16.74,4.11,29.2,29.2,0,0,0,15,3.71,29.19,29.19,0,0,0,15-3.71A32.92,32.92,0,0,1,129,154.41a32.89,32.89,0,0,1,16.74,4.11,32.26,32.26,0,0,0,30,0,36.17,36.17,0,0,1,33.49,0,32.3,32.3,0,0,0,30.06,0l1.52-.74a2,2,0,0,1,1.68,3.53L241,162A33,33,0,0,1,224.28,166.14Z"/><path class="cls-1" d="M160.74,236.5c-1.21,0-2.38,0-3.49-.13a2,2,0,0,1,.31-3.9c1,.08,2.08.12,3.18.12a29.2,29.2,0,0,0,15-3.71,33,33,0,0,1,16.75-4.11,2,2,0,0,1,0,3.91,29.2,29.2,0,0,0-15,3.71A33,33,0,0,1,160.74,236.5Z"/><path class="cls-1" d="M97.23,236.5a32.89,32.89,0,0,1-16.74-4.11,29.26,29.26,0,0,0-15-3.71,2,2,0,1,1,0-3.91,32.92,32.92,0,0,1,16.74,4.11,29.2,29.2,0,0,0,15,3.71,29.19,29.19,0,0,0,15-3.71A32.92,32.92,0,0,1,129,224.77a33,33,0,0,1,16.75,4.11l1.23.6a2,2,0,0,1-1.7,3.53l-1.26-.62a29.23,29.23,0,0,0-15-3.71,29.19,29.19,0,0,0-15,3.71A33,33,0,0,1,97.23,236.5Z"/><path class="cls-9" d="M155.54,193.6s-1-43.62,28-68l7.62,3s-20,28.51-16.26,70.09Z"/><path class="cls-10" d="M164.11,195.82s-1.32-44.22,23.41-68.71l3.64,1.41s-20,28.51-16.26,70.09Z"/><path class="cls-5" d="M174.9,200.57a2.05,2.05,0,0,1-.49-.06l-19.36-5a2,2,0,0,1-1.46-1.85c0-1.82-.73-44.85,28.69-69.59a2,2,0,0,1,2-.32l7.61,3a1.95,1.95,0,0,1,.9,2.94c-.2.28-19.53,28.46-15.91,68.8a2,2,0,0,1-.69,1.67A1.94,1.94,0,0,1,174.9,200.57Zm-17.39-8.48L172.74,196c-2.3-34.52,11.07-59.4,15.47-66.56l-4.29-1.67C159.73,148.94,157.67,184.47,157.51,192.09Z"/><path class="cls-11" d="M240,147a72.45,72.45,0,0,0-22.58-12.44c-14-4.83-33.45-5.39-33.45-5.39s24.8-15.05,38.82-10.22S240,147,240,147Z"/><path class="cls-12" d="M236.93,100.76a134.92,134.92,0,0,0-25.27,8.95c-13.41,6.32-27.72,19.47-27.72,19.47s7.28-28.08,20.69-34.4S236.93,100.76,236.93,100.76Z"/><path class="cls-13" d="M183.94,129.18s-14.78-2-29.15,1.68a74.36,74.36,0,0,0-23.92,10.79s5.48-23.13,19.84-26.79S183.94,129.18,183.94,129.18Z"/><path class="cls-14" d="M183.94,129.18s-8.45-12.3-20.8-20.5a110.37,110.37,0,0,0-23.33-11.87s20.12-10.08,32.47-1.88S183.94,129.18,183.94,129.18Z"/><path class="cls-5" d="M240,149a2,2,0,0,1-1.3-.49,71.16,71.16,0,0,0-21.92-12.06c-13.58-4.67-32.68-5.27-32.87-5.28a1.95,1.95,0,0,1-.95-3.62c1-.64,25.76-15.47,40.47-10.4,15,5.16,18.37,28.63,18.5,29.63a1.94,1.94,0,0,1-1,2A2,2,0,0,1,240,149Zm-49.09-21.31c7,.58,18.09,1.95,27.14,5.07a78.85,78.85,0,0,1,19,9.55c-1.75-6.78-6-18.4-14.85-21.46S198.87,123.65,190.88,127.65Z"/><path class="cls-5" d="M183.94,131.13a2,2,0,0,1-1-.27,2,2,0,0,1-.88-2.17c.3-1.18,7.67-29,21.75-35.68s33.39,5.58,34.2,6.11a2,2,0,0,1-.65,3.55,134.2,134.2,0,0,0-24.85,8.81c-13,6.11-27.1,19-27.24,19.14A1.94,1.94,0,0,1,183.94,131.13Zm29.39-36.2a18.3,18.3,0,0,0-7.87,1.62c-8.6,4-14.67,18.25-17.61,26.69,5.43-4.47,14.32-11.22,23-15.3a141.12,141.12,0,0,1,20.91-7.84C227.4,97.9,220.24,94.93,213.33,94.93Z"/><path class="cls-5" d="M130.87,143.6a2,2,0,0,1-1.08-.32,1.94,1.94,0,0,1-.82-2.08c.23-1,5.92-24.33,21.26-28.23s34.26,14,35.06,14.8a1.94,1.94,0,0,1,.41,2.25,2,2,0,0,1-2,1.1c-.15,0-14.6-1.89-28.41,1.63A72.74,72.74,0,0,0,132,143.21,2,2,0,0,1,130.87,143.6Zm24-27.28a14.61,14.61,0,0,0-3.63.44c-9.12,2.32-14.46,13.65-16.88,20.35a80.06,80.06,0,0,1,20-8.15,85.46,85.46,0,0,1,23.74-2.2C172.6,122.53,163.19,116.32,154.83,116.32Z"/><path class="cls-5" d="M183.94,131.13a2,2,0,0,1-1.61-.84c-.08-.12-8.4-12.09-20.27-20a108.54,108.54,0,0,0-22.87-11.64,2,2,0,0,1-.25-3.6c.86-.44,21.28-10.49,34.42-1.77s12.56,34.82,12.53,35.93a1.94,1.94,0,0,1-1.4,1.82A1.75,1.75,0,0,1,183.94,131.13ZM145,96.74a118.92,118.92,0,0,1,19.19,10.31,85.3,85.3,0,0,1,17.55,16.13c-.59-7.89-2.75-21.41-10.59-26.62S151.38,94.42,145,96.74Z"/><path class="cls-1" d="M69.05,209.3C81.42,210.39,82.66,217,97.23,217c15.87,0,15.87-7.81,31.75-7.81S144.86,217,160.74,217c14.59,0,15.81-6.57,28.21-7.65a87.89,87.89,0,0,0-119.9,0Z"/><path class="cls-2" d="M160.25,216.94h.49c14.59,0,15.81-6.57,28.21-7.65A87.66,87.66,0,0,0,129,185.68c-2.82,0-5.6.14-8.35.4C135.76,188.2,149.49,199.48,160.25,216.94Z"/><path class="cls-5" d="M100.33,199.7a2,2,0,0,1-1.91-1.58L81.27,111.6a2,2,0,1,1,3.83-.76l17.15,86.52a2,2,0,0,1-1.53,2.3A1.72,1.72,0,0,1,100.33,199.7Z"/><path class="cls-15" d="M57.83,143.86c-3.11-14.3,8.24-28.91,25.36-32.64s33.51,4.85,36.62,19.15Z"/><path class="cls-16" d="M88.57,137.18c-3.12-14.31,0,0-5.38-26,17.11-3.72,33.51,4.85,36.62,19.15Z"/><path class="cls-1" d="M76.65,139.77c-3.11-14.31,1.54-27.68,6.54-28.55s14,9.09,17.15,23.39Z"/><path class="cls-5" d="M57.83,145.82a2,2,0,0,1-1.91-1.54c-3.33-15.33,8.71-31,26.85-35a36.82,36.82,0,0,1,24.88,3c7.44,3.9,12.44,10.16,14.07,17.66a2,2,0,0,1-1.49,2.32l-62,13.49A2,2,0,0,1,57.83,145.82Zm33.4-33.52a35.72,35.72,0,0,0-7.63.83c-15.25,3.32-25.68,15.79-24.18,28.39l58-12.62a22.76,22.76,0,0,0-11.55-13.13A31.42,31.42,0,0,0,91.23,112.3Z"/><path class="cls-5" d="M160.74,218.91A32.92,32.92,0,0,1,144,214.8a29.23,29.23,0,0,0-15-3.71,29.19,29.19,0,0,0-15,3.71,33,33,0,0,1-16.74,4.11,33.12,33.12,0,0,1-16.76-4.1,29.32,29.32,0,0,0-11.59-3.56,2,2,0,0,1-1.16-3.38,89.85,89.85,0,0,1,122.56,0,2,2,0,0,1-1.16,3.38,29.21,29.21,0,0,0-11.61,3.56A33.19,33.19,0,0,1,160.74,218.91ZM129,207.18a32.89,32.89,0,0,1,16.74,4.11,32.36,32.36,0,0,0,30.07,0,36.23,36.23,0,0,1,8.74-3.31,85.94,85.94,0,0,0-111.06,0,36.8,36.8,0,0,1,8.72,3.31,29.42,29.42,0,0,0,15,3.7,29.19,29.19,0,0,0,15-3.71A32.92,32.92,0,0,1,129,207.18Z"/><path class="cls-5" d="M160.74,218.91A32.92,32.92,0,0,1,144,214.8a29.23,29.23,0,0,0-15-3.71,2,2,0,0,1,0-3.91,32.89,32.89,0,0,1,16.74,4.11,32.26,32.26,0,0,0,30,0,36.17,36.17,0,0,1,33.49,0,2,2,0,1,1-1.72,3.51,32.26,32.26,0,0,0-30,0A33,33,0,0,1,160.74,218.91Z"/><path class="cls-5" d="M97.23,218.91a32.89,32.89,0,0,1-16.74-4.11,29.26,29.26,0,0,0-15-3.71,29.16,29.16,0,0,0-15,3.71,2,2,0,0,1-1.73-3.51,32.92,32.92,0,0,1,16.74-4.11,32.92,32.92,0,0,1,16.74,4.11,29.2,29.2,0,0,0,15,3.71,29.19,29.19,0,0,0,15-3.71A32.92,32.92,0,0,1,129,207.18a2,2,0,1,1,0,3.91,29.19,29.19,0,0,0-15,3.71A33,33,0,0,1,97.23,218.91Z"/><path class="cls-17" d="M106,62.06c1-2.29,9.34-3.42,9.34-3.42S107,57.51,106,55.22s3.92-8.75,3.92-8.75-6.55,4.84-8.75,3.91-3.42-9.33-3.42-9.33-1.13,8.36-3.42,9.33-8.75-3.91-8.75-3.91S90.4,53,89.47,55.22s-9.33,3.42-9.33,3.42,8.36,1.13,9.33,3.42-3.91,8.74-3.91,8.74S92.1,66,94.31,66.89s3.42,9.34,3.42,9.34,1.13-8.37,3.42-9.34,8.75,3.91,8.75,3.91S105.05,64.26,106,62.06Z"/></g></g></svg>