<svg xmlns="http://www.w3.org/2000/svg" xmlns:xlink="http://www.w3.org/1999/xlink" viewBox="0 0 2654 1349.88"><defs><style>.cls-1{opacity:0.1;}.cls-2{fill:url(#Degradado_sin_nombre_32);}.cls-3{fill:url(#Degradado_sin_nombre_32-2);}.cls-4{fill:url(#Degradado_sin_nombre_32-3);}.cls-5{fill:url(#Degradado_sin_nombre_32-4);}.cls-6{fill:url(#Degradado_sin_nombre_32-5);}.cls-7{fill:url(#Degradado_sin_nombre_32-6);}.cls-8{fill:url(#Degradado_sin_nombre_32-7);}.cls-9{fill:url(#Degradado_sin_nombre_32-8);}.cls-10{fill:url(#Degradado_sin_nombre_32-9);}.cls-11{fill:url(#Degradado_sin_nombre_32-10);}.cls-12{fill:url(#Degradado_sin_nombre_32-11);}.cls-13{fill:url(#Degradado_sin_nombre_32-12);}.cls-14{fill:url(#Degradado_sin_nombre_32-13);}.cls-15{fill:url(#Degradado_sin_nombre_32-14);}.cls-16{fill:url(#Degradado_sin_nombre_32-15);}.cls-17{fill:url(#Degradado_sin_nombre_32-16);}.cls-18{fill:url(#Degradado_sin_nombre_32-17);}.cls-19{fill:url(#Degradado_sin_nombre_32-18);}.cls-20{fill:url(#Degradado_sin_nombre_32-19);}.cls-21{fill:url(#Degradado_sin_nombre_32-20);}.cls-22{fill:url(#Degradado_sin_nombre_32-21);}.cls-23{fill:url(#Degradado_sin_nombre_32-22);}.cls-24{fill:url(#Degradado_sin_nombre_32-23);}.cls-25{fill:url(#Degradado_sin_nombre_32-24);}</style><linearGradient id="Degradado_sin_nombre_32" y1="705.92" x2="853.65" y2="705.92" gradientUnits="userSpaceOnUse"><stop offset="0" stop-color="#62dd8e"/><stop offset="0.48" stop-color="#5dd08c"/><stop offset="1" stop-color="#56bd88"/></linearGradient><linearGradient id="Degradado_sin_nombre_32-2" x1="499.86" y1="50.15" x2="551" y2="50.15" xlink:href="#Degradado_sin_nombre_32"/><linearGradient id="Degradado_sin_nombre_32-3" x1="564.77" y1="35.43" x2="588.07" y2="35.43" xlink:href="#Degradado_sin_nombre_32"/><linearGradient id="Degradado_sin_nombre_32-4" x1="660.12" y1="32.32" x2="839.86" y2="32.32" xlink:href="#Degradado_sin_nombre_32"/><linearGradient id="Degradado_sin_nombre_32-5" x1="787.02" y1="97.99" x2="1117.06" y2="97.99" xlink:href="#Degradado_sin_nombre_32"/><linearGradient id="Degradado_sin_nombre_32-6" x1="1037.77" y1="149.15" x2="1101.07" y2="149.15" xlink:href="#Degradado_sin_nombre_32"/><linearGradient id="Degradado_sin_nombre_32-7" x1="1265.94" y1="36.17" x2="1345.26" y2="36.17" xlink:href="#Degradado_sin_nombre_32"/><linearGradient id="Degradado_sin_nombre_32-8" x1="1464.75" y1="26.07" x2="1541.89" y2="26.07" xlink:href="#Degradado_sin_nombre_32"/><linearGradient id="Degradado_sin_nombre_32-9" x1="1519.08" y1="71.8" x2="1591.04" y2="71.8" xlink:href="#Degradado_sin_nombre_32"/><linearGradient id="Degradado_sin_nombre_32-10" x1="1546.14" y1="971.33" x2="1615.01" y2="971.33" xlink:href="#Degradado_sin_nombre_32"/><linearGradient id="Degradado_sin_nombre_32-11" x1="2345.74" y1="1213.05" x2="2391.57" y2="1213.05" xlink:href="#Degradado_sin_nombre_32"/><linearGradient id="Degradado_sin_nombre_32-12" x1="2495.18" y1="1226.47" x2="2587.5" y2="1226.47" xlink:href="#Degradado_sin_nombre_32"/><linearGradient id="Degradado_sin_nombre_32-13" x1="2601.73" y1="1164.66" x2="2654" y2="1164.66" xlink:href="#Degradado_sin_nombre_32"/><linearGradient id="Degradado_sin_nombre_32-14" x1="2347.72" y1="852.46" x2="2517.26" y2="852.46" xlink:href="#Degradado_sin_nombre_32"/><linearGradient id="Degradado_sin_nombre_32-15" x1="2129.74" y1="1039.37" x2="2500.04" y2="1039.37" xlink:href="#Degradado_sin_nombre_32"/><linearGradient id="Degradado_sin_nombre_32-16" x1="2114.9" y1="864.55" x2="2291.72" y2="864.55" xlink:href="#Degradado_sin_nombre_32"/><linearGradient id="Degradado_sin_nombre_32-17" x1="2134.95" y1="775.02" x2="2223.13" y2="775.02" xlink:href="#Degradado_sin_nombre_32"/><linearGradient id="Degradado_sin_nombre_32-18" x1="2224.06" y1="663.42" x2="2289.32" y2="663.42" xlink:href="#Degradado_sin_nombre_32"/><linearGradient id="Degradado_sin_nombre_32-19" x1="2013.17" y1="784.5" x2="2115.89" y2="784.5" xlink:href="#Degradado_sin_nombre_32"/><linearGradient id="Degradado_sin_nombre_32-20" x1="2271.66" y1="415.53" x2="2356.98" y2="415.53" xlink:href="#Degradado_sin_nombre_32"/><linearGradient id="Degradado_sin_nombre_32-21" x1="1030.26" y1="769.83" x2="1620.53" y2="769.83" xlink:href="#Degradado_sin_nombre_32"/><linearGradient id="Degradado_sin_nombre_32-22" x1="1109.2" y1="396.13" x2="2446.54" y2="396.13" xlink:href="#Degradado_sin_nombre_32"/><linearGradient id="Degradado_sin_nombre_32-23" x1="1101.37" y1="254.88" x2="1137.93" y2="254.88" xlink:href="#Degradado_sin_nombre_32"/><linearGradient id="Degradado_sin_nombre_32-24" x1="1139.5" y1="244.48" x2="1183.05" y2="244.48" xlink:href="#Degradado_sin_nombre_32"/></defs><g id="Capa_2" data-name="Capa 2"><g id="Capa_1-2" data-name="Capa 1"><g class="cls-1"><g id="Group_3" data-name="Group 3"><g id="Group_2" data-name="Group 2"><g id="Group_1" data-name="Group 1"><path id="Path_2" data-name="Path 2" class="cls-2" d="M617.09,123.79a87.87,87.87,0,0,0-5.75-22,9.92,9.92,0,0,0-5.05-6.24,10.28,10.28,0,0,0-5,0l-25.76,3.94a9.91,9.91,0,0,0-5.88,2.28c-3.35,3.53,0,9.21-.15,14.08a13.25,13.25,0,0,1-10.24,11.39,38.94,38.94,0,0,1-16.3-.21l-36-5.59a59.54,59.54,0,0,0,27.26-18.18c4.74-5.62,7.26-16.1.4-18.75a16.78,16.78,0,0,0-6.23-.51c-16.32.13-29.16-13.5-44.44-19.23A49.15,49.15,0,0,0,428.6,81.23l19.19.92a8.58,8.58,0,0,1,5.12,1.36c4.2,3.46-1,10.09-.45,15.5.77,7,10.1,8.53,17.14,9.24s16,6.43,12.57,12.64c-35.36,12.17-71.34-23.81-108.48-19.38a220.4,220.4,0,0,0-27.45,7.12C290.18,122.81,232.24,85,175,93a217.76,217.76,0,0,0-37.4,9.86A50.39,50.39,0,0,0,116,114.11c-5.67,5.93-7.82,16.08-2.46,22.29a125.66,125.66,0,0,1-44-4.18,24.65,24.65,0,0,1,12.67,21.7A261,261,0,0,0,15.39,174.3a112.37,112.37,0,0,0,13.83,18.42L0,211.51a16.67,16.67,0,0,1,10.76,21,16.49,16.49,0,0,1-1.52,3.37c10.24-4.55,16.58-16.33,27.53-18.7,7.17-1.57,14.48,1.37,21.28,4.12s14.28,5.43,21.33,3.37,12.24-11.2,7.76-17a364.38,364.38,0,0,1,92.58-14.47,11.66,11.66,0,0,1,7,1.34c4.08,2.83,3,8.95,2.79,13.91s3.64,11.48,8.08,9.25c-5.22,4.52-.76,13,4.25,17.81s11,11.32,8,17.51c-.81,1.62-2.16,2.91-2.93,4.54-2.27,4.81,1.34,10.42,5.59,13.61A47.62,47.62,0,0,1,224.92,281c3,4.42,1.62,12.16-3.67,12.78l-15-19.11a39.05,39.05,0,0,0-10.14,19.23,40.35,40.35,0,0,1,5,55.19c-6.82,8-16.51,12.87-25,19.11s-16.28,15.14-16.26,25.65c0,18.16-1.45,35,5.34,51.87a797.84,797.84,0,0,0,43.39,90.51c4.29,7.68,9.84,16.09,18.53,17.42q-16.47-40.12-29.67-81.5c5.73,0,12.35.48,15.71,5.12,2.78,3.85,2.18,9.07,3.05,13.73a42.29,42.29,0,0,0,5.42,12.75l52.48,93.47c4.35,7.74,9.35,16.07,17.66,19.2,5.31,2,11.46,1.63,16.35,4.52,3.84,2.26,6.42,6.28,10.33,8.41,11.06,6,26.43-5.53,36.76,1.67a103.49,103.49,0,0,1,7.57,7.68C372.3,647,388,641.42,399,647.6c7.1,4,10.78,11.91,14.57,19.11,9.48,18,24.83,35.7,45.15,37.13a125,125,0,0,1,19.15.66c6.24,1.42,12.39,6.87,11.39,13.18-1.72,10.84,3.63,22.72,2.19,33.59-2.61,19.81-30.72,28.5-33.14,48.35a109.93,109.93,0,0,1-.73,13.08c-1.26,5.21-5.18,9.45-6.57,14.63-2.63,9.8,4.4,19.6,12.12,26.19s16.95,12.3,21.17,21.54c4.46,9.77,2.27,21.16,3.73,31.81,3.17,23.24,23.24,40.46,43.9,51.57A45.84,45.84,0,0,1,549,971c5.31,7.67,4.78,17.77,6.56,26.92,4.35,22.42,23.23,40.9,23.76,63.73.38,16.23-8.64,31-14,46.27a107.9,107.9,0,0,0,8.81,89.5,143.82,143.82,0,0,1,11.71,20.6c5.09,13.18,3.43,28.15,8.13,41.46,6.2,17.6,23.25,32.14,21.62,50.74,7.74,16.07,24.84,24,42,28.75l30.8,8.57a39.67,39.67,0,0,0,18.07,2.1,13.57,13.57,0,0,0,11.58-12.29c-15.11-3.4-30.7-7-43.15-16.23s-21-25.59-16.25-40.33c2.18-6.84,6.85-14.73,2.42-20.38-2.54-3.23-7.18-4.08-10-7-4.45-4.61-2.93-12.34.28-17.89s7.85-10.51,9.14-16.79a17.53,17.53,0,0,0-8.21-18.23,43.52,43.52,0,0,0,15.24-9.79,14.85,14.85,0,0,0,2.71-16.84c9.35,1.18,20.42,1.78,26.57-5.4,4.9-5.72,4.57-14.25,2.63-21.56a92.23,92.23,0,0,1-5.34-21.9,397.91,397.91,0,0,0,64.75-2.19,42,42,0,0,0-19.69-24.65c9.73-1.65,18.6-13.29,21.67-22.67a58.29,58.29,0,0,0,.4-29.27,15.73,15.73,0,0,1-.29-7.68,14.94,14.94,0,0,1,7.7-7.44l48.3-27.74a27.91,27.91,0,0,0,7.72-5.7c5.06-6,4.32-14.91,1.72-22.27s-6.74-14.28-7.74-22c-3-23.15,21.82-39.76,30.17-61.56a92.72,92.72,0,0,0,4.59-27c.68-9.79.73-21.22-6.8-27.54-7.23-6.06-18.52-4.71-26.08-10.35-6.93-5.17-9.32-15.22-16.9-19.39-6.88-3.8-15.5-1.38-23.15-3.17-13.47-3.14-21.94-18.66-35.7-20.1-7.76-.81-16.54,3-22.91-1.53-5.6-4-5.82-12-6.89-18.78a52.45,52.45,0,0,0-42.31-42.46c-8-1.28-16.71-.79-23.52-5.19s-10.05-12.78-15.47-19c-8.72-9.94-22.46-13.47-35.34-16.48l-52.36-12.31c-9.3-2.18-21.28-3.34-26.28,4.8a37.76,37.76,0,0,0-3.12,9.77,30.29,30.29,0,0,1-28.46,21.42,33.63,33.63,0,0,0-19.84-15.36,123.07,123.07,0,0,1-16.07-3.82,22.54,22.54,0,0,1-10.38-30.14h0c.19-.39.38-.76.59-1.13a28.07,28.07,0,0,0-4.8-33.77c-8.91-8-21.78-9.92-33.73-9.12-3.11-6.82,2.1-14.52,7.74-19.48s12.47-9.83,13.7-17.24c1.94-11.64-12.91-20.48-24.21-17s-18.49,14.43-23.25,25.24a74.62,74.62,0,0,1-9.35,18,18.4,18.4,0,0,1-17.82,7.29c-9.28-2.37-12.88-13.41-14.93-22.78a148.07,148.07,0,0,1-5-38.16,49.88,49.88,0,0,1,14.39-34.73c15.45-14.18,39.15-12.79,60-10.53a15.23,15.23,0,0,1,1.57-20.12,22.84,22.84,0,0,1,20.74-5.09,28.47,28.47,0,0,1,16.06,9.6c5.93,7.22,7.61,17,12.09,25.17S470.16,526.44,478.4,522c7.12-3.8,8.25-13.67,6.48-21.54S479.34,485,480,476.93c1.22-15.34,17.14-24.58,31.17-30.89s30.12-14.82,32.34-30.05a27.42,27.42,0,0,1,1.67-8.74,17.12,17.12,0,0,1,6.28-5.91c41-27.07,82.63-54.48,129.46-69.27,2.44-.77,2.72.09,5.21-.52,3.47-2,1.17-7.57-2.16-9.79s-7.79-4-8.63-7.88c-.63-2.89,1.07-5.72,1.51-8.63a10.77,10.77,0,0,0-14.15-10.92c-3.76-5,3.69-10.77,9.7-12.43a262.76,262.76,0,0,1,55.35-9,9.9,9.9,0,0,1,6.29,1.07,7.51,7.51,0,0,1,.51,10.27,59.89,59.89,0,0,1-8.46,7.69,23.14,23.14,0,0,0-6,23.25c9.77,5,20.4,10.09,31.22,8.34s20.43-13.92,15.34-23.61c-4.74-9-19-11.08-21.41-21-2.87-11.58,13.56-21.92,9.86-33.28-1.63-5-6.59-7.9-10.39-11.5a31.18,31.18,0,0,1-6.83-34.6,39.38,39.38,0,0,1-34.53-10.81c-8.26-8.33-14.86-21.48-26.58-21.1-10.77.34-20,12.91-30.1,9.06-2.48-.94-5.09-2.86-7.49-1.73a6.22,6.22,0,0,0-2.8,4.63c-2.55,12.23,1.84,26.15-4.81,36.72-7.26,11.5-24,13.09-32.83,23.46-4.77,5.63-6.62,13.2-11,19.14s-13.69,9.71-19,4.54a26.12,26.12,0,0,0-7.1-31.78A69.72,69.72,0,0,0,546,224a92.5,92.5,0,0,1-17.53-9.76,17.31,17.31,0,0,1-6.43-6.88,15.67,15.67,0,0,1,.45-10.88,44.48,44.48,0,0,1,35.41-29.35c7-.95,15.17-.62,19.81-6,2.45-2.82,3.74-7.09,7.3-8.24a10.76,10.76,0,0,1,6.75.83l26.17,9.2a18.31,18.31,0,0,0,9.32,1.54,6.31,6.31,0,0,0,5.46-6.64c-.83-4.34-7.52-6.43-6.91-10.8a7.22,7.22,0,0,1,2.19-3.69,93.59,93.59,0,0,1,74.19-29.29c3.3,5.42-1.92,11.84-6.27,16.48s-7.84,12.91-2.58,16.47a14.38,14.38,0,0,0,7,1.57,60.66,60.66,0,0,1,18.55,5.63q13.56,5.9,26.6,12.91a33.85,33.85,0,0,1,.67-17.13,11.59,11.59,0,0,1,13.75-7.48c5.19,2,7.86,8.91,13.4,9.53,7.38.84,10.3-10.07,7.21-16.83s-9.19-12.43-9.7-19.85c-.34-5,1.56-11.21-2.43-14.25a10.82,10.82,0,0,0-4.72-1.65L663.79,81.11C657.86,80,649.3,80.86,649,86.87c-.14,3.37,2.86,6.68,1.53,9.78-1.42,3.3-6.09,3-9.48,4.16a13,13,0,0,0-7.41,13.61,38.11,38.11,0,0,0,6.24,15.35C633.41,127,623.58,126.5,617.09,123.79Z"/><path id="Path_3" data-name="Path 3" class="cls-3" d="M537.45,39.07a32.31,32.31,0,0,0-35.51,10.64,7.1,7.1,0,0,0-1.64,7.48c2,3.36,7,2,10.68.83a27,27,0,0,1,16.93-.4c3.47,1.2,6.59,3.31,10.08,4.45a10.16,10.16,0,0,0,10.36-1.51,13.5,13.5,0,0,0,2.55-9.68,7.76,7.76,0,0,0-2-6.39,10.26,10.26,0,0,0-4.59-1.34,15.82,15.82,0,0,1-9.24-5.4"/><path id="Path_4" data-name="Path 4" class="cls-4" d="M573.44,29.06a8.22,8.22,0,0,0-8,11.57,33.13,33.13,0,0,0,13.29.87A11.35,11.35,0,0,0,588.07,33a21.4,21.4,0,0,1-15.14-2.89"/><path id="Path_5" data-name="Path 5" class="cls-5" d="M694.19,12.33A153,153,0,0,0,660.12,23.9a25.6,25.6,0,0,1,16.35,25.71,13.29,13.29,0,0,0,.16,6.36c1.24,3,4.87,4.17,8.06,5a53.23,53.23,0,0,0,17.69,2.26,18,18,0,0,0,14.64-9,63.15,63.15,0,0,1,3.05-7.2c7.64-11.63,30.34,2.44,38.54-8.81,2.89-4,2.63-9.92,6.39-13.06a14.37,14.37,0,0,1,6.58-2.51,461,461,0,0,1,49.92-7.12C829.44,14.84,839.78,12,839.86,4a138.33,138.33,0,0,0-88.22,11.86c-9.83,4.93-22.83,15.29-32.31,8.75-3.56-2.44-3.36-9-8.25-11.77A24.89,24.89,0,0,0,694.19,12.33Z"/><path id="Path_6" data-name="Path 6" class="cls-6" d="M792,30.61l14,2.7a18.19,18.19,0,0,0-19,17.35h0a18.44,18.44,0,0,0,.05,2.35c13.15,4.39,27.48.12,41.33.7s30,10.48,27.61,24.13c-.72,4.13-3.12,8.26-1.86,12.26a46,46,0,0,0,4.74,7.37,16.52,16.52,0,0,1-3.09,17.09c-3.67,4.9-8.62,8.8-11.84,14-8,12.91-3.47,29.66,1.31,44.11a39.08,39.08,0,0,0,7.48,14.93c7.08,7.53,18.63,8.18,29,8.34,7.53.11,16.14-.27,20.9-6.09,6.23-7.61,1.87-19.48,6-28.41,3.71-8.11,13.17-11.58,21.75-14.05a327,327,0,0,0,46.55-15.19c18.43-8.46,35.66-21.69,55.93-22.78a76.74,76.74,0,0,0,17-1.2,12.9,12.9,0,0,0,10.26-12c-.35-4.85-4.45-8.42-7.66-12.07s-5.73-9.28-2.78-13.15l53.11-9.92c-3.76-10.24-6.68-23.76,2-30.44,3.12-2.41,7.3-3.38,10-6.29,4.53-5,2.25-13.51-3-17.74a34.15,34.15,0,0,0-19-5.76,508.59,508.59,0,0,0-70.05.63L885.78,9c-9.18.49-19.78-.27-28.21,2.86-7.12,2.67-12.19,7.52-20.35,9.23C822.18,24.3,805.62,22.16,792,30.61Z"/><path id="Path_7" data-name="Path 7" class="cls-7" d="M1043.5,141.57a5.62,5.62,0,0,0-4.08.92,5.21,5.21,0,0,0-1.34,3.15,20.82,20.82,0,0,0,3,14.89,14.55,14.55,0,0,0,13.36,6.4c6.32-.8,11-6.19,16.79-8.83,9-4,47-10.36,20.68-24.58-9.06-4.9-14.93-.57-22.08,2.67A50.17,50.17,0,0,1,1043.5,141.57Z"/><path id="Path_8" data-name="Path 8" class="cls-8" d="M1274,22.59a14.93,14.93,0,0,0-7.31,6.36,6.41,6.41,0,0,0,2.4,8.51,9.55,9.55,0,0,0,3.59.57l12.49.38c5.31.16,11.94,1.29,13.36,6.4,1.06,3.8-1.31,8.68,1.55,11.39a8.13,8.13,0,0,0,4.25,1.66,29.08,29.08,0,0,0,12.59.4c9.09-2.44,4.32-8,7.18-12.91,4.38-7.57,3.62-3,11.34-7.32,5.7-3.2,13.07-9,8.31-17.15C1335.46,6.69,1286.19,16.49,1274,22.59Z"/><path id="Path_9" data-name="Path 9" class="cls-9" d="M1520.57,15.44l-7.25,1a291.79,291.79,0,0,0-48.57,9.3A81.16,81.16,0,0,0,1486,30.93a64.74,64.74,0,0,1,11.91,1.69c7,2.07,14,7.42,20.7,4.68,4.17-1.7,5.53-6,9-8.34,2.39-1.59,11.43-4.16,12.45-5.76C1548.22,10.26,1526.86,14.62,1520.57,15.44Z"/><path id="Path_10" data-name="Path 10" class="cls-10" d="M1552.43,48.43A135.75,135.75,0,0,0,1525.66,68a16.21,16.21,0,0,0-6.58,11.86c.41,6.2,7,9.8,12.74,12.22l23.2,9.8c2.81-4,.24-9.44-2.68-13.34s-6.36-8.4-5.08-13.09c1.47-5.34,8-7.17,13.46-8.09,8.91-1.51,33-1.38,30.08-15.75C1587.39,34.73,1561.38,43.42,1552.43,48.43Z"/><path id="Path_11" data-name="Path 11" class="cls-11" d="M1547.76,1006.27a22.17,22.17,0,0,0,1.4,19.5,19.78,19.78,0,0,0,20.29,7,36.56,36.56,0,0,0,18.83-12.11,64.93,64.93,0,0,0,10.83-16.61,129.51,129.51,0,0,0,8-29.39l7.2-37.79c1.61-8.46,1.55-34.35-14-25.91-4.25,2.3-14.07,20.48-18.51,25.67-8,9.3-9.07,18.33-13.29,29.59C1563.25,980.35,1552.65,992.12,1547.76,1006.27Z"/><path id="Path_12" data-name="Path 12" class="cls-12" d="M2368,1199.69a112.65,112.65,0,0,1-14.76-7,124.7,124.7,0,0,0-7.48,40.77l34.77-19.67c5.24-3,11.16-7.07,11-13.08a4.12,4.12,0,0,0-1.92-3.76,4.73,4.73,0,0,0-2.44-.29,58.74,58.74,0,0,0-14.72,4.74,18,18,0,0,1-15,.07"/><path id="Path_13" data-name="Path 13" class="cls-13" d="M2551.42,1211.37a74.61,74.61,0,0,0-11.13,4c-8,4.06-13.41,11.77-20.59,17.12a81.82,81.82,0,0,1-23.27,10.65,5.58,5.58,0,0,0,.8,7.85,4.74,4.74,0,0,0,.51.37,16.07,16.07,0,0,0,9.18,2.06,48.48,48.48,0,0,0,24.71-3.81,77.9,77.9,0,0,0,11.64-9.23,123.16,123.16,0,0,1,29.28-16.55,33.66,33.66,0,0,0,10.21-6.11c6.46-6.35,6.91-16.16-2.39-18.33C2572.83,1197.65,2558.58,1209.06,2551.42,1211.37Z"/><path id="Path_14" data-name="Path 14" class="cls-14" d="M2632.48,1158.44a29,29,0,0,0-8.88-23.76c-.09,8.75-.36,18.07-5.29,25.31-3.5,5.15-9,8.64-12.85,13.55s-5.55,12.7-1,17a16.8,16.8,0,0,0,10,3.45c9,1.06,19.35,1.65,25.65-4.84,3.44-3.54,5.11-8.77,9.29-11.38a11.19,11.19,0,0,0,4.08-2.91c1.74-2.76-1-6.38-4.11-7.37s-6.51-.53-9.62-1.47-6-4.45-4.36-7.27"/><path id="Path_15" data-name="Path 15" class="cls-15" d="M2488.43,837.56a40.35,40.35,0,0,1-14.4.84c-8-1.46-14.2-7.48-20.65-12.42a91,91,0,0,0-53.24-18.6c-17.52-.33-35.21,4.41-52.42,1.1a20.64,20.64,0,0,0,12.19,13.73c5.7,2.79,12,4.19,17.75,6.93a42.34,42.34,0,0,1,20.52,21.37,60.24,60.24,0,0,0,5.79,12.77c5.73,7.7,16.57,9.39,26.14,8.76,12.47-.82,25.51-4.41,37.12.24,8.88,3.57,15.24,11.33,22.66,17.37s17.86,10.53,26.37,6.17a43.62,43.62,0,0,1-30.17-42c8.36.76,32.41.46,31.12-13.72C2516.13,828.12,2495.6,836.26,2488.43,837.56Z"/><path id="Path_16" data-name="Path 16" class="cls-16" d="M2379.16,935.39c1.49-8.13,9.6-15.32,7.07-23.18a14.25,14.25,0,0,0-13.77-8.27c-5.72-.13-11.34,1.57-17.05,1.73a83.12,83.12,0,0,0-11.16.15c-11.34,1.87-18.34,13.76-29,18-6.5,2.57-13.81,2.08-20.57,3.85-15.35,4-25.06,18.54-35.78,30.23a127.82,127.82,0,0,1-64.83,37.8c-8.73,2-18.11,3.31-25.05,9-9.18,7.5-11.44,20.36-13.48,32.06a530.67,530.67,0,0,1-25.77,94.61l36.43,4.65a49.72,49.72,0,0,0,20.79-.3,60.63,60.63,0,0,0,13.67-7.28,136.41,136.41,0,0,1,53.32-19.25,56.76,56.76,0,0,1,28.5,2,26.53,26.53,0,0,1,17.37,21.2,22.4,22.4,0,0,1,22.37,5.44,38.86,38.86,0,0,1,10.69,21.32c1,5,1.92,11,6.55,13.06,3.78,1.7,8.1-.13,12.24-.45,14-1.12,25.63,15.22,39.41,12.4,14.76-3,18.39-25.13,32.8-29.56,8.28-2.54,19.88.55,23.84-7.13,3.49-6.78-3.47-14.61-2.75-22.2.89-9.36,11.92-13.33,20.42-17.32,29.33-13.76,43.25-53.22,29-82.33-8.42-17.25-25-30.82-28.05-49.77-2.36-14.57,3.39-31.57-5.9-43-4.73-5.84-12.74-9.06-15.55-16a78.76,78.76,0,0,1-2-14c-.95-4.63-5-9.48-9.57-8.28-13.27,3.49-17.51,44.5-24.62,54.46C2398,964,2375.77,954.05,2379.16,935.39Z"/><path id="Path_17" data-name="Path 17" class="cls-17" d="M2133.77,853.05a21.34,21.34,0,0,0-13.84-.71c-4.35,1.82-6.89,8.2-3.4,11.37,27.3-1.06,54.78-2.12,81.83,1.59,31.17,4.26,62,14.84,93.36,11.73a475,475,0,0,0-54.46-12.64l-30.66-5.85a238.06,238.06,0,0,0-24.9-3.85C2164.2,853.25,2151,857.87,2133.77,853.05Z"/><path id="Path_18" data-name="Path 18" class="cls-18" d="M2161.09,758c-2.27-.19-5.08-.35-6.23,1.59s.16,4.32-.45,6.41c-.82,2.85-4.56,3.56-7.5,3.19a14.38,14.38,0,0,0-8.73.1,7.4,7.4,0,0,0-2.86,8.41,21.48,21.48,0,0,0,5,8,82.16,82.16,0,0,0,13.1,13.13c9.38,6.93,22.08,10.25,28,20.31a13.61,13.61,0,0,0,3.74,5,10.43,10.43,0,0,0,9.59-1l10.69-4.9a12.13,12.13,0,0,0,5-3.4,11,11,0,0,0-1.11-11.61,20,20,0,0,1-4.24-11.37c.78-7.31,10.18-10.11,14-16.36s1.35-14.42,1.8-21.82c.53-8.65,6-19.89-2.78-26.36-7.43-5.49-14.53-.42-19.87,5.64C2187.09,745.88,2181.77,759.73,2161.09,758Z"/><path id="Path_19" data-name="Path 19" class="cls-19" d="M2226.07,628.77c3.66,7,11.28,11.17,15.27,18,4.31,7.38,3.82,16.92,8.51,24.09,4.8,7.34,14.48,11.24,17.18,19.59,2.94,9.12-3.74,20.2,1.59,28.17a11.81,11.81,0,0,0,16.57,2.23c.27-.2.53-.42.78-.64a12.73,12.73,0,0,0-.53-17.76c-3.15-2.88-7.68-4.11-10.31-7.47a15.75,15.75,0,0,1-2.67-6.5,42.55,42.55,0,0,1,.67-20.4,9.07,9.07,0,0,0,.51-5.35c-1.18-3.44-5.85-3.68-9.12-5.28-7.43-3.63-7.26-14.12-6-22.29-.86,5.44-20.24-3.81-22.26-6.89-4-6.12-1.84-17.93-2.63-24.69A19.22,19.22,0,0,0,2226.07,628.77Z"/><path id="Path_20" data-name="Path 20" class="cls-20" d="M2030.87,736.44c-3.57-4-9-8.19-13.76-5.79a8.7,8.7,0,0,0-3.23,10.74,23.53,23.53,0,0,0,7.8,9.3,272.6,272.6,0,0,1,29.47,25.25C2066.73,793.08,2075,816.21,2092,832a22.88,22.88,0,0,0,12.85,7,10,10,0,0,0,11.06-7.64,14.51,14.51,0,0,0-5.13-10.68c-6.59-7.17-13.8-13.77-20-21.26a17.73,17.73,0,0,1-5.12-10.69c0-4,3.64-8.25,7.57-7.25-4.75-1.22-8.28-9.13-15.25-10.62-5.83-1.24-7.24,2.36-14.18-.61C2050.51,764.53,2040.13,746.81,2030.87,736.44Z"/><path id="Path_21" data-name="Path 21" class="cls-21" d="M2341.74,346.69a113.38,113.38,0,0,1-11.17-4c-9.83-2.95-22.83,4.27-21.52,14.44.89,6.75,7.16,11.31,10.64,17.17,5.15,8.7,3.77,19.72,1.07,29.46a23.15,23.15,0,0,1-3.72,8.38,28.27,28.27,0,0,1-8.8,6.33,117.92,117.92,0,0,0-34.46,29.26,8.53,8.53,0,0,0-2.08,3.92c-.44,3.44,3,5.94,4.94,8.8,4.34,6.36,1.21,14.92,1.63,22.61a6.4,6.4,0,0,0,2.69,5.61c2.62,1.34,5.71-.93,7.13-3.5,4.7-8.51,1.16-22.18,10-26.27,1.67-.78,3.69-1.1,4.81-2.57,1.78-2.32.06-5.77,1-8.54,1.34-4.18,7-4.36,11.43-4.18a65.14,65.14,0,0,0,22.27-3,14.86,14.86,0,0,0,7.37-4.27,16,16,0,0,0,1.88-12.15,164.64,164.64,0,0,0-19.46-59.37c7.75,1,16.17,1.85,22.86-2.19,3.74-2.25,8.23-9,6.38-13.61C2353.63,341.78,2348.35,347.9,2341.74,346.69Z"/><path id="Path_22" data-name="Path 22" class="cls-22" d="M1348.71,461.34a29.85,29.85,0,0,1,.21,15,10.24,10.24,0,0,1-11.58,7.32c-3.75-1.13-5.93-4.89-8.59-7.79-14.83-16-48.3-6.74-57.44-26.54-3.75-8.09-1.2-17.78-3.75-26.31a23.42,23.42,0,0,0-23.77-16.1,48.56,48.56,0,0,0-13.64,4.07,344,344,0,0,1-90.4,22.61,74.44,74.44,0,0,0-17.37,3.16c-12.74,4.62-21.44,16.42-27.63,28.47s-10.77,25.1-19.07,35.8c-8.73,11.25-21,19.15-32.36,27.65a33,33,0,0,0-10.69,11.18,35.05,35.05,0,0,0-2.14,16.63l2.33,68.54a61.93,61.93,0,0,0,4.62,25.83c4.93,9.85,14.66,16.3,21.42,25A49,49,0,0,1,1069,707.13c-.14,4.54-.59,9.91,2.94,12.76a12.88,12.88,0,0,0,7.23,2.08l92.74,7.57c16.31,1.33,34.39,3.53,45,16,5,5.87,9.07,14.3,16.77,14.93a61.23,61.23,0,0,0,9.81-1.34c8.34-.65,15.66,5.67,20.28,12.63a56.08,56.08,0,0,1,9,35.95c-.76,8-3.22,15.67-3.75,23.64-2,30.28,23.67,56.63,24.16,87,.3,17.86-8.19,34.55-16.47,50.39,13.36,20.21,2.41,47.13,7.73,70.76,5,22.41,23.73,40,28.39,62.46,2.13,10.3,2.25,23,11.34,28.29a25.84,25.84,0,0,0,12.83,2.57,169,169,0,0,0,77-17.54c11.24-5.57,22.88-13.89,24.84-26.27,1.58-10-3.48-21.16,1.67-29.84,6.08-10.24,21.64-9.44,30.58-17.32,14.5-12.79,3.19-37.17,9.07-55.59,5.28-16.55,23.46-25.35,32.47-40.21a71.53,71.53,0,0,0,7.55-20.45,292.54,292.54,0,0,0,7.67-52.16,313,313,0,0,1,2.36-31.94c9.72-60.36,69.4-100.77,88.77-158.75,1.85-5.54,2.72-12.92-2.22-16a14.16,14.16,0,0,0-9.39-1l-42.75,5.39a29.32,29.32,0,0,1-15.81-.89,10.13,10.13,0,0,1-5.79-13c7.26-13.15-7.68-29.77-14.31-43.24a637.65,637.65,0,0,0-63.55-103,10.54,10.54,0,0,1-2.79-6l12.13.4c-4.09-14.7-10.85-30.77-25.12-36.15-8-3-17-2-25.55-1.51C1399.4,468.82,1373,465.11,1348.71,461.34Z"/><path id="Path_23" data-name="Path 23" class="cls-23" d="M1424,130.24c6.44,6.83,13.65,14.07,23,15.26,16.45,2.1,28.27-14.89,35.79-29.66a14.51,14.51,0,0,0,15.15,13.41,29.84,29.84,0,0,0,11.37-4.46,224.32,224.32,0,0,1,106.18-27.44,11.48,11.48,0,0,1,8.76-12.6c7.57-1.5,14.35,5,18,11.8s5.91,14.64,11.7,19.71,17,4.85,19.27-2.5c2.19-7.05-5.16-13.06-11.26-17.22s-12.54-11.85-8.43-18c31.18-6.9,62.58-13.83,94.5-15.2a39.83,39.83,0,0,0,15.9-2.74,12.38,12.38,0,0,0,7.43-13.07,36,36,0,0,1-37.59-14.18c44.28-3.65,91.39-6.77,130.63,14.07,4.71,10.11-19.29,18.52-12.87,27.64a11.63,11.63,0,0,0,9.71,3.31c27.27.51,54.7,1,81.67-3.12a109.36,109.36,0,0,1,29.7-2.4c16.48,2,30.57,13,46.79,16.61a25.11,25.11,0,0,0,19.56-2.33c5.56-3.84,7.95-12.58,3.39-17.56,15.27-15,40.6-11.25,60.74-4.09s39.21,18.7,60.52,20.3c15.29,1.15,30.78-3,45.87-.35A288.35,288.35,0,0,1,2237,93.9c17.55,4.9,36.1,3.87,54.33,4.11A380.84,380.84,0,0,1,2427,125a40.29,40.29,0,0,1,15.08,8.91,14.78,14.78,0,0,1,3.36,16.22l-44.62-6.52c4.2,8.27,15.08,9.69,23.91,12.54s18,12.61,12.68,20.22c-9.57-3-18.25,6.52-23.08,15.32s-10.72,19.35-20.75,19.89c-9,.47-19.84-7.17-25.7-.34a175.42,175.42,0,0,1,20.65,33c5.79,12,9.9,27.23,2.09,38.06a9.81,9.81,0,0,1-5.28,4.09c-6.38,1.62-10.53-6.18-15.11-10.92-5.79-6-14.49-7.65-22.31-10.45s-16-8.31-16.65-16.58a33.06,33.06,0,0,1,4.34-14.69,56.76,56.76,0,0,0,4.3-25.39,28.86,28.86,0,0,0-7.42-19.15,14.85,14.85,0,0,0-19.06-1.95c-2.52,2.08-4.53,5.42-7.79,5.54-5.79.23-10.2-9.82-14.84-6.4a15.74,15.74,0,0,1-2.14,10.55c-13.84,12-35.11,6.94-53,11.19a99.72,99.72,0,0,0-24.16,10.55,15.57,15.57,0,0,0-6.9,5.79,10.68,10.68,0,0,0,4.15,12.75,33,33,0,0,0,13.7,4.67c21.76,4.12,43.83,10.5,61,24.5s28.44,37.06,23,58.52l-42.9-41q2.45,25.83,2.77,51.78a23.13,23.13,0,0,1-1.36,10c-3,6.75-11.35,9-18.61,10.52a14.57,14.57,0,0,0-11.6,17,13,13,0,0,0,.41,1.63c2.58,8.42,9,15,14.91,21.51s11.69,14,12.46,22.71-5.84,18.64-14.62,18c-6.68-.44-11.57-6.41-14.43-12.47a78.8,78.8,0,0,0-8.79-17.88c-12.92-15.52-41.91-8.87-53.47-25.43a26.17,26.17,0,0,0-5.41,24.89c5.38-3.36,12.74-.24,16.79,4.66a113.57,113.57,0,0,1,9.12,16.66c4.29,7.41,11.1,14,11.7,22.53a74.6,74.6,0,0,0,.16,9.69c1.07,5.18,5.44,8.91,8.47,13.22,7.05,10.07,6.71,23.9,2.16,35.32a109,109,0,0,1-20.82,30.22,364.86,364.86,0,0,1-45.35,45.65,47.73,47.73,0,0,0-12.86,13,14,14,0,0,0,1.44,16.92c-3.28.17-9.15,1.79-12.43,2a288,288,0,0,1-.74-39.52c-12.92-6.21-26.85,10.42-25.19,24.66s12,25.67,19.31,38a44.9,44.9,0,0,1,7.57,29.83c-1.78,10.33-11,19.86-21.46,19-16.62-1.44-23.57-25.3-40-28a6.67,6.67,0,0,0-4.33.45c-2.44,1.33-2.87,4.6-3,7.39-.68,13.66-1.26,27.86,4.08,40.45,7.8,18.42,28,33.9,23.72,53.44-22.77-10.59-34.61-36.12-40-60.65s-6.27-50.28-15.91-73.48c-7.31,9.39-22.71,1.63-29.39-8.21-6.33-9.33-10.24-20.11-16.38-29.57s-15.59-17.92-26.84-18.44c-11.82-.54-22.06,7.57-31.07,15.22A72.49,72.49,0,0,0,1905.23,608c-6.31,12.66-4.66,27.61-5,41.74-.33,15.29-3.57,31.42-14,42.62s-29.67,15.09-41.16,5a46.32,46.32,0,0,1-11.5-20.69,1013.33,1013.33,0,0,1-31.13-111.09c-1.93,8.58-9.47,19.64-16.67,14.58a15,15,0,0,1-3.84-5c-13.43-22.75-38.29-36.4-63.42-44.59s-51.57-12-76.41-21a193.13,193.13,0,0,1-39.63-19.74,31.18,31.18,0,0,0-1.91,31.89,25.39,25.39,0,0,0,28.67,12c5.51-1.78,10.17-5.59,15.64-7.49s12.83-1,15.22,4.31c2.29,5.05-1.17,11.14.55,16.43,2.62,8,14.73,8.65,19,15.95a14.71,14.71,0,0,1-3.94,17,71.23,71.23,0,0,1-16,9.84c-17.81,9.9-30.49,26.81-46.06,40s-37.53,22.76-56.11,14.32c4.43-22.39-22.26-38.83-27.16-61.12-1.62-7.34-.77-15.14-3.08-22.27-3.34-10.35-12.53-17.47-20-25.32A99.32,99.32,0,0,1,1480,463.11c.41-9.21,2.1-18.58,0-27.55s-9.54-17.67-18.75-17.27c-21,.93-47.56,2.49-58.6-15.44-3.94-6.41-5.65-15.78,0-20.68,4-3.46,10-3.12,15.24-2.62l47.42,4.66c11.09,1.1,23.08,2,32.59-3.81s13.64-21.18,4.83-28c-6.44-5-18-4.71-19.85-12.64-1.56-6.6,5.75-14.09,1.78-19.59-2.83-3.95-9.19-2.85-13,.11a83,83,0,0,1-11,9.54c-7.57,3.94-16.61.19-24.75-2.36s-19-2.76-23,4.8c-4.42,8.46,3.92,19.53-.44,28-5.79,11.2-25.42,4.82-33.56,14.46-9.35,11,6.35,27.54,3.21,41.66A26,26,0,0,1,1356.6,415a24.82,24.82,0,0,1-10.73-23.11c.78-6.36,4.1-12.84,1.88-18.85a22.15,22.15,0,0,0-11.2-10.24l-46.09-25.46c-4.28,7.93,1.14,17.77,7.9,23.73s15.24,10.45,19.68,18.3a24,24,0,0,1-9,31.65,5.51,5.51,0,0,1-4.56.8,6.32,6.32,0,0,1-3-4c-8.13-20.81-20.34-41.32-39.86-52.18s-47.56-8.64-60.36,9.67c-3,4.35-5.08,9.31-7.72,13.91-14.07,24.42-44.23,36-72.41,35.23a14.34,14.34,0,0,1-7.9-1.85c-4.56-3.15-4.35-9.8-3.66-15.31l3-23.3a18.49,18.49,0,0,1,5.15-12.77c5.23-4.11,12.75-1.52,19.4-1.61a24.59,24.59,0,0,0,22.31-17.22,27.69,27.69,0,0,0-7.71-27.55c-3-2.87-7.12-6.46-5.52-10.32a8.49,8.49,0,0,1,6-4c11.93-3.47,24.55-4.38,36.29-8.46s23.13-12.47,25.92-24.59c.85-3.71,1.23-8.21,4.57-10.05a13.89,13.89,0,0,1,5.29-1.08,25.74,25.74,0,0,0,22.08-26.82c5.63-3.93,13.51-1,19,3.14s10.24,9.71,16.87,11.51c12.34,3.36,24.27-7.57,37.07-7.62,5.38,0,11,1.88,16,.06s8.2-7,12.14-10.73,10.84-6.08,14.48-2l-3.12-22.94a45.12,45.12,0,0,0,36.71-6.63l-40-13.52a8.83,8.83,0,0,1-3.74-2c-2.91-3.12,0-8,2.35-11.58,5.66-8.52,6.61-22.55-2.7-26.8-6.35-2.89-13.64.58-19.74,4l-29.21,16.29c-.93,5.55,5.86,8.69,10.07,12.43a16.89,16.89,0,0,1-11,29.5,21,21,0,0,1,3.76,17.81l-19.65,1.41a8.55,8.55,0,0,1-6.38-1.24c-2.1-1.87-1.81-5.14-2.3-7.91a17.16,17.16,0,0,0-14.4-12.56,50.68,50.68,0,0,0-20.12,1.85,12,12,0,0,1-8.66-.2,8.6,8.6,0,0,1-3.42-4.32,22.19,22.19,0,0,1,4.45-21.3,117.62,117.62,0,0,1,16.76-15.41,97.66,97.66,0,0,0,29-45c10.82-4.54,22-10.69,32.84-15.23a100.57,100.57,0,0,1,54-10.46l36.64.7a87.7,87.7,0,0,1,32,4.61c10,4.13,18.85,13.08,19.54,23.9a7.32,7.32,0,0,1-2.35,6.71,8.58,8.58,0,0,1-4.63,1C1438.44,127.36,1434.12,129.88,1424,130.24Z"/><path id="Path_24" data-name="Path 24" class="cls-24" d="M1132,245.06a10.75,10.75,0,0,0,2.92-10.79,20.07,20.07,0,0,0-20.77,3.92,35,35,0,0,0-5.56,7.36c-4.82,7.86-9.08,17.23-6.28,26a7.32,7.32,0,0,0,3.38,4.62,8.72,8.72,0,0,0,3.94.62,131.67,131.67,0,0,0,15.87-1c3.23-.39,7-1.31,8.24-4.31,1.64-4-2.33-8.43-1.18-12.55a13.73,13.73,0,0,1,3.39-4.85,6.38,6.38,0,0,0,2-5.39c-.44-1.93-3.42-3-4.49-1.33"/><path id="Path_25" data-name="Path 25" class="cls-25" d="M1159.45,209.41a44.28,44.28,0,0,0-14.38-.89,6.25,6.25,0,0,0-3.06.69,5.14,5.14,0,0,0-1.89,2.73,13.59,13.59,0,0,0,7.91,16.65,17.07,17.07,0,0,1,4.9,2c4.06,3.15,1.47,9.6,2.22,14.69.87,5.72,6.4,10.51,5.38,16.2-.79,4.48-5.58,8-4.81,12.52.8,4.7,6.77,6.11,11.53,6.49a14.44,14.44,0,0,0,8.16-.94,12.6,12.6,0,0,0,5.15-7.46,47.61,47.61,0,0,0,2.41-18,17.1,17.1,0,0,0-2-7.95,44.54,44.54,0,0,0-4.74-5.43C1167.11,230.07,1176.7,214.27,1159.45,209.41Z"/></g></g></g></g></g></g></svg>