<svg xmlns="http://www.w3.org/2000/svg" xmlns:xlink="http://www.w3.org/1999/xlink" viewBox="0 0 596.17 203.96"><defs><style>.cls-1{mask:url(#mask);filter:url(#luminosity-noclip-2);}.cls-2{mix-blend-mode:multiply;fill:url(#linear-gradient);}.cls-3{fill:#fff;}.cls-4{opacity:0.27;}.cls-5{mask:url(#mask-2);}.cls-6{fill:url(#linear-gradient-2);}.cls-7{fill:#588565;opacity:0.45;}.cls-8{filter:url(#luminosity-noclip);}</style><filter id="luminosity-noclip" x="0" y="-13456.96" width="596.17" height="32766" filterUnits="userSpaceOnUse" color-interpolation-filters="sRGB"><feFlood flood-color="#fff" result="bg"/><feBlend in="SourceGraphic" in2="bg"/></filter><mask id="mask" x="0" y="-13456.96" width="596.17" height="32766" maskUnits="userSpaceOnUse"><g class="cls-8"/></mask><linearGradient id="linear-gradient" x1="298.09" y1="4.49" x2="298.09" y2="203.96" gradientUnits="userSpaceOnUse"><stop offset="0"/><stop offset="1" stop-color="#fff"/></linearGradient><filter id="luminosity-noclip-2" x="0" y="4.49" width="596.17" height="199.47" filterUnits="userSpaceOnUse" color-interpolation-filters="sRGB"><feFlood flood-color="#fff" result="bg"/><feBlend in="SourceGraphic" in2="bg"/></filter><mask id="mask-2" x="0" y="4.49" width="596.17" height="199.47" maskUnits="userSpaceOnUse"><g class="cls-1"><path class="cls-2" d="M596.05,149.58c-1.68,10.61-19,8.37-29,7.82s-8.93,8.93-54.16,21.77-99.39-9.49-108.32-7.82-8.38,12.85-27.36,5S352.6,163.58,350.92,163s-15.07,17.85-39.08,17.85-25.13-8.38-31.83-3.91-41.32,29.59-74.82,26.8-76.5-39.44-83.76-37-48.58,17-62.54-5.36c0,0-32.94,16.19-48.57,1.65C2.72,155.94-.27,149.94,0,144.6c.71,6.65,4.91,11.66,18.11,7.77,28.48-8.38,33-18.43,47.46-7.82s19,15.64,26.81,12.85,26.24-7.82,30.15-20.11,3.91-17.86,3.91-17.86,16.19,32.38,23.45,22.89,9.49-11.53,11.17-3.53,0,30.33,34.61,31.45,40.77-11.73,51.93-11.17,18.43,9.49,29-1.67S296.2,126.13,288.94,115s-30.15-17.31-10.61-22.89S313,75.87,309,46.28C306.57,27.47,289,12.73,282.64,4.49c56.13,16.3,44.88,44,59.91,48-13.4,16.08-11.17,37.3,2.23,37.3s17.87,14.52,18.43,16.75,8.37-11.72,27.36-1.11,35.73,18.42,36.85,8.37,3-5,2.23-30.11c-.47-15.16-15.83-25.43-18.6-30.37,13.85,2.75,25.28,7.35,30.33,13.58,11.72,14.52,17.31,14.52,28.48,17.6,8.44,2.3,19.72,9.87,25.73,16.57-5,6.14-10.28,12.8-11.77,18.32-3.36,12.28-20.11,16.75,8.93,17.86s29-5.58,38.53,0,11.16,6.7,24-6.14a24.74,24.74,0,0,1,8.1-5.6c1.41,1.22,3.2,1.78,8.09,2.81C582.09,130.59,597.72,139,596.05,149.58Z"/></g></mask><linearGradient id="linear-gradient-2" x1="298.09" y1="4.49" x2="298.09" y2="203.96" gradientUnits="userSpaceOnUse"><stop offset="0" stop-color="#daddf4"/><stop offset="1" stop-color="#588565"/></linearGradient></defs><g id="Capa_2" data-name="Capa 2"><g id="Capa_1-2" data-name="Capa 1"><path class="cls-3" d="M596.05,149.58c-1.68,10.61-19,8.37-29,7.82s-8.93,8.93-54.16,21.77-99.39-9.49-108.32-7.82-8.38,12.85-27.36,5S352.6,163.58,350.92,163s-15.07,17.85-39.08,17.85-25.13-8.38-31.83-3.91-41.32,29.59-74.82,26.8-76.5-39.44-83.76-37-48.58,17-62.54-5.36c0,0-32.94,16.19-48.57,1.65C2.72,155.94-.27,149.94,0,144.6v0c.31-5.63,4.29-10.49,10.3-15.07C22,120.54,56.66,125,61.69,121.66s6.14-12.28,15.63-22.89S103.56,87,105.24,86.48s3.91-8.37,17.87-21.77,20.1-14,30.71-17.87,19.54-16.75,29.59-16.2S198.49,34,198.49,34s18.15-48.58,83.89-29.6a1.14,1.14,0,0,1,.26.09c56.13,16.3,44.88,44,59.91,48,2.48.67,5.69.67,10.05-.11,17.51-3.17,40.09-2.75,58.45.94,13.85,2.75,25.28,7.35,30.33,13.58,11.72,14.52,17.31,14.52,28.48,17.6,8.44,2.3,19.72,9.87,25.73,16.57a18,18,0,0,1,3.86,6c2.23,7.26,47.46,0,56.4,9.49,4.82,5.12,5.89,7.49,7.54,8.92,1.41,1.22,3.2,1.78,8.09,2.81C582.09,130.59,597.72,139,596.05,149.58Z"/><g class="cls-4"><g class="cls-5"><path class="cls-6" d="M596.05,149.58c-1.68,10.61-19,8.37-29,7.82s-8.93,8.93-54.16,21.77-99.39-9.49-108.32-7.82-8.38,12.85-27.36,5S352.6,163.58,350.92,163s-15.07,17.85-39.08,17.85-25.13-8.38-31.83-3.91-41.32,29.59-74.82,26.8-76.5-39.44-83.76-37-48.58,17-62.54-5.36c0,0-32.94,16.19-48.57,1.65C2.72,155.94-.27,149.94,0,144.6c.71,6.65,4.91,11.66,18.11,7.77,28.48-8.38,33-18.43,47.46-7.82s19,15.64,26.81,12.85,26.24-7.82,30.15-20.11,3.91-17.86,3.91-17.86,16.19,32.38,23.45,22.89,9.49-11.53,11.17-3.53,0,30.33,34.61,31.45,40.77-11.73,51.93-11.17,18.43,9.49,29-1.67S296.2,126.13,288.94,115s-30.15-17.31-10.61-22.89S313,75.87,309,46.28C306.57,27.47,289,12.73,282.64,4.49c56.13,16.3,44.88,44,59.91,48-13.4,16.08-11.17,37.3,2.23,37.3s17.87,14.52,18.43,16.75,8.37-11.72,27.36-1.11,35.73,18.42,36.85,8.37,3-5,2.23-30.11c-.47-15.16-15.83-25.43-18.6-30.37,13.85,2.75,25.28,7.35,30.33,13.58,11.72,14.52,17.31,14.52,28.48,17.6,8.44,2.3,19.72,9.87,25.73,16.57-5,6.14-10.28,12.8-11.77,18.32-3.36,12.28-20.11,16.75,8.93,17.86s29-5.58,38.53,0,11.16,6.7,24-6.14a24.74,24.74,0,0,1,8.1-5.6c1.41,1.22,3.2,1.78,8.09,2.81C582.09,130.59,597.72,139,596.05,149.58Z"/></g><path class="cls-7" d="M141,104.91s1.53-22,18.43-28.48,22.34,3.91,24,0,12.28-17.31,24.57-5l12.28,12.28S202.4,67.5,195.14,75.31s-6.85,15.62-16.83,14-13.78-9.74-25.05,0S141,104.91,141,104.91Z"/><path class="cls-7" d="M196.81,104.91s23.45-10.33,32.95-2.93,11.16,10.19,11.16,10.19,13.4-5.59,19.55,5.58,4.46,19.54,4.46,19.54-2.79-14.51-13.4-13.4-17.31,3.9-24.29-5.59S209.1,104.91,196.81,104.91Z"/></g></g></g></svg>