<svg xmlns="http://www.w3.org/2000/svg" xmlns:xlink="http://www.w3.org/1999/xlink" viewBox="0 0 255.93 256"><defs><style>.cls-1{fill:#65b3f0;}.cls-2{fill:#76c6ef;}.cls-3{fill:#e4e4e4;}.cls-4{fill:#fff;}.cls-5{fill:#33284d;}.cls-6{fill:url(#Degradado_sin_nombre_6);}.cls-7{fill:url(#Degradado_sin_nombre_6-2);}.cls-8{fill:url(#Degradado_sin_nombre_4);}.cls-9{fill:url(#Degradado_sin_nombre_6-3);}.cls-10{fill:url(#Degradado_sin_nombre_6-4);}</style><linearGradient id="Degradado_sin_nombre_6" x1="124.8" y1="200.49" x2="169.22" y2="200.49" gradientUnits="userSpaceOnUse"><stop offset="0" stop-color="#ff9657"/><stop offset="1" stop-color="#ffb55b"/></linearGradient><linearGradient id="Degradado_sin_nombre_6-2" x1="1.94" y1="189.48" x2="50.05" y2="189.48" xlink:href="#Degradado_sin_nombre_6"/><linearGradient id="Degradado_sin_nombre_4" x1="14.9" y1="171.1" x2="224.91" y2="171.1" gradientUnits="userSpaceOnUse"><stop offset="0" stop-color="#ffca57"/><stop offset="1" stop-color="#ffb55b"/></linearGradient><linearGradient id="Degradado_sin_nombre_6-3" x1="15.18" y1="173.91" x2="224.81" y2="173.91" xlink:href="#Degradado_sin_nombre_6"/><linearGradient id="Degradado_sin_nombre_6-4" x1="22.57" y1="148.27" x2="165.16" y2="148.27" xlink:href="#Degradado_sin_nombre_6"/></defs><g id="Capa_2" data-name="Capa 2"><g id="Capa_1-2" data-name="Capa 1"><ellipse class="cls-1" cx="127.96" cy="128" rx="126.02" ry="126.06"/><path class="cls-2" d="M97.52,97.55C146.7,48.35,200.14,22.05,217,38.75A126,126,0,0,0,38.74,217C22,200.2,48.34,146.74,97.52,97.55Z"/><path class="cls-3" d="M38.2,216.39a127.22,127.22,0,0,0,18.53,15.53c4.88-7.22,12.42-14.36,22.54-12,25,5.81,28.29-38.78,2-37.2C59.85,184,78.11,151,56.38,157.46a29.59,29.59,0,0,1-7.19,1.26C34.17,184.62,29.28,206.35,38.2,216.39Z"/><path class="cls-4" d="M44.66,132.16c6.73-1.85,24.58-7.1,29-26.16,4.67-20.18-22.25-26.11-16.85-38.77,5.92-13.86,54,4.44,54-17.43,0-12-14.28-8.68-23.9-11.06C75,35.78,69.79,26.21,68,17.16A126.34,126.34,0,0,0,3.06,111.4c-.09.7-.19,1.39-.27,2.09-.12,1.07-.22,2.13-.32,3.2-.08.88-.14,1.76-.2,2.65s-.14,2-.19,3S2,124.46,2,125.53c0,1.88,0,3.76,0,5.66,0,.55,0,1.11,0,1.67.06,1.44.14,2.88.25,4.32,0,.23,0,.47,0,.7.26,3.25.64,6.52,1.16,9.8a125.68,125.68,0,0,0,9.27,31.48l0,.07c.84,1.87,1.71,3.72,2.63,5.53l.27.53c.86,1.68,1.75,3.33,2.68,5l.43.74q1.35,2.35,2.81,4.63c.17.26.33.53.5.78q1.48,2.29,3.06,4.52l.45.63q1.68,2.34,3.47,4.58l.24.32a126.32,126.32,0,0,0,8.84,9.93c-8.92-10-4-31.77,11-57.67C30,159.57,24.43,137.74,44.66,132.16Z"/><path class="cls-3" d="M252.43,108.35a125.48,125.48,0,0,0-28.7-62.26A88,88,0,0,0,216,55.37c-6,8.24-18.46,8.64-25.26-4.82a29.1,29.1,0,0,0-10.69-11.81c-12.42,4.79-26.71,12.89-41.69,23.72-2.46,11.21,1.55,20.06,20,25.21,20.43,5.7,7.6,24-3,21-15.39-4.29-22.54-11-34.94-1.16s-10.26,26.63,4.58,29c10.55,1.71,16,16.57,11.85,21.21-5.86,5.18-14.12,25.9-3.08,38.14s19.38,3.61,22.5-3.55,3.25-11.92,8.91-21.46c4.22-7.12,18.88-10.27,18.88-10.27s7.47-9.29-.91-31.65,22.14-31.29,31.6-4.68c4.59,12.9-7.2,39.39,15.35,35.74,10.1-1.64,14,3.46,17.69,6.91A125.39,125.39,0,0,0,252.43,108.35Z"/><path class="cls-3" d="M210.93,186.82c.78,5.41-6,2.81-11.89,8.43s-7.43,8.86-14.49,5.33c-6.3-3.16,4.79-18,9.94-19.84S209.83,179.14,210.93,186.82Z"/><path class="cls-4" d="M138.87,60.48c-.19.65-.35,1.32-.5,2,15-10.83,29.27-18.93,41.69-23.72C166.05,30.11,146,35.53,138.87,60.48Z"/><path class="cls-5" d="M128,256A128.53,128.53,0,0,1,8,172.59a1.94,1.94,0,0,1,3.63-1.35A124.11,124.11,0,0,0,223,207.87a1.94,1.94,0,0,1,3,2.5A127.72,127.72,0,0,1,128,256Z"/><path class="cls-5" d="M232,201.14a1.94,1.94,0,0,1-1.6-3A124.14,124.14,0,0,0,128,3.88C59.54,3.88,3.88,59.56,3.88,128a124.28,124.28,0,0,0,4.06,31.61,1.94,1.94,0,1,1-3.75,1A128.33,128.33,0,0,1,0,128C0,57.42,57.4,0,128,0s128,57.42,128,128a127.32,127.32,0,0,1-22.35,72.29A2,2,0,0,1,232,201.14Z"/><polygon class="cls-6" points="124.8 190.67 155.24 226.91 164.21 220.37 169.22 174.06 124.8 190.67"/><path class="cls-5" d="M155.24,228.85a1.94,1.94,0,0,1-1.48-.69l-30.44-36.24a1.94,1.94,0,0,1-.39-1.74,2,2,0,0,1,1.19-1.33l44.42-16.6a1.92,1.92,0,0,1,2.49,1.13,2,2,0,0,1-.62,2.21,1.93,1.93,0,0,1,.43,1.44l-4.7,43.55a1.94,1.94,0,0,1-.79,1.35l-9,6.54A1.86,1.86,0,0,1,155.24,228.85Zm-27.19-37.33,27.51,32.75,6.81-5L167,177Z"/><polygon class="cls-7" points="22.02 208.03 1.94 172.69 19.79 170.93 50.05 186.19 22.02 208.03"/><path class="cls-5" d="M22,210a1.58,1.58,0,0,1-.38,0,2,2,0,0,1-1.31-.94L.25,173.65a1.95,1.95,0,0,1,1.5-2.89L19.6,169a1.92,1.92,0,0,1,1.06.2l30.26,15.26A1.92,1.92,0,0,1,52,186a1.94,1.94,0,0,1-.74,1.72l-28,21.84A1.93,1.93,0,0,1,22,210ZM5.1,174.33l17.49,30.79,23.85-18.58-27-13.63Z"/><path class="cls-8" d="M220.27,127.6c9.47,8.13,8.92,23.55-45.68,46.84S20.08,229.25,15.18,217.79s55.87-51.08,110.47-74.37S208.41,117.42,220.27,127.6Z"/><path class="cls-9" d="M220.27,127.6c9.25,8.37,8.92,23.55-45.68,46.84S20.15,229.22,15.18,217.79c5.66-6.52,52.22-29.68,106.16-54.46C174.2,139,203,127.39,220.27,127.6Z"/><path class="cls-4" d="M178.79,135.35a1.94,1.94,0,0,1-.49-3.82,89.47,89.47,0,0,0,24.19-11.1,1.94,1.94,0,1,1,2.15,3.23,92.38,92.38,0,0,1-25.37,11.63A2,2,0,0,1,178.79,135.35Z"/><path class="cls-5" d="M22.9,222.19c-7.95,0-8.95-2.34-9.51-3.63-1.42-3.32.62-7.77,6.23-13.62a1.94,1.94,0,1,1,2.8,2.69C16.33,214,16.7,216.43,17,217c.95,2.22,14.45,3,58.75-9.75,31.85-9.2,70.36-22.79,98.12-34.63,38.63-16.47,48-28,49-34.84.5-3.18-.8-6.12-3.85-8.74-10.27-8.81-34.36-6.23-71.58,7.69a1.94,1.94,0,1,1-1.36-3.63c39.19-14.65,63.88-16.94,75.46-7,4.08,3.5,5.87,7.74,5.17,12.27-1.75,11.31-19,24-51.34,37.82-27.9,11.9-66.59,25.55-98.57,34.79C46.69,219.7,31.1,222.19,22.9,222.19Z"/><path class="cls-5" d="M32.83,197.89a1.94,1.94,0,0,1-1.19-3.47c22.21-17.26,59.69-38.47,93.25-52.78q4.32-1.84,8.43-3.52a1.94,1.94,0,1,1,1.46,3.59c-2.72,1.11-5.51,2.27-8.37,3.5C93.13,159.4,56,180.41,34,197.48A1.88,1.88,0,0,1,32.83,197.89Z"/><polygon class="cls-10" points="48.18 119.25 22.57 131.64 97.63 177.29 165.16 145.88 48.18 119.25"/><path class="cls-5" d="M97.63,179.23a1.85,1.85,0,0,1-1-.29L21.56,133.3a1.94,1.94,0,0,1,.16-3.4l25.61-12.4a2,2,0,0,1,1.28-.14l117,26.63a1.94,1.94,0,1,1-.86,3.78L48.41,121.29,26.62,131.83l72,43.8a1.95,1.95,0,0,1-1,3.6Z"/></g></g></svg>