<svg xmlns="http://www.w3.org/2000/svg" xmlns:xlink="http://www.w3.org/1999/xlink" viewBox="0 0 258 258"><defs><style>.cls-1{fill:#fff;}.cls-2{fill:#ebebeb;}.cls-3{fill:#33284d;}.cls-4{fill:url(#Degradado_sin_nombre_12);}.cls-5{fill:url(#Degradado_sin_nombre_6);}.cls-6{fill:url(#Degradado_sin_nombre_12-2);}.cls-7{fill:url(#Degradado_sin_nombre_6-2);}.cls-8{fill:#9c9aaa;}.cls-9{fill:#69b1f2;}.cls-10{fill:url(#Degradado_sin_nombre_6-3);}.cls-11{fill:url(#Degradado_sin_nombre_12-3);}</style><linearGradient id="Degradado_sin_nombre_12" x1="206.15" y1="124.8" x2="212.89" y2="124.8" gradientUnits="userSpaceOnUse"><stop offset="0.01" stop-color="#ff6357"/><stop offset="1" stop-color="#ffb55b"/></linearGradient><linearGradient id="Degradado_sin_nombre_6" x1="199.41" y1="118.07" x2="206.15" y2="118.07" gradientUnits="userSpaceOnUse"><stop offset="0" stop-color="#ff9657"/><stop offset="1" stop-color="#ffb55b"/></linearGradient><linearGradient id="Degradado_sin_nombre_12-2" x1="37.73" y1="124.8" x2="44.46" y2="124.8" xlink:href="#Degradado_sin_nombre_12"/><linearGradient id="Degradado_sin_nombre_6-2" x1="44.46" y1="118.07" x2="51.2" y2="118.07" xlink:href="#Degradado_sin_nombre_6"/><linearGradient id="Degradado_sin_nombre_6-3" x1="86.49" y1="81.78" x2="164.34" y2="81.78" xlink:href="#Degradado_sin_nombre_6"/><linearGradient id="Degradado_sin_nombre_12-3" x1="86.49" y1="67.63" x2="157.85" y2="67.63" xlink:href="#Degradado_sin_nombre_12"/></defs><g id="Capa_2" data-name="Capa 2"><g id="Capa_1-2" data-name="Capa 1"><circle class="cls-1" cx="129" cy="129" r="127.05"/><path class="cls-2" d="M129,2a126.75,126.75,0,0,0-12.7.64,127,127,0,0,1,0,252.82A127,127,0,1,0,129,2Z"/><path class="cls-3" d="M218.48,221.14a2,2,0,0,1-1.38-3.34A125.09,125.09,0,0,0,129,3.91a125.82,125.82,0,0,0-107.43,61,2,2,0,0,1-3.36-2A129,129,0,0,1,258,129a128.15,128.15,0,0,1-38.14,91.58A2,2,0,0,1,218.48,221.14Z"/><path class="cls-3" d="M129,258A129.06,129.06,0,0,1,12.66,73.19a2,2,0,1,1,3.53,1.69A124,124,0,0,0,3.91,129a125.1,125.1,0,0,0,205.21,96.07,2,2,0,0,1,2.5,3A129.14,129.14,0,0,1,129,258Z"/><path class="cls-2" d="M47.73,72.69H202.89a10,10,0,0,1,10,10V202a0,0,0,0,1,0,0H37.73a0,0,0,0,1,0,0V82.69A10,10,0,0,1,47.73,72.69Z" transform="translate(250.62 274.74) rotate(180)"/><path class="cls-1" d="M61.2,72.69H189.41a10,10,0,0,1,10,10V202a0,0,0,0,1,0,0H51.2a0,0,0,0,1,0,0V82.69A10,10,0,0,1,61.2,72.69Z" transform="translate(250.62 274.74) rotate(180)"/><rect class="cls-2" x="51.2" y="175.09" width="148.21" height="5.39"/><rect class="cls-2" x="51.2" y="153.54" width="148.21" height="5.39"/><rect class="cls-2" x="71.41" y="131.98" width="107.79" height="5.39"/><rect class="cls-2" x="51.2" y="110.42" width="148.21" height="5.39"/><rect class="cls-2" x="51.2" y="88.86" width="128" height="5.39"/><rect class="cls-2" x="177.18" y="72.69" width="5.39" height="105.1"/><rect class="cls-2" x="149.9" y="157.58" width="5.39" height="44.46"/><rect class="cls-2" x="122.61" y="72.69" width="5.39" height="129.35"/><rect class="cls-2" x="95.33" y="134.67" width="5.39" height="43.12"/><rect class="cls-2" x="68.04" y="72.69" width="5.39" height="129.35"/><path class="cls-3" d="M199.41,203.39h-97a1.35,1.35,0,1,1,0-2.69h97a12.15,12.15,0,0,0,12.13-12.13V74H199.41a1.35,1.35,0,0,1,0-2.69h13.48a1.35,1.35,0,0,1,1.35,1.34V188.57A14.84,14.84,0,0,1,199.41,203.39Z"/><path class="cls-3" d="M94.32,203.39H51.2a14.84,14.84,0,0,1-14.82-14.82V72.69a1.34,1.34,0,0,1,1.35-1.34h153.6a1.35,1.35,0,1,1,0,2.69H39.07V188.57A12.15,12.15,0,0,0,51.2,200.7H94.32a1.35,1.35,0,0,1,0,2.69Z"/><path class="cls-4" d="M212.89,188.57V72.69A13.46,13.46,0,0,0,206.15,61V176.91A13.47,13.47,0,0,1,212.89,188.57Z"/><path class="cls-5" d="M206.15,61a13.38,13.38,0,0,0-6.74-1.82V175.09a13.38,13.38,0,0,1,6.74,1.82Z"/><path class="cls-6" d="M44.46,176.91V61a13.45,13.45,0,0,0-6.73,11.65V188.57A13.46,13.46,0,0,1,44.46,176.91Z"/><path class="cls-7" d="M51.2,175.09V59.22A13.41,13.41,0,0,0,44.46,61V176.91A13.41,13.41,0,0,1,51.2,175.09Z"/><path class="cls-3" d="M212.89,189.92a1.35,1.35,0,0,1-1.35-1.35,12.14,12.14,0,0,0-12.13-12.13,1.34,1.34,0,0,1-1.34-1.35V59.22a1.34,1.34,0,0,1,1.34-1.35,14.84,14.84,0,0,1,14.83,14.82V188.57A1.36,1.36,0,0,1,212.89,189.92Zm-12.13-16.11a14.81,14.81,0,0,1,10.78,6.25V72.69a12.14,12.14,0,0,0-10.78-12Z"/><path class="cls-3" d="M37.73,189.92a1.35,1.35,0,0,1-1.35-1.35V72.69A14.84,14.84,0,0,1,51.2,57.87a1.34,1.34,0,0,1,1.35,1.35v70.06a1.35,1.35,0,1,1-2.7,0V60.64a12.15,12.15,0,0,0-10.78,12V180.06a14.83,14.83,0,0,1,10.78-6.25V137.37a1.35,1.35,0,1,1,2.7,0v37.72a1.34,1.34,0,0,1-1.35,1.35,12.14,12.14,0,0,0-12.13,12.13A1.35,1.35,0,0,1,37.73,189.92Z"/><circle class="cls-8" cx="125.31" cy="134.67" r="8.08"/><circle class="cls-8" cx="152.26" cy="177.79" r="8.08"/><path class="cls-8" d="M153.6,180.48H80.84a13.47,13.47,0,0,1,0-26.94h88.93a8.09,8.09,0,1,0,0-16.17H125.31a2.7,2.7,0,1,1,0-5.39h44.46a13.48,13.48,0,1,1,0,27H80.84a8.08,8.08,0,0,0,0,16.16H153.6a2.7,2.7,0,1,1,0,5.39Z"/><g id="info"><ellipse class="cls-1" cx="125.05" cy="133.67" rx="13.45" ry="13.03"/><polygon class="cls-9" points="123.68 139.26 118.84 134.57 120.63 132.84 123.66 135.77 130.74 128.78 132.55 130.5 123.68 139.26"/></g><g id="info-2" data-name="info"><ellipse class="cls-8" cx="72.05" cy="111.54" rx="9.45" ry="9.15"/></g><path class="cls-10" d="M152.94,46.19h0a38.93,38.93,0,0,0-55,0h0a38.93,38.93,0,0,0,0,55.05l27.53,27.53,27.52-27.53A38.93,38.93,0,0,0,152.94,46.19Z"/><path class="cls-11" d="M102.07,51.41h0a38.93,38.93,0,0,1,55.05,0h0c.25.25.49.51.73.77a39,39,0,0,0-4.91-6h0a38.93,38.93,0,0,0-55,0h0a38.92,38.92,0,0,0-.73,54.29A39,39,0,0,1,102.07,51.41Z"/><path class="cls-3" d="M125.42,129.94a1.16,1.16,0,0,1-.83-.34L97.06,102.07a40.1,40.1,0,0,1,56.71-56.71h0a40.14,40.14,0,0,1,0,56.71L126.25,129.6A1.16,1.16,0,0,1,125.42,129.94Zm0-94a37.74,37.74,0,0,0-26.7,64.43l26.7,26.7,26.69-26.7A37.74,37.74,0,0,0,125.42,36Z"/><path class="cls-2" d="M137,58.24a19.34,19.34,0,0,1-27.08,27.08A19.35,19.35,0,1,0,137,58.24Z"/><path class="cls-1" d="M140.91,69.84A19.23,19.23,0,0,0,137,58.24a19.34,19.34,0,0,0-27.08,27.08,19.34,19.34,0,0,0,31-15.48Z"/><path class="cls-3" d="M125.42,94.26A20.55,20.55,0,1,1,146,73.72,20.57,20.57,0,0,1,125.42,94.26Zm0-38.74a18.2,18.2,0,1,0,18.19,18.2A18.21,18.21,0,0,0,125.42,55.52Z"/><path class="cls-1" d="M73,111.49,76.5,117H74l-2.35-3.69L69.39,117H67l3.52-5.35L67,106.12h2.55l2.35,3.69,2.21-3.69H76.5Z"/></g></g></svg>