<svg xmlns="http://www.w3.org/2000/svg" xmlns:xlink="http://www.w3.org/1999/xlink" viewBox="0 0 570 178.23"><defs><style>.cls-1{fill:none;}.cls-2,.cls-3{isolation:isolate;}.cls-3{fill:#fff;}.cls-4{fill:url(#Degradado_sin_nombre_6);}.cls-5{fill:url(#Degradado_sin_nombre_140);}.cls-6{fill:#a4a4a4;}.cls-6,.cls-7{mix-blend-mode:multiply;}.cls-7{fill:#eee;}.cls-8{fill:url(#Degradado_sin_nombre_6-2);}.cls-9{clip-path:url(#clip-path);}.cls-10{fill:url(#Degradado_sin_nombre_2);}.cls-11{fill:url(#Degradado_sin_nombre_2-2);}.cls-12{fill:url(#Degradado_sin_nombre_2-3);}.cls-13{fill:url(#Degradado_sin_nombre_2-4);}.cls-14{fill:url(#Degradado_sin_nombre_2-5);}.cls-15{fill:url(#Degradado_sin_nombre_2-6);}.cls-16{fill:url(#Degradado_sin_nombre_2-7);}.cls-17{fill:url(#Degradado_sin_nombre_2-8);}.cls-18{fill:url(#Degradado_sin_nombre_2-9);}.cls-19{fill:url(#Degradado_sin_nombre_2-10);}.cls-20{fill:url(#Degradado_sin_nombre_2-11);}.cls-21{fill:url(#Degradado_sin_nombre_2-12);}.cls-22{fill:url(#Degradado_sin_nombre_6-3);}.cls-23{fill:url(#Degradado_sin_nombre_6-4);}.cls-24{fill:url(#Degradado_sin_nombre_6-5);}</style><linearGradient id="Degradado_sin_nombre_6" x1="86.77" y1="1.24" x2="86.77" y2="150.79" gradientUnits="userSpaceOnUse"><stop offset="0" stop-color="#ff9652"/><stop offset="1" stop-color="#ffb554"/></linearGradient><linearGradient id="Degradado_sin_nombre_140" x1="86.77" y1="49.93" x2="86.77" y2="173.81" gradientUnits="userSpaceOnUse"><stop offset="0" stop-color="#fff"/><stop offset="0.38" stop-color="#f9f9f9"/><stop offset="0.88" stop-color="#e9e9e9"/><stop offset="1" stop-color="#e4e4e4"/></linearGradient><linearGradient id="Degradado_sin_nombre_6-2" x1="84.78" y1="47.71" x2="84.78" y2="104.89" xlink:href="#Degradado_sin_nombre_6"/><clipPath id="clip-path"><circle class="cls-1" cx="86.77" cy="91.46" r="58.59"/></clipPath><linearGradient id="Degradado_sin_nombre_2" x1="56.8" y1="27.69" x2="56.8" y2="193.07" gradientUnits="userSpaceOnUse"><stop offset="0" stop-color="#04db88"/><stop offset="0.48" stop-color="#0ace86"/><stop offset="1" stop-color="#05bb83"/></linearGradient><linearGradient id="Degradado_sin_nombre_2-2" x1="115.22" y1="27.69" x2="115.22" y2="193.07" xlink:href="#Degradado_sin_nombre_2"/><linearGradient id="Degradado_sin_nombre_2-3" x1="134.36" y1="27.69" x2="134.36" y2="193.07" xlink:href="#Degradado_sin_nombre_2"/><linearGradient id="Degradado_sin_nombre_2-4" x1="141.74" y1="27.69" x2="141.74" y2="193.07" xlink:href="#Degradado_sin_nombre_2"/><linearGradient id="Degradado_sin_nombre_2-5" x1="133.2" y1="27.69" x2="133.2" y2="193.07" xlink:href="#Degradado_sin_nombre_2"/><linearGradient id="Degradado_sin_nombre_2-6" x1="113.28" y1="27.69" x2="113.28" y2="193.07" xlink:href="#Degradado_sin_nombre_2"/><linearGradient id="Degradado_sin_nombre_2-7" x1="85.04" y1="27.69" x2="85.04" y2="193.07" xlink:href="#Degradado_sin_nombre_2"/><linearGradient id="Degradado_sin_nombre_2-8" x1="36.88" y1="27.69" x2="36.88" y2="193.07" xlink:href="#Degradado_sin_nombre_2"/><linearGradient id="Degradado_sin_nombre_2-9" x1="54.85" y1="27.69" x2="54.85" y2="193.07" xlink:href="#Degradado_sin_nombre_2"/><linearGradient id="Degradado_sin_nombre_2-10" x1="35.72" y1="27.69" x2="35.72" y2="193.07" xlink:href="#Degradado_sin_nombre_2"/><linearGradient id="Degradado_sin_nombre_2-11" x1="28.33" y1="27.69" x2="28.33" y2="193.07" xlink:href="#Degradado_sin_nombre_2"/><linearGradient id="Degradado_sin_nombre_2-12" x1="85.04" y1="27.69" x2="85.04" y2="193.07" xlink:href="#Degradado_sin_nombre_2"/><linearGradient id="Degradado_sin_nombre_6-3" x1="180.23" y1="91.05" x2="307.28" y2="91.05" xlink:href="#Degradado_sin_nombre_6"/><linearGradient id="Degradado_sin_nombre_6-4" x1="311.59" y1="91.67" x2="438.64" y2="91.67" xlink:href="#Degradado_sin_nombre_6"/><linearGradient id="Degradado_sin_nombre_6-5" x1="442.96" y1="92.29" x2="570" y2="92.29" xlink:href="#Degradado_sin_nombre_6"/></defs><title>RELOJ</title><g class="cls-2"><g id="Capa_2" data-name="Capa 2"><g id="Capa_1-2" data-name="Capa 1"><path class="cls-3" d="M133.56,164.51a86.73,86.73,0,0,1-101.95-140Z"/><path class="cls-4" d="M92.21,20.5V14.34h7a3.4,3.4,0,0,0,3.4-3.4V3.4A3.4,3.4,0,0,0,99.19,0H69.89A3.4,3.4,0,0,0,66.5,3.4v7.54a3.4,3.4,0,0,0,3.39,3.4h7V21a71.24,71.24,0,1,0,15.33-.47Z"/><circle class="cls-5" cx="86.77" cy="91.46" r="58.59"/><path class="cls-6" d="M85.79,86.54l43.39,4.08a.75.75,0,0,1,0,1.49L85.79,96.18a4.84,4.84,0,1,1-.9-9.64A6.76,6.76,0,0,1,85.79,86.54Z"/><circle class="cls-7" cx="85.03" cy="91.22" r="11.37"/><path class="cls-8" d="M80,91.09,84,47.71a.74.74,0,0,1,1.48,0L89.6,91.09A4.84,4.84,0,1,1,80,92,5.53,5.53,0,0,1,80,91.09Z"/><g class="cls-9"><g class="cls-2"><path class="cls-10" d="M55.33,34.89l-3.86,2.22L58.27,49c1.25-.79,2.53-1.54,3.85-2.22Z"/><path class="cls-11" d="M120.74,38.5,117,36.13l-7.26,11.56c1.29.73,2.55,1.52,3.76,2.37Z"/><path class="cls-12" d="M141.39,61.68l-2.19-3.87-11.88,6.73q1.19,1.89,2.2,3.87Z"/><path class="cls-13" d="M134.92,93.32h13.65V88.87H134.92c0,.74.05,1.48.05,2.22S135,92.58,134.92,93.32Z"/><path class="cls-14" d="M137.82,126.52l2.35-3.78-11.59-7.2c-.73,1.29-1.51,2.56-2.35,3.78Z"/><path class="cls-15" d="M114.75,147.29l3.86-2.21-6.8-11.84q-1.87,1.19-3.86,2.22Z"/><path class="cls-16" d="M87.26,41.22V27.56H82.81V41.22c.74,0,1.48-.06,2.23-.06S86.52,41.18,87.26,41.22Z"/><path class="cls-17" d="M32.26,55.67l-2.35,3.78,11.59,7.2q1.09-2,2.35-3.78Z"/><path class="cls-18" d="M49.33,143.69l3.77,2.37,7.27-11.56q-1.93-1.09-3.77-2.37Z"/><path class="cls-19" d="M28.68,120.51l2.2,3.87,11.87-6.74q-1.19-1.87-2.19-3.86Z"/><path class="cls-20" d="M35.16,88.87H21.51v4.45H35.16c0-.74-.06-1.48-.06-2.23S35.13,89.61,35.16,88.87Z"/><path class="cls-21" d="M82.81,141v13.65h4.45V141Q86.15,141,85,141C84.29,141,83.55,141,82.81,141Z"/></g></g><rect class="cls-22" x="180.23" y="19.52" width="127.04" height="143.08" rx="42" ry="42"/><rect class="cls-23" x="311.59" y="20.13" width="127.04" height="143.08" rx="42" ry="42"/><rect class="cls-24" x="442.96" y="20.75" width="127.04" height="143.08" rx="42" ry="42"/></g></g></g></svg>