<svg xmlns="http://www.w3.org/2000/svg" xmlns:xlink="http://www.w3.org/1999/xlink" viewBox="0 0 258 258"><defs><style>.cls-1{fill:#fff;}.cls-2{fill:#ebebeb;}.cls-3{fill:#33284d;}.cls-4{fill:#65b3f0;}.cls-5{fill:#76c6ef;}.cls-6{fill:#cacacc;}.cls-7{fill:#ddd;}.cls-8{fill:url(#Degradado_sin_nombre_8);}.cls-9{fill:url(#Degradado_sin_nombre_6);}</style><linearGradient id="Degradado_sin_nombre_8" x1="55.89" y1="222.48" x2="110.39" y2="222.48" gradientUnits="userSpaceOnUse"><stop offset="0" stop-color="#ff7857"/><stop offset="1" stop-color="#ffb55b"/></linearGradient><linearGradient id="Degradado_sin_nombre_6" x1="45.3" y1="233.25" x2="107.69" y2="233.25" gradientUnits="userSpaceOnUse"><stop offset="0" stop-color="#ff9657"/><stop offset="1" stop-color="#ffb55b"/></linearGradient></defs><g id="Capa_2" data-name="Capa 2"><g id="Capa_1-2" data-name="Capa 1"><circle class="cls-1" cx="129" cy="129" r="127.05"/><path class="cls-2" d="M129,2a126.75,126.75,0,0,0-12.7.64,127,127,0,0,1,0,252.82A127,127,0,1,0,129,2Z"/><path class="cls-3" d="M218.48,221.14a2,2,0,0,1-1.38-3.34A125.09,125.09,0,0,0,129,3.91a125.82,125.82,0,0,0-107.43,61,2,2,0,0,1-3.36-2A129,129,0,0,1,258,129a128.15,128.15,0,0,1-38.14,91.58A2,2,0,0,1,218.48,221.14Z"/><path class="cls-3" d="M129,258A129.06,129.06,0,0,1,12.66,73.19a2,2,0,1,1,3.53,1.69A124,124,0,0,0,3.91,129a125.1,125.1,0,0,0,205.21,96.07,2,2,0,0,1,2.5,3A129.14,129.14,0,0,1,129,258Z"/><path class="cls-4" d="M45,129a84.05,84.05,0,0,1,168.1,0Z"/><path class="cls-5" d="M129,45C90.14,45,58.64,82.58,58.64,129H72.32C72.32,82.58,97.7,45,129,45Z"/><path class="cls-5" d="M129,45C105.25,45,86,82.58,86,129h23.45C109.45,82.58,118.21,45,129,45Z"/><path class="cls-4" d="M215,144.64H43A15.64,15.64,0,0,0,27.36,129H230.64A15.64,15.64,0,0,0,215,144.64Z"/><path class="cls-3" d="M213.05,131a2,2,0,0,1-2-1.95,82.09,82.09,0,0,0-164.18,0A2,2,0,0,1,43,129a86,86,0,0,1,172,0A2,2,0,0,1,213.05,131Z"/><path class="cls-3" d="M129,46.91a9.78,9.78,0,1,1,9.77-9.77A9.78,9.78,0,0,1,129,46.91Zm0-15.64a5.87,5.87,0,1,0,5.86,5.87A5.87,5.87,0,0,0,129,31.27Z"/><path class="cls-3" d="M183.73,131H103.59a1.95,1.95,0,0,1,0-3.9h80.14a2,2,0,1,1,0,3.9Z"/><path class="cls-3" d="M215,146.59H43a2,2,0,0,1-2-2A13.7,13.7,0,0,0,27.36,131a1.95,1.95,0,0,1,0-3.9h64.5a2,2,0,1,1,0,3.9H38.41a17.65,17.65,0,0,1,6.44,11.73h168.3A17.65,17.65,0,0,1,219.59,131H195.45a2,2,0,0,1,0-3.9h35.19a2,2,0,1,1,0,3.9A13.7,13.7,0,0,0,217,144.64,2,2,0,0,1,215,146.59Z"/><path class="cls-6" d="M133.52,144.64s3.68,25.15-3.89,38l5.52,1,3.55-5.1c10.54-15.72,10.46-34,10.46-34Z"/><path class="cls-3" d="M135.15,185.65a1.55,1.55,0,0,1-.37,0l-5.51-1a1.95,1.95,0,0,1-1.32-2.91c7.12-12.11,3.67-36.5,3.63-36.74a2,2,0,0,1,1.94-2.24h15.64a2,2,0,0,1,2,1.95c0,.77,0,19-10.79,35.06l-3.57,5.12A2,2,0,0,1,135.15,185.65Zm-2.58-4.43,1.7.32,2.83-4.06c8.08-12.06,9.7-25.87,10-30.89H135.73C136.4,152.72,137.68,169.88,132.57,181.22Z"/><path class="cls-6" d="M138.7,178.6c10.54-15.72,10.46-34,10.46-34h20.59l-12.22,30.1Z"/><path class="cls-3" d="M138.7,180.55a2,2,0,0,1-1.62-3c10.06-15,10.12-32.69,10.12-32.87a1.92,1.92,0,0,1,.57-1.38,2,2,0,0,1,1.39-.58h20.59a2,2,0,0,1,1.81,2.69l-12.22,30.11a2,2,0,0,1-1.42,1.18l-18.83,3.85A1.72,1.72,0,0,1,138.7,180.55Zm12.35-34a70.2,70.2,0,0,1-8.33,29.19L156.11,173l10.74-26.45Z"/><path class="cls-6" d="M100.94,144.64c8.55,7.34,6.58,30.91,14.59,36.73s31.91,2,50.31-36.73h13.83c-13.83,49.84-73.45,91.27-73.45,91.27L77,206.67s-1.49-14.6,10.69-29.06c7.49-8.89-1.2-33-1.2-33Z"/><path class="cls-7" d="M158.23,158.32c-16.88,25.88-35.75,28.08-42.7,23.05-4.94-3.59-6.09-13.93-8.25-23.05H90c1.16,7,1.36,15-2.29,19.29C75.49,192.07,77,206.67,77,206.67l29.24,29.24s49-34.07,68.48-77.59Z"/><path class="cls-3" d="M106.22,237.86a1.95,1.95,0,0,1-1.12-3.55c.58-.41,57.23-40.23,72-87.72h-10c-13.74,28.3-29.3,36-37.42,38.08-6.06,1.55-11.62.92-15.27-1.72-4.58-3.33-6.16-10.85-7.82-18.8-1.45-6.93-3-14.08-6.39-17.56h-11c2.08,6.71,6.64,24.39,0,32.28-11.46,13.6-10.26,27.47-10.24,27.61a2,2,0,0,1-3.89.39c-.07-.63-1.43-15.59,11.14-30.52,5.43-6.45,1-23.9-1.4-30.64a1.86,1.86,0,0,1-.33-1.07,2,2,0,0,1,2-2h14.53a2,2,0,0,1,1.28.48c4.8,4.13,6.51,12.29,8.16,20.18,1.44,6.89,2.93,14,6.3,16.44,2.66,1.93,7.15,2.34,12,1.1,6.08-1.55,21.71-8.28,35.38-37.08a2,2,0,0,1,1.77-1.12h13.83a2,2,0,0,1,1.56.77,1.94,1.94,0,0,1,.32,1.71c-13.86,50-71.76,90.65-74.22,92.36A2,2,0,0,1,106.22,237.86Z"/><path class="cls-8" d="M109.82,242.28a2,2,0,0,0,0-2.77L71.46,201.15a2,2,0,0,0-2.77,0l-12.8,12.79,51.8,30.45Z"/><path class="cls-9" d="M99.48,252.56l8.21-8.17-51.8-30.45L45.3,224.54A126.76,126.76,0,0,0,99.48,252.56Z"/><path class="cls-3" d="M99.48,254.51a1.73,1.73,0,0,1-.45,0A129.12,129.12,0,0,1,44,226a2,2,0,0,1-.1-2.86l23.39-23.38a3.91,3.91,0,0,1,5.53,0L93.5,220.43a2,2,0,1,1-2.77,2.76L70.07,202.53l-21.9,21.9a125.27,125.27,0,0,0,50.71,26l9.56-9.5-9.51-9.51a2,2,0,0,1,2.76-2.77l9.51,9.51a3.91,3.91,0,0,1,0,5.54L100.86,254A2,2,0,0,1,99.48,254.51Z"/><circle class="cls-1" cx="69.8" cy="222.41" r="5.86"/><path class="cls-3" d="M69.8,230.23a7.82,7.82,0,1,1,7.82-7.82A7.83,7.83,0,0,1,69.8,230.23Zm0-11.73a3.91,3.91,0,1,0,3.91,3.91A3.92,3.92,0,0,0,69.8,218.5Z"/></g></g></svg>